<svg width="43" height="43" version="1.1" viewBox="0 0 43 43" xmlns="http://www.w3.org/2000/svg">
	<path d="m18.1 0.008315c-0.1137 0.01801-0.2216 0.06617-0.3145 0.1406l-2.555 2.045-3.268-0.1543c-0.2388-0.01125-0.4632 0.1039-0.5938 0.3027l-1.797 2.734-3.156 0.8633c-0.2296 0.06282-0.4099 0.2431-0.4727 0.4727l-0.8633 3.156-2.734 1.795c-0.199 0.1307-0.314 0.358-0.3027 0.5957l0.1543 3.268-2.045 2.555c-0.1488 0.1858-0.1896 0.4355-0.1055 0.6582l1.156 3.061-1.156 3.061c-0.08424 0.2227-0.04344 0.4723 0.1055 0.6582l2.045 2.555-0.1543 3.268c-0.01125 0.2376 0.1039 0.4632 0.3027 0.5938l2.734 1.797 0.8633 3.156c0.06282 0.2296 0.2431 0.4099 0.4727 0.4727l3.156 0.8633 1.795 2.734c0.1307 0.199 0.3585 0.3132 0.5957 0.3027l3.268-0.1543 2.555 2.045c0.1858 0.1489 0.4355 0.1897 0.6582 0.1055l3.061-1.158 3.061 1.158c0.0773 0.0291 0.1581 0.04297 0.2383 0.04297 0.1508 0 0.2986-0.05134 0.4199-0.1484l2.555-2.045 3.268 0.1543c0.2384 0.0106 0.463-0.1038 0.5938-0.3027l1.797-2.734 3.156-0.8633c0.2296-0.0629 0.4099-0.2432 0.4727-0.4727l0.8633-3.156 2.734-1.797c0.1989-0.1307 0.314-0.3562 0.3027-0.5938l-0.1543-3.268 2.045-2.555c0.1488-0.1858 0.1896-0.4354 0.1055-0.6582l-1.158-3.061 1.158-3.061c0.0842-0.2226 0.04343-0.4723-0.1055-0.6582l-2.045-2.555 0.1543-3.268c0.0113-0.2377-0.1039-0.4651-0.3027-0.5957l-2.734-1.795-0.8633-3.156c-0.0629-0.2296-0.2431-0.4099-0.4727-0.4727l-3.156-0.8633-1.797-2.734c-0.1307-0.199-0.356-0.3136-0.5938-0.3027l-3.268 0.1543-2.555-2.045c-0.1858-0.1488-0.4355-0.1896-0.6582-0.1055l-3.061 1.156-3.061-1.156c-0.1114-0.04212-0.2301-0.05317-0.3438-0.03516zm0.2266 1.432 2.939 1.109c0.1534 0.05795 0.3233 0.05795 0.4766 0l2.939-1.109 2.451 1.965c0.1279 0.1026 0.2894 0.1542 0.4531 0.1465l3.139-0.1484 1.725 2.627c0.0899 0.137 0.2285 0.236 0.3867 0.2793l3.029 0.8301 0.8301 3.029c0.0433 0.1582 0.1422 0.2966 0.2793 0.3867l2.627 1.725-0.1484 3.139c-0.0077 0.1638 0.04398 0.3252 0.1465 0.4531l1.965 2.451-1.109 2.939c-0.0579 0.1534-0.058 0.3232 0 0.4766l1.109 2.939-1.965 2.451c-0.1025 0.1279-0.1542 0.2893-0.1465 0.4531l0.1484 3.139-2.627 1.725c-0.137 0.0899-0.236 0.2285-0.2793 0.3867l-0.8301 3.029-3.029 0.8301c-0.1581 0.0433-0.2966 0.1422-0.3867 0.2793l-1.725 2.627-3.139-0.1484c-0.1638-0.0076-0.3252 0.04398-0.4531 0.1465l-2.451 1.965-2.939-1.109c-0.0767-0.029-0.1577-0.04492-0.2383-0.04492s-0.1616 0.01602-0.2383 0.04492l-2.939 1.109-2.451-1.965c-0.1279-0.1025-0.2896-0.1541-0.4531-0.1465l-3.139 0.1484-1.725-2.627c-0.0899-0.137-0.2285-0.236-0.3867-0.2793l-3.029-0.8301-0.8301-3.029c-0.04326-0.1581-0.1422-0.2966-0.2793-0.3867l-2.627-1.725 0.1484-3.139c0.00772-0.1639-0.04394-0.3252-0.1465-0.4531l-1.965-2.451 1.109-2.939c0.05795-0.1534 0.05795-0.3233 0-0.4766l-1.109-2.939 1.965-2.451c0.1025-0.1279 0.1542-0.2894 0.1465-0.4531l-0.1484-3.139 2.627-1.725c0.137-0.09 0.236-0.2284 0.2793-0.3867l0.8301-3.029 3.029-0.8301c0.1581-0.04325 0.2966-0.1422 0.3867-0.2793l1.725-2.627 3.139 0.1484c0.1636 0.00765 0.3252-0.04393 0.4531-0.1465zm2.807 2.744c-0.4844 0.00903-0.9691 0.03774-1.453 0.08789-3.929 0.4074-7.634 2.174-10.43 4.975-3.079 3.082-4.873 7.179-5.049 11.53-0.1751 4.327 1.256 8.527 4.031 11.83 0.1338 0.1593 0.3265 0.2422 0.5195 0.2422 0.1539 0 0.3067-0.05336 0.4336-0.1602 0.286-0.241 0.3247-0.6669 0.08398-0.9531-2.557-3.042-3.878-6.914-3.717-10.9 0.1623-4.012 1.816-7.786 4.654-10.63 2.579-2.581 5.993-4.209 9.613-4.584 3.57-0.3702 7.193 0.4822 10.2 2.4 0.3154 0.2011 0.7327 0.1086 0.9336-0.207 0.201-0.3157 0.1082-0.7345-0.207-0.9355-2.857-1.822-6.222-2.759-9.613-2.695zm11.61 4.178c-0.1306 0.00743-0.2581 0.08215-0.3535 0.2207-0.1908 0.277-0.1766 0.7066 0.03125 0.9609 0.1276 0.1563 0.2542 0.3187 0.377 0.4824 0.1228 0.1637 0.244 0.3337 0.3613 0.5039 0.1007 0.1463 0.239 0.2207 0.377 0.2207 0.1234 0 0.2476-0.05959 0.3457-0.1797 0.2078-0.2542 0.222-0.6839 0.03125-0.9609-0.1271-0.1845-0.2596-0.3695-0.3926-0.5469-0.1331-0.1774-0.2718-0.352-0.4102-0.5215-0.1038-0.1272-0.2366-0.1871-0.3672-0.1797zm-7.352 1.193c-0.6553 0-1.272 0.2583-1.736 0.7285-0.4643 0.4703-0.7197 1.097-0.7227 1.766-0.0239 0.1464-0.2763 0.6508-0.8926 1.25-0.5046 0.4908-1.377 1.167-2.664 1.594-0.5046 0.1675-0.9643 0.4752-1.369 0.916-0.2125 0.2312-0.532 0.5506-0.9258 0.8711-0.1934-0.1047-0.413-0.1641-0.6465-0.1641h-4.293c-0.7646 0-1.387 0.6364-1.387 1.418v11.71c0 0.7816 0.6221 1.418 1.387 1.418h4.293c0.5211 0 0.9761-0.2967 1.213-0.7324h10.96c1.159 0 2.104-0.9634 2.104-2.148 0-0.3984-0.1074-0.7734-0.293-1.094 0.6039-0.378 1.008-1.058 1.008-1.834 0-0.3984-0.1074-0.7715-0.293-1.092 0.6039-0.378 1.008-1.058 1.008-1.834 0-0.4485-0.1345-0.8659-0.3652-1.211 0.6521-0.4528 1.082-1.217 1.082-2.082 0-1.387-1.105-2.514-2.461-2.514h-4.52c1.098-1.262 1.816-2.701 1.955-3.99 0.0847-0.7875-0.1545-1.569-0.6543-2.145-0.4569-0.526-1.08-0.8178-1.758-0.8242-0.0078-9e-5 -0.01564-0.00195-0.02344-0.00195zm0.0098 1.373c0.376 0.0035 0.6248 0.2007 0.7676 0.3652 0.2449 0.2819 0.3668 0.6871 0.3242 1.084-0.1465 1.363-1.214 3.047-2.717 4.291-0.2209 0.1828-0.3057 0.4879-0.2109 0.7617 0.0948 0.2739 0.3486 0.457 0.6328 0.457h6.193c0.6166 0 1.119 0.5122 1.119 1.143 0 0.6303-0.5026 1.145-1.119 1.145h-0.3574c-0.3704 0-0.6699 0.3066-0.6699 0.6855 0 0.3787 0.2994 0.6855 0.6699 0.6855 0.4193 0 0.7598 0.3487 0.7598 0.7773 0 0.4286-0.3405 0.7773-0.7598 0.7773h-0.7148c-0.3705 0-0.6719 0.3066-0.6719 0.6855 0 0.3787 0.3013 0.6855 0.6719 0.6855 0.4192 0 0.7598 0.3487 0.7598 0.7773s-0.3406 0.7773-0.7598 0.7773h-0.7168c-0.3705 0-0.6699 0.3066-0.6699 0.6855 0 0.3787 0.2994 0.6875 0.6699 0.6875 0.4193 0 0.7617 0.3487 0.7617 0.7773s-0.3424 0.7773-0.7617 0.7773h-10.78v-6.631c0-0.3788-0.3013-0.6855-0.6719-0.6855-0.3705 0-0.6699 0.3066-0.6699 0.6855v7.316c0 0.0252-0.02032 0.04492-0.04492 0.04492h-4.293c-0.0247 0-0.04492-0.01972-0.04492-0.04492v-11.71c0-0.0253 0.02022-0.04492 0.04492-0.04492h4.293c0.0246 0 0.04492 0.01962 0.04492 0.04492v1.465c0 0.3788 0.2994 0.6855 0.6699 0.6855 0.3706 0 0.6719-0.3067 0.6719-0.6855v-1.465c0-0.0333-0.0037-0.06496-0.0059-0.09766 0.503-0.3981 0.9055-0.8003 1.168-1.086 0.2483-0.2705 0.5195-0.4556 0.8066-0.5508 1.579-0.5241 2.643-1.369 3.256-1.984 0.7687-0.7716 1.229-1.576 1.229-2.152 0-0.3042 0.1154-0.5892 0.3262-0.8027 0.2134-0.2162 0.4954-0.3297 0.8008-0.3301zm10.04 1.025c-0.08678 0.01463-0.1731 0.04743-0.252 0.09766-0.3157 0.2009-0.4081 0.6184-0.207 0.9336 1.918 3.008 2.77 6.632 2.4 10.2-0.3753 3.62-2.003 7.034-4.584 9.613-2.841 2.838-6.615 4.49-10.63 4.652-3.988 0.162-7.861-1.158-10.9-3.715-0.2863-0.2407-0.7122-0.2041-0.9531 0.08203-0.241 0.286-0.2043 0.7143 0.08203 0.9551 3.121 2.623 7.044 4.045 11.12 4.045 0.2357 0 0.4723-0.0042 0.709-0.01367 4.353-0.1761 8.447-1.969 11.53-5.049 2.801-2.798 4.569-6.503 4.977-10.43 0.4013-3.872-0.5256-7.802-2.607-11.07-0.1508-0.2366-0.4232-0.3486-0.6836-0.3047z"/>
</svg>
