<svg width="9.762" height="11.94" version="1.1" viewBox="0 0 9.762 11.94" xmlns="http://www.w3.org/2000/svg">
	<path d="m4.881 0c-1.317 1e-8 -2.388 1.038-2.408 2.322h-1.438c-0.1721-1e-7 -0.319 0.1279-0.334 0.2988l-0.6992 7.701c-0.002495 0.0098-0.001953 0.0195-0.001953 0.0293 0 0.8767 0.8199 1.588 1.83 1.588h6.102c1.01 0 1.83-0.7112 1.83-1.588 0-0.0098-2e-3 -0.0195-2e-3 -0.0293l-0.6972-7.701c-0.0149-0.1709-0.1594-0.2988-0.334-0.2988h-1.438c-0.01995-1.284-1.093-2.322-2.41-2.322zm0 0.6582c0.9454 1e-7 1.716 0.7434 1.736 1.664h-3.473c0.01996-0.9206 0.791-1.664 1.736-1.664zm-3.537 2.324h1.129v1.002c1e-7 0.1832 0.1489 0.3301 0.3359 0.3301 0.1871 0 0.3359-0.1469 0.3359-0.3301v-1.002h3.475v1.002c0 0.1832 0.1508 0.3301 0.3379 0.3301 0.1871 0 0.3359-0.1469 0.3359-0.3301v-1.002h1.127l0.6699 7.383c-0.01 0.5055-0.5246 0.916-1.158 0.916h-6.102c-0.6311 0-1.146-0.4105-1.156-0.916zm5.902 2.779-2.623 2.648-1.592-1.609-0.4629 0.4668 1.594 1.609 0.4609 0.4668h0.00195l0.4609-0.4668 2.621-2.648z"/>
</svg>
