<svg width="16" height="19" version="1.1" viewBox="0 0 16 19" xmlns="http://www.w3.org/2000/svg">
	<path d="m0.004087 16.42 1.145-12.25c0.02453-0.272 0.2657-0.4779 0.5478-0.4779h2.355c0.0327-2.044 1.79-3.695 3.949-3.695s3.916 1.651 3.949 3.695h2.355c0.2862 0 0.5233 0.2059 0.5478 0.4779l1.145 12.25c0 0.0156 0.0041 0.0311 0.0041 0.0467 0 1.395-1.345 2.529-3 2.529h-9.999c-1.656 0-3.001-1.135-3.001-2.529 0-0.0156 0-0.0311 0.004087-0.0467zm7.996-15.37c-1.549 0-2.812 1.181-2.845 2.646h5.69c-0.0327-1.465-1.296-2.646-2.845-2.646zm-4.999 16.9h9.999c1.038 0 1.88-0.6527 1.897-1.457l-1.096-11.75h-1.848v1.593c0 0.2914-0.2453 0.5245-0.5519 0.5245s-0.5518-0.2331-0.5518-0.5245v-1.593h-5.694v1.593c0 0.2914-0.2453 0.5245-0.5519 0.5245-0.3066 0-0.5519-0.2331-0.5519-0.5245v-1.593h-1.848l-1.1 11.75c0.01635 0.8043 0.8626 1.457 1.897 1.457z"/>
</svg>
