<svg width="14.73" height="14.95" version="1.1" viewBox="0 0 14.73 14.95" xmlns="http://www.w3.org/2000/svg">
	<path d="m13.73 0c-0.2556 0-0.5112 0.0971-0.707 0.293l-5.768 5.768-5.547-5.545c-0.3917-0.3917-1.022-0.3917-1.414 0-0.3917 0.3917-0.3917 1.022 0 1.414l5.547 5.545-5.547 5.547c-0.3917 0.3917-0.3917 1.022 0 1.414 0.3917 0.3917 1.022 0.3917 1.414 0l5.547-5.547 5.768 5.768c0.3917 0.3917 1.022 0.3917 1.414 0 0.3917-0.3917 0.3917-1.022 0-1.414l-5.768-5.768 5.768-5.768c0.3917-0.3917 0.3917-1.022 0-1.414-0.1959-0.1959-0.4514-0.293-0.707-0.293z"/>
</svg>
