<svg width="13" height="13" version="1.1" viewBox="0 0 13 13" xmlns="http://www.w3.org/2000/svg">
	<path d="m6.5 0c-3.584 0-6.5 2.916-6.5 6.5 0 3.584 2.916 6.5 6.5 6.5 3.584 0 6.5-2.916 6.5-6.5 0-3.584-2.916-6.5-6.5-6.5zm0 1.115c2.97 0 5.387 2.415 5.387 5.385 0 2.97-2.417 5.387-5.387 5.387-2.97 0-5.385-2.417-5.385-5.387 0-2.97 2.415-5.385 5.385-5.385zm-2.121 2.707c-0.1425 0-0.2857 0.05329-0.3945 0.1621-0.2176 0.2176-0.2176 0.5714 0 0.7891l1.729 1.727-1.729 1.729c-0.2176 0.2176-0.2176 0.5695 0 0.7871 0.1088 0.1088 0.252 0.1641 0.3945 0.1641 0.1426 0 0.2859-0.0552 0.3945-0.1641l1.727-1.727 1.727 1.727c0.1088 0.1088 0.252 0.1641 0.3945 0.1641s0.2857-0.0552 0.3945-0.1641c0.2176-0.2176 0.2176-0.5695 0-0.7871l-1.729-1.729 1.729-1.727c0.2176-0.2176 0.2176-0.5714 0-0.7891-0.2176-0.2176-0.5718-0.2176-0.7891 0l-1.727 1.729-1.727-1.729c-0.1088-0.1088-0.252-0.1621-0.3945-0.1621z"/>
</svg>
