<svg width="23.33" height="17.5" version="1.1" viewBox="0 0 23.33 17.5" xmlns="http://www.w3.org/2000/svg">
	<path d="m23.33 14.58c0 0.5116-0.1439 0.9858-0.3744 1.403l-7.367-8.243 7.288-6.376c0.2834 0.4499 0.4542 0.9783 0.4542 1.549zm-11.67-5.343 10.14-8.872c-0.4161-0.2278-0.8847-0.3675-1.39-0.3675h-17.5c-0.5061 0-0.9748 0.1397-1.389 0.3675zm2.827-0.5368-2.347 2.055c-0.1373 0.1196-0.3083 0.1793-0.4798 0.1793-0.1717 0-0.3427-0.0597-0.48-0.1793l-2.348-2.055-7.46 8.348c0.4472 0.2805 0.9713 0.4486 1.538 0.4486h17.5c0.5667 0 1.091-0.1681 1.538-0.4486zm-14.04-7.336c-0.2834 0.4499-0.4543 0.9783-0.4543 1.549v11.67c0 0.5115 0.1432 0.9857 0.3746 1.403l7.366-8.244z"/>
</svg>
