<svg width="9.668" height="17.96" version="1.1" viewBox="0 0 9.668 17.96" xmlns="http://www.w3.org/2000/svg">
	<path d="m5.972 17.96h-2.728c-0.4556 0-0.8262-0.3916-0.8262-0.8731v-6.502h-1.591c-0.4556 0-0.8262-0.3918-0.8262-0.8731v-2.786c0-0.4815 0.3706-0.8731 0.8262-0.8731h1.591v-1.395c0-1.383 0.411-2.56 1.189-3.403 0.781-0.8469 1.872-1.294 3.156-1.294l2.08 0.00357c0.4549 8.24e-4 0.8249 0.3925 0.8249 0.8731v2.587c0 0.4815-0.3705 0.8731-0.826 0.8731l-1.401 5.5e-4c-0.4271 0-0.5359 0.0905-0.5592 0.1182-0.0383 0.04601-0.0839 0.1761-0.0839 0.5352v1.102h1.938c0.1459 0 0.2873 0.03804 0.4088 0.1097 0.2622 0.1548 0.4251 0.4474 0.4251 0.7637l-1e-3 2.786c0 0.4812-0.3706 0.8729-0.8263 0.8729h-1.945v6.502c0 0.4815-0.3708 0.8731-0.8264 0.8731zm-2.555-1.055h2.383v-6.792c0-0.3215 0.2476-0.583 0.5517-0.583h2.22l9e-4 -2.422h-2.221c-0.3041 0-0.5515-0.2615-0.5515-0.583v-1.575c0-0.4123 0.03963-0.8811 0.3341-1.233 0.3558-0.426 0.9166-0.4752 1.307-0.4752l1.228-5.4e-4v-2.223l-1.907-0.0033c-2.063 0-3.346 1.396-3.346 3.643v1.867c0 0.3214-0.2474 0.583-0.5515 0.583h-1.866v2.422h1.866c0.3041 0 0.5515 0.2615 0.5515 0.583zm5.425-15.89h1e-4z"/>
</svg>
