<svg width="19" height="17" version="1.1" viewBox="0 0 19 17" xmlns="http://www.w3.org/2000/svg">
	<path d="m9.5 17c-0.2705 0-0.5313-0.0985-0.7345-0.2776-0.7676-0.6749-1.508-1.309-2.16-1.869l-0.00333-0.0029c-1.914-1.64-3.567-3.057-4.717-4.453-1.286-1.56-1.884-3.039-1.884-4.655 0-1.57 0.5353-3.019 1.507-4.079 0.9835-1.073 2.333-1.664 3.801-1.664 1.097 0 2.101 0.3487 2.985 1.036 0.4462 0.3471 0.8506 0.7719 1.207 1.267 0.3564-0.4955 0.7607-0.9203 1.207-1.267 0.8841-0.6877 1.888-1.036 2.985-1.036 1.467 0 2.817 0.5909 3.801 1.664 0.9719 1.06 1.507 2.509 1.507 4.079 0 1.616-0.5987 3.095-1.884 4.655-1.15 1.396-2.803 2.812-4.717 4.453-0.6541 0.5604-1.395 1.196-2.164 1.872-0.2031 0.1788-0.464 0.2773-0.7344 0.2773zm-4.192-15.88c-1.153 0-2.212 0.4627-2.982 1.303-0.7819 0.853-1.213 2.032-1.213 3.32 0 1.359 0.5023 2.575 1.628 3.941 1.088 1.321 2.708 2.708 4.582 4.315l0.00348 0.0029c0.6554 0.5617 1.398 1.198 2.171 1.878 0.7779-0.6812 1.522-1.319 2.179-1.882 1.874-1.607 3.493-2.994 4.582-4.315 1.126-1.367 1.628-2.582 1.628-3.941 0-1.288-0.4307-2.467-1.213-3.32-0.7703-0.8403-1.83-1.303-2.982-1.303-0.8445 0-1.62 0.27-2.304 0.8024-0.6101 0.4747-1.035 1.075-1.284 1.495-0.1282 0.2159-0.3537 0.3448-0.6035 0.3448s-0.4753-0.1289-0.6035-0.3448c-0.249-0.4198-0.6741-1.02-1.284-1.495-0.6846-0.5324-1.46-0.8024-2.304-0.8024z"/>
</svg>
