<svg width="12" height="10.68" version="1.1" viewBox="0 0 12 10.68" xmlns="http://www.w3.org/2000/svg">
	<path d="m6 10.68c-0.1708 0-0.3355-0.0619-0.4639-0.1743-0.4848-0.4239-0.9521-0.8222-1.364-1.174l-0.0021-0.0018c-1.209-1.03-2.253-1.92-2.979-2.796-0.812-0.9798-1.19-1.909-1.19-2.924 0-0.986 0.3381-1.896 0.952-2.562 0.6212-0.6737 1.474-1.045 2.4-1.045 0.6927 0 1.327 0.219 1.885 0.6508 0.2818 0.218 0.5372 0.4848 0.7623 0.796 0.2251-0.3112 0.4805-0.578 0.7624-0.796 0.5584-0.4319 1.193-0.6508 1.885-0.6508 0.9267 0 1.779 0.3711 2.4 1.045 0.6139 0.6659 0.9519 1.576 0.9519 2.562 0 1.015-0.3781 1.944-1.19 2.924-0.7264 0.8765-1.77 1.766-2.979 2.796-0.4131 0.3519-0.8812 0.7509-1.367 1.176-0.1283 0.1122-0.2931 0.1741-0.4638 0.1741z"/>
</svg>
