<svg width="17" height="17" version="1.1" viewBox="0 0 17 17" xmlns="http://www.w3.org/2000/svg">
	<path d="m2.49 0c-1.373 0-2.49 1.117-2.49 2.49v12.02c0 1.373 1.117 2.49 2.49 2.49h12.02c1.373 0 2.49-1.117 2.49-2.49v-12.02c0-1.373-1.117-2.49-2.49-2.49zm0 0.9961h12.02c0.8238 0 1.494 0.6703 1.494 1.494v12.02c0 0.8238-0.6703 1.494-1.494 1.494h-12.02c-0.8238 0-1.494-0.6703-1.494-1.494v-12.02c0-0.8238 0.6703-1.494 1.494-1.494zm10.99 1.029c-0.8239 0-1.494 0.6703-1.494 1.494 0 0.8239 0.6702 1.494 1.494 1.494 0.8238 0 1.494-0.6703 1.494-1.494s-0.6703-1.494-1.494-1.494zm0 0.9961c0.2745 0 0.498 0.2235 0.498 0.498 0 0.2746-0.2235 0.498-0.498 0.498-0.2746 0-0.498-0.2235-0.498-0.498 0-0.2746 0.2234-0.498 0.498-0.498zm-4.98 0.9961c-2.472 0-4.482 2.011-4.482 4.482 0 2.472 2.011 4.482 4.482 4.482 2.472 0 4.482-2.011 4.482-4.482 0-2.472-2.011-4.482-4.482-4.482zm0 0.9961c1.922 0 3.486 1.564 3.486 3.486 0 1.922-1.564 3.486-3.486 3.486-1.922 0-3.486-1.564-3.486-3.486 0-1.922 1.564-3.486 3.486-3.486z"/>
</svg>
