<svg width="34" height="44.7" version="1.1" viewBox="0 0 34 44.7" xmlns="http://www.w3.org/2000/svg">
	<path d="m13.07 0c-1.084 0-1.967 0.8646-1.967 1.928 0 1.063 0.8828 1.928 1.967 1.928h0.8945c-0.0359 0.03805-0.07097 0.0757-0.1055 0.1152l-7.908 9.045c-2.473 1.178-4.064 3.658-4.064 6.359 8e-5 3.898 3.233 7.068 7.207 7.068 2.661 0 5.111-1.455 6.357-3.74h3.094c1.246 2.285 3.696 3.74 6.357 3.74 3.974 0 7.207-3.171 7.207-7.068 0-2.702-1.591-5.181-4.064-6.359l-7.908-9.045c-0.0345-0.03953-0.06947-0.07718-0.1055-0.1152h0.8945c1.084 0 1.967-0.8647 1.967-1.928 1e-4 -1.063-0.8827-1.928-1.967-1.928h-1.322c-1.063 0-2.008 0.5004-2.605 1.273-0.5975-0.773-1.542-1.273-2.605-1.273zm0 1.299h1.322c0.8389 0 1.555 0.5242 1.826 1.256h-3.148c-0.353 0-0.6406-0.2808-0.6406-0.627 0-0.3462 0.2876-0.6289 0.6406-0.6289zm6.533 0h1.322c0.353 0 0.6406 0.2827 0.6406 0.6289 0 0.3462-0.2876 0.627-0.6406 0.627h-3.148c0.2715-0.7317 0.9874-1.256 1.826-1.256zm-3.816 2.826-1.338 2.621 1.186 0.582 1.363-2.67 1.363 2.67 1.186-0.582-1.338-2.621c0.3487 0.1635 0.6639 0.3984 0.9219 0.6934l7.6 8.689-8.051 7.896h-3.363l-8.049-7.896 7.598-8.689c0.2579-0.295 0.5731-0.53 0.9219-0.6934zm-9.553 10.21 7.998 7.844c-1.032 1.814-3.002 2.965-5.139 2.965-3.243 0-5.881-2.589-5.881-5.77-9.01e-5 -1.342 0.4808-2.616 1.312-3.625l2.354 2.307 0.9375-0.9199-2.348-2.301c0.2397-0.1847 0.4954-0.3522 0.7656-0.5zm21.53 0c1.85 1.012 3.021 2.944 3.021 5.039 0 3.181-2.638 5.77-5.881 5.77-1.334 0-2.605-0.45-3.621-1.229l3.916-3.84-0.9375-0.9199-3.924 3.85c-0.2129-0.2568-0.4054-0.5325-0.5723-0.8262zm0.5938 2.033-0.6543 0.9531c0.1794 0.2762 0.3291 0.59 0.4434 0.9355l0.8164-0.6055c-0.1566-0.4729-0.3599-0.9051-0.6055-1.283zm1.102 1.889-1.125 0.2734c0.0642 0.2367 0.0957 0.4806 0.0957 0.7246 0 0.0639-0.0016 0.1281-0.0059 0.1914l1.16 0.07031c6e-3 -0.0869 0.0078-0.1744 0.0078-0.2617 0-0.3358-0.04441-0.6724-0.1328-0.998zm-1.084 2.52c-0.2085 0.6479-0.6705 1.221-1.301 1.615l0.7344 0.9023c0.8639-0.5402 1.497-1.327 1.783-2.217zm-22.21 0.6289-1.125 0.7188c0.6705 0.8732 1.656 1.513 2.775 1.801l0.373-1.205c-0.8149-0.2095-1.534-0.6774-2.023-1.314zm5.479 0.6309c-0.276 0.269-0.592 0.4925-0.9375 0.6641l0.6074 1.225c0.473-0.2348 0.9032-0.5418 1.281-0.9102zm-1.84 0.6289c-0.299 0.1217-0.6138 0.1676-0.916 0.1367l-0.07031 1.738c0.08644 0.0089 0.176 0.01367 0.2637 0.01367 0.3359 0 0.6705-0.06642 0.9961-0.1992zm-8.043 7.555c-0.9689 0-1.758 0.7993-1.758 1.781 0 0.982 0.789 1.781 1.758 1.781h1.984l-1.891 2.545 1.053 0.8047 1.502-2.02v1.74l4.254 1.018c3.037 0.7263 5.401 3.198 6.023 6.297l0.1074 0.5352h4.418l0.1074-0.5352c0.6224-3.099 2.986-5.57 6.023-6.297l4.254-1.018v-1.74l1.502 2.02 1.053-0.8047-1.891-2.545h1.984c0.9689 0 1.758-0.7993 1.758-1.781 0-0.9819-0.789-1.781-1.758-1.781h-1.113c-1.347 0-2.477 0.9527-2.775 2.227h-22.71c-0.2986-1.274-1.428-2.227-2.775-2.227zm0 1.338h1.113c0.6107 0 1.138 0.3642 1.385 0.8887h-2.498c-0.2415-1e-4 -0.4395-0.2005-0.4395-0.4453 0-0.2448 0.198-0.4434 0.4395-0.4434zm29.37 0h1.111c0.2415 0 0.4395 0.1986 0.4395 0.4434 0 0.2448-0.1981 0.4453-0.4395 0.4453h-2.498c0.2473-0.5245 0.776-0.8887 1.387-0.8887zm-25.41 2.225h22.55v2.012l-3.238 0.7754c-3.359 0.8035-6.012 3.44-6.891 6.795h-2.293c-0.8782-3.355-3.532-5.991-6.891-6.795l-3.238-0.7754v-0.2031h3.096v-1.338h-3.096zm10.02 0.8457v1.26h1.26v-1.26zm1.889 0v1.26h1.26v-1.26zm2.52 0v1.26h5.666v-1.26zm-5.385 2.52-0.9121 1.027c1.111 1.116 1.99 2.503 2.541 4.01l1.236-0.5117c-0.6215-1.702-1.612-3.266-2.865-4.525z"/>
</svg>
