<svg width="17" height="17" version="1.1" viewBox="0 0 17 17" xmlns="http://www.w3.org/2000/svg">
	<path d="m16.85 16.13-4.132-4.131c1.108-1.274 1.78-2.936 1.78-4.753 0-3.999-3.254-7.249-7.25-7.249-4 0-7.25 3.253-7.25 7.249 0 3.996 3.254 7.249 7.25 7.249 1.817 0 3.48-0.6709 4.754-1.779l4.132 4.131c0.098 0.098 0.23 0.1508 0.3582 0.1508s0.2601-0.049 0.3582-0.1508c0.196-0.196 0.196-0.5202 0-0.7162zm-15.84-8.884c0-3.438 2.798-6.231 6.232-6.231 3.438 0 6.232 2.797 6.232 6.231 0 3.434-2.794 6.235-6.232 6.235-3.435 0-6.232-2.797-6.232-6.235z"/>
</svg>
