<svg width="15.68" height="21.85" version="1.1" viewBox="0 0 15.68 21.85" xmlns="http://www.w3.org/2000/svg">
	<path d="m7.838 0c-2.09 0-4.06 0.8379-5.535 2.354-2.752 2.826-3.086 8.018-0.7422 11.24l0.00391 0.0059c8.552e-4 0.0012 0.0011 0.0027 0.00195 0.0039l5.174 7.674c0.519 0.7699 1.678 0.7699 2.197 0l5.164-7.662 2e-3 -0.0039c2.357-3.231 2.025-8.428-0.7286-11.26-1.476-1.516-3.447-2.354-5.537-2.354zm0 1.453c1.707 0 3.307 0.6797 4.518 1.922 2.233 2.294 2.52 6.737 0.5859 9.387l-0.0039 0.0039-2e-3 0.0059-4.537 6.729c-0.2739 0.4063-0.8453 0.4063-1.119 0l-4.549-6.746-0.00391-0.0059c-1.925-2.636-1.638-7.079 0.5957-9.373 1.21-1.243 2.808-1.922 4.516-1.922zm0 3.547c-1.555 0-2.824 1.27-2.824 2.824 0 1.555 1.27 2.824 2.824 2.824 1.555 0 2.824-1.27 2.824-2.824 0-1.555-1.27-2.824-2.824-2.824zm0 1.363c0.8084 0 1.461 0.6526 1.461 1.461 0 0.8084-0.6526 1.461-1.461 1.461s-1.461-0.6526-1.461-1.461c0-0.8084 0.6526-1.461 1.461-1.461z"/>
</svg>
