<svg width="46" height="47.35" version="1.1" viewBox="0 0 46 47.35" xmlns="http://www.w3.org/2000/svg">
	<path d="m3.172 0c-1.752 0-3.172 1.413-3.172 3.156v11.05c0 1.743 1.42 3.158 3.172 3.158h20.62c1.752 0 3.172-1.415 3.172-3.158v-11.05c0-1.743-1.42-3.156-3.172-3.156zm0 1.578h20.62c0.8761 0 1.586 0.7063 1.586 1.578v11.05c0 0.8718-0.7098 1.58-1.586 1.58h-20.62c-0.8761 0-1.586-0.7083-1.586-1.58v-11.05c0-0.8718 0.7099-1.578 1.586-1.578zm0 2.367v1.58h14.28v-1.58zm25.38 2.369v1.578h3.172c1.314 0 2.379 1.06 2.379 2.367v0.7891h-5.551v1.578h5.551v17.25l-0.9922-1.072c-0.5614-0.6086-1.35-0.9608-2.18-0.9746-0.2108-9e-3 -0.423 0.0032-0.6309 0.03906l0.6113-2.426 0.6387-2.559h0.9668v-1.578h-1.586c-0.364 1e-4 -0.6814 0.2462-0.7695 0.5977l-0.6426 2.559h-12.07c-0.4379 1e-4 -0.7931 0.3551-0.793 0.791 0 0.0643 0.0078 0.1271 0.02344 0.1895l1.586 6.314c0.0882 0.3515 0.4054 0.5976 0.7695 0.5977h9.172c0.1055 0.1902 0.2312 0.3699 0.375 0.5332l0.623 0.6953c-0.1459 0.2171-0.3899 0.3475-0.6523 0.3496h-10.31v1.58h10.31c0.6494-0.0029 1.268-0.2713 1.715-0.7402l2.949 3.301c-0.559 2.042-0.2861 4.222 0.7617 6.064-0.3166 0.9732-1.226 1.634-2.254 1.635h-15.86c-1.314 0-2.379-1.062-2.379-2.369v-0.7891h18.24v-1.578h-18.24v-22.1h-1.586v24.46c0.0026 2.178 1.776 3.945 3.965 3.947h15.86c1.321 0 2.554-0.6553 3.291-1.746 0.2631 0.29 0.5462 0.5622 0.8477 0.8125l0.9043 0.75 1.016-1.213-0.9043-0.75c-2.083-1.713-2.888-4.529-2.023-7.076 0.0898-0.2674 0.0298-0.5623-0.1582-0.7734l-4.928-5.516c-0.5156-0.5787-0.49-1.456 0.05859-2.004 0.2879-0.2734 0.6704-0.4265 1.068-0.4277 0.3998 0.0062 0.7808 0.1752 1.051 0.4688l7.92 8.539 1.164-1.072-5.361-5.777h0.01953v-21.31c-0.002595-2.178-1.776-3.943-3.965-3.945zm-25.38 2.367v1.578h1.586v-1.578zm3.174 0v1.578h1.586v-1.578zm3.172 0v1.578h1.586v-1.578zm3.172 0v1.578h1.586v-1.578zm6.346 0c-1.314 0-2.381 1.06-2.381 2.367 0 1.308 1.067 2.367 2.381 2.367 0.4165-0.0023 0.8232-0.115 1.182-0.3262 1.133 0.6628 2.592 0.2874 3.258-0.8398s0.289-2.577-0.8438-3.24c-0.7444-0.4356-1.67-0.4356-2.414 0-0.3583-0.2117-0.7649-0.3254-1.182-0.3281zm0 1.578c0.438 0 0.793 0.3533 0.793 0.7891s-0.355 0.7891-0.793 0.7891-0.793-0.3533-0.793-0.7891c0-0.4358 0.355-0.7891 0.793-0.7891zm2.379 0c0.438 0 0.793 0.3533 0.793 0.7891s-0.355 0.7891-0.793 0.7891c-0.0473-0.0023-0.09453-0.0087-0.1406-0.01953 0.1867-0.4959 0.1867-1.041 0-1.537 0.0461-0.0108 0.09333-0.01878 0.1406-0.02148zm-18.24 1.578v1.578h11.1v-1.578zm19.83 7.104v1.682l-1.146-0.7598-0.8809 1.312 2.381 1.578c0.2665 0.177 0.6124 0.177 0.8789 0l2.381-1.578-0.8809-1.312-1.146 0.7598v-1.682zm14.86 4.203-1.176 1.059 6.666 7.326c0.6835 0.7294 1.064 1.69 1.062 2.688v13.14h1.586v-13.14c0.0035-1.392-0.5242-2.734-1.477-3.754zm-19.4 2.9h2.248l0.1992 1.578h-2.051zm3.848 0h2.961l-0.1973 1.578h-2.566zm4.561 0h2.248l-0.3965 1.578h-2.051zm-7.615 3.156h1.852l0.1992 1.578h-1.654zm3.451 0h2.168l-0.1973 1.578h-1.771zm3.768 0h1.838c-0.3108 0.4698-0.485 1.016-0.502 1.578h-1.535zm-6.648 7.104c-0.8761 0-1.586 0.7064-1.586 1.578 0 0.8718 0.7098 1.578 1.586 1.578 0.876 0 1.586-0.7063 1.586-1.578 0-0.8717-0.7099-1.578-1.586-1.578zm7.93 0c-0.876 0-1.586 0.7064-1.586 1.578 0 0.8718 0.7099 1.578 1.586 1.578s1.588-0.7063 1.588-1.578c0-0.8717-0.7119-1.578-1.588-1.578z" fill="#E9B4A3"/>
</svg>
