<svg width="18.64" height="20" version="1.1" viewBox="0 0 18.64 20" xmlns="http://www.w3.org/2000/svg">
	<path d="m6.762 0c-0.7198 0-1.305 0.5848-1.305 1.305v1.697h-5.457v1.566h1.633l1.295 14.72c0.03551 0.4044 0.3733 0.7148 0.7793 0.7148h11.2c0.406 0 0.746-0.3103 0.7812-0.7148l1.295-14.72h1.658v-1.566h-5.457v-1.697c0-0.7198-0.5849-1.305-1.305-1.305zm0.2617 1.566h4.596v1.436h-4.596zm-3.818 3.002h12.21l-1.219 13.87h-9.766zm3.826 3.623-1.107 1.107 2.203 2.203-2.141 2.141 1.107 1.107 2.141-2.141 2.201 2.201 1.109-1.107-2.203-2.203 2.141-2.141-1.107-1.107-2.141 2.141z"/>
</svg>
