<svg width="20" height="11.3" version="1.1" viewBox="0 0 20 11.3" xmlns="http://www.w3.org/2000/svg">
	<path d="m17.84 7.496-0.0108-0.0096c-0.1708-0.15-0.6938-0.6346-0.8702-0.8463-0.2071-0.2642-0.1593-0.4374-0.0042-0.6968 0.1961-0.3278 0.589-0.8306 1.005-1.363 1.332-1.705 2.192-2.885 2.015-3.723l-0.0954-0.4478-4.918 0.00204c-0.0172 0.04415-0.2739 1.117-1.357 2.945-0.7854 1.325-1.301 1.741-1.482 1.815l-0.0281-0.00813c-0.059-0.06943-0.1622-0.2568-0.2046-0.7397-0.0442-0.5059-5e-3 -1.118 0.033-1.711 0.0444-0.6946 0.0827-1.294-9e-3 -1.724l-0.1494-0.6992c-0.1805-0.02745-0.8414-0.2702-2.683-0.2886-1.594-0.01554-2.062 0.2036-2.292 0.3968l-0.7607 0.6389 0.9615 0.3079c0.3659 0.1172 0.4874 0.2524 0.587 0.9227 0.065 0.4369 0.09903 1.171 0.02884 1.827-0.1009 0.9399-0.3427 1.115-0.3552 1.124-0.04165-0.01351-0.3949-0.1606-1.008-1.395-0.4254-0.8559-0.7983-1.868-1.071-2.608-0.3119-0.8466-0.2557-0.6664-0.414-1.066l-4.758-1.4e-4 0.3079 0.7582c1.284 3.164 2.462 5.634 4.038 7.409 1.741 1.961 3.906 2.987 6.821 2.987h0.5859v-0.5577c0-0.5214 0.0454-0.8969 0.1426-1.182 0.0593-0.1734 0.1382-0.3167 0.2211-0.4671 0.1229-0.2213 0.2432-0.3162 0.3088-0.3302 0.0595-0.013 0.1642 0.0286 0.2801 0.1109 0.333 0.2363 0.5973 0.5469 0.8771 0.8757 0.4038 0.4745 0.8213 0.965 1.484 1.286 0.362 0.1755 1.025 0.2641 1.391 0.2641 0.0966 0 3.539-2e-4 3.543-2e-4l-0.0252-0.5807c-0.0375-0.8682-0.7555-1.954-2.134-3.226zm-1.362 2.692h-0.0095c-0.2517 0.0039-0.7322-0.0747-0.872-0.1424-0.4404-0.2135-0.7481-0.5753-1.105-0.9942-0.313-0.3679-0.6366-0.7483-1.087-1.068-0.3644-0.2587-0.6954-0.3344-0.9581-0.3344-0.105 0-0.1993 0.0121-0.2802 0.0295-0.305 0.0654-0.7412 0.2742-1.088 0.8986-0.0978 0.1776-0.2087 0.3788-0.2986 0.642-0.0941 0.2754-0.1527 0.5814-0.1807 0.9536-2.197-0.1188-3.911-0.9461-5.36-2.577-1.347-1.516-2.406-3.637-3.528-6.332 0.08117 0 2.115 2.9e-4 2.235 2.9e-4 0.03678 0.09833 0.07645 0.2061 0.1186 0.3203 0.2937 0.7975 0.6961 1.89 1.17 2.821 0.6789 1.334 1.299 1.928 2.01 1.928 0.3551 0 0.6735-0.1432 0.9209-0.4144 0.3526-0.3865 0.5574-1.024 0.6261-1.95 0.05417-0.7301 0.00381-1.457-0.0557-1.858-0.04913-0.3297-0.1192-0.6758-0.2901-0.9859 0.7283-0.03123 1.704 0.01816 2.321 0.1025 0.0562 0.2911 0.0195 0.8632-0.0159 1.417-0.0856 1.337-0.1739 2.717 0.5696 3.362 0.1308 0.1135 0.2695 0.1744 0.2735 0.1769l0.3784 0.1105c0.146-0.0428 0.9918 0.3656 2.593-2.295 0.5131-0.8524 0.9909-1.835 1.248-2.476 0.5966-0.00116 2.629 0.00102 2.868 0.00131-0.3383 0.7086-1.14 1.719-1.664 2.39-0.4568 0.5847-0.8513 1.09-1.083 1.477-0.43 0.7188-0.3577 1.359 0.0902 1.925l7e-3 0.0087c0.2499 0.3028 0.8671 0.8635 0.9952 0.9765 0.9274 0.857 1.374 1.473 1.587 1.886h-2.138z"/>
</svg>
