<svg width="39" height="30.93" version="1.1" viewBox="0 0 39 30.93" xmlns="http://www.w3.org/2000/svg">
	<path d="m23.26 2.034e-4c-3.149-0.0158-6.318 0.8883-9.064 2.75-0.345 0.2339-0.4326 0.6957-0.1934 1.033 0.2391 0.3374 0.7137 0.4212 1.059 0.1875 1.46-0.9893 3.051-1.677 4.693-2.074-0.2995 0.3623-0.5864 0.7742-0.8594 1.236-1.089 1.843-1.898 4.364-2.34 7.291-0.0613 0.4061 0.2254 0.7838 0.6406 0.8438 0.4149 0.0594 0.802-0.2208 0.8633-0.627 0.0926-0.6132 0.2045-1.21 0.332-1.787h9.598c0.3966 1.801 0.6256 3.795 0.6699 5.873h-2.127c-0.4197 0-0.7617 0.3317-0.7617 0.7422s0.342 0.7441 0.7617 0.7441h2.127c-0.0443 2.078-0.2733 4.072-0.6699 5.873h-3.762c-0.4197 0-0.7617 0.3317-0.7617 0.7422s0.342 0.7441 0.7617 0.7441h3.383c-0.2087 0.7167-0.447 1.393-0.7129 2.02-0.9631 2.272-2.196 3.644-3.424 3.83-0.1885 0.0039-0.3778 0.0033-0.5664 0-2.145-0.3155-4.177-4.218-4.904-9.514-0.0558-0.407-0.4373-0.6914-0.8535-0.6367-0.4161 0.0546-0.7081 0.4271-0.6523 0.834 0.4157 3.028 1.218 5.646 2.322 7.57 0.2901 0.5058 0.5974 0.9548 0.918 1.346-1.797-0.4303-3.528-1.205-5.078-2.336-0.3365-0.2452-0.8115-0.1788-1.062 0.1504-0.251 0.329-0.1823 0.7955 0.1543 1.041 2.724 1.987 6.039 3.054 9.436 3.055h2e-3c0.3603 0 0.7224-0.01301 1.084-0.03711 3.808-0.2546 7.392-1.85 10.09-4.492 2.986-2.92 4.631-6.804 4.631-10.93s-1.645-8.011-4.631-10.93c-3.043-2.976-7.057-4.517-11.11-4.537zm-0.07227 1.494c1.32 0 2.671 1.403 3.709 3.852 0.2658 0.627 0.5042 1.305 0.7129 2.021h-8.842c0.3929-1.351 0.8835-2.542 1.443-3.49 0.9071-1.536 1.964-2.383 2.977-2.383zm3.434 0.4043c2.456 0.5953 4.772 1.833 6.67 3.689 0.5688 0.5563 1.083 1.152 1.541 1.779h-5.646c-0.2507-0.9248-0.5471-1.793-0.8848-2.59-0.493-1.163-1.058-2.128-1.68-2.879zm-25.95 3.48c-0.1768 0-0.3495 0.0722-0.4746 0.1973-0.1251 0.1251-0.1973 0.2978-0.1973 0.4746 0 0.1768 0.07213 0.3515 0.1973 0.4766 0.1251 0.1257 0.2978 0.1973 0.4746 0.1973s0.3516-0.07153 0.4766-0.1973c0.1251-0.1251 0.1973-0.2991 0.1973-0.4766-7e-5 -0.1768-0.0722-0.3495-0.1973-0.4746-0.125-0.1251-0.2997-0.1973-0.4766-0.1973zm2.771 0c-0.4159 0-0.7539 0.3005-0.7539 0.6719 0 0.3714 0.338 0.6738 0.7539 0.6738h3.201c0.4159 0 0.752-0.3025 0.752-0.6738 0-0.3714-0.336-0.6719-0.752-0.6719zm6.248 0c-0.4257 0-0.7695 0.3394-0.7695 0.7578v6.385h-2.814l-1.969-2.318c-0.1465-0.1724-0.3632-0.2715-0.5918-0.2715h-2.775c-0.2746 0-0.5279 0.1437-0.666 0.377-0.138 0.2333-0.1398 0.5214-0.003906 0.7559l2.549 4.396-2.549 4.398c-0.1359 0.2345-0.1341 0.5227 0.003906 0.7559 0.138 0.2333 0.3913 0.375 0.666 0.375h2.775c0.2286 0 0.4453-0.09908 0.5918-0.2715l1.969-2.318h2.814v6.393c0 0.4183 0.3438 0.7578 0.7695 0.7578h2.912c0.3115 0 0.5915-0.1841 0.7109-0.4668l2.826-6.684h2.797c1.99 0 3.9-0.9265 5.109-2.479 0.212-0.2718 0.212-0.6501 0-0.9219-1.21-1.552-3.12-2.479-5.109-2.479h-2.799l-2.824-6.676c-0.1195-0.2826-0.3995-0.4668-0.7109-0.4668zm0.7715 1.516h1.625l2.383 5.627h-4.008zm19.08 1.959h6.242c0.9899 1.797 1.563 3.793 1.674 5.873h-7.275c-0.0424-2.062-0.2623-4.052-0.6406-5.873zm-27.45 2.594h1.088l1.977 2.326c0.1387 0.1633 0.3403 0.262 0.5566 0.2715 0.04957 0.0021 0.0998-8.13e-4 0.1484-0.0078h13.07c1.304 0 2.564 0.5233 3.477 1.424-0.9121 0.9006-2.172 1.424-3.477 1.424h-13.07c-0.04903-0.0072-0.1005-8e-3 -0.1504-0.0059-0.2156 0.0101-0.4164 0.1067-0.5547 0.2695l-1.977 2.328h-1.088l2.109-3.641c0.1347-0.2323 0.1347-0.5177 0-0.75zm28.09 4.766h7.275c-0.1108 2.08-0.6838 4.074-1.674 5.871h-6.242c0.3783-1.821 0.5982-3.809 0.6406-5.871zm-19.72 2.184h4.01l-2.385 5.641h-1.625zm10.38 3.793c-0.1775 0-0.3515 0.07207-0.4766 0.1973-0.1257 0.125-0.1973 0.2977-0.1973 0.4746 0 0.1768 0.07157 0.3516 0.1973 0.4766 0.1251 0.1251 0.2997 0.1973 0.4766 0.1973 0.1768 0 0.3495-0.07217 0.4746-0.1973 0.125-0.125 0.1973-0.2998 0.1973-0.4766 0-0.1769-0.07227-0.3496-0.1973-0.4746-0.1251-0.1251-0.2978-0.1973-0.4746-0.1973zm8.344 1.383h5.646c-0.4585 0.6276-0.972 1.223-1.541 1.779-1.881 1.839-4.194 3.065-6.646 3.658 0.6117-0.7466 1.17-1.702 1.656-2.85 0.3377-0.7964 0.6341-1.663 0.8848-2.588zm-27.78 0.6348c-0.4089 0-0.7402 0.3006-0.7402 0.6719 0 0.3714 0.3313 0.6719 0.7402 0.6719h4.572c0.4089 0 0.7402-0.3005 0.7402-0.6719 0-0.3713-0.3313-0.6719-0.7402-0.6719z" fill="#E9B4A3"/>
</svg>
