<?xml version="1.0" standalone="no"?>
<!DOCTYPE svg PUBLIC "-//W3C//DTD SVG 1.1//EN" "http://www.w3.org/Graphics/SVG/1.1/DTD/svg11.dtd" >
<svg xmlns="http://www.w3.org/2000/svg">
<metadata>Generated by IcoMoon</metadata>
<defs>
<font id="icomoon" horiz-adv-x="1024">
<font-face units-per-em="1024" ascent="960" descent="-64" />
<missing-glyph horiz-adv-x="1024" />
<glyph unicode="&#x20;" horiz-adv-x="512" d="" />
<glyph unicode="&#xe900;" glyph-name="angle-down" d="M1002.067 607.971l-446.119-425.962c-24.041-23.373-63.717-23.373-87.768 0l0.192-0.384-446.513 426.355c-29.145 27.827-29.145 76.077 0 103.934 27.385 26.126 71.908 26.156 99.313 0l356.836-340.907c19.361-18.486 48.624-18.486 67.985 0l357.033 340.907c27.385 26.136 71.711 26.136 99.116 0 29.145-27.827 29.145-76.077 0-103.934z" />
<glyph unicode="&#xe901;" glyph-name="angle-down-alt" d="M474.815 287.521c20.798-19.856 53.53-19.856 74.333 0l432.544 412.897c9.672 9.231 24.894 9.231 34.562 0 10.329-9.861 10.329-26.348 0-36.209l-493.636-471.245c-5.91-5.743-15.319-5.743-21.234 0l-493.636 471.245c-10.329 9.861-10.329 26.348 0 36.209 9.672 9.231 24.889 9.231 34.562 0z" />
<glyph unicode="&#xe902;" glyph-name="angle-left" d="M671.971 938.066l-425.962-446.119c-23.373-24.042-23.373-63.717 0-87.768l-0.384 0.192 426.355-446.512c27.827-29.145 76.078-29.145 103.934 0 26.126 27.384 26.156 71.908 0 99.313l-340.907 356.837c-18.486 19.361-18.486 48.623 0 67.985l340.907 357.033c26.136 27.384 26.136 71.711 0 99.116-27.827 29.145-76.078 29.145-103.934 0z" />
<glyph unicode="&#xe903;" glyph-name="angle-left-alt" d="M351.521 410.815c-19.856 20.798-19.856 53.53 0 74.333l412.898 432.544c9.231 9.673 9.231 24.889 0 34.561-9.861 10.329-26.348 10.329-36.209 0l-471.245-493.636c-5.744-5.91-5.744-15.319 0-21.234l471.245-493.636c9.861-10.329 26.348-10.329 36.209 0 9.231 9.673 9.231 24.889 0 34.561z" />
<glyph unicode="&#xe904;" glyph-name="angle-right" d="M352.028 938.066l425.962-446.119c23.373-24.042 23.373-63.717 0-87.768l0.385 0.192-426.355-446.512c-27.827-29.145-76.078-29.145-103.934 0-26.126 27.384-26.156 71.908 0 99.313l340.907 356.837c18.486 19.361 18.486 48.623 0 67.985l-340.907 357.033c-26.136 27.384-26.136 71.711 0 99.116 27.827 29.145 76.078 29.145 103.934 0z" />
<glyph unicode="&#xe905;" glyph-name="angle-right-alt" d="M672.479 410.815c19.856 20.798 19.856 53.53 0 74.333l-412.898 432.544c-9.231 9.673-9.231 24.889 0 34.561 9.861 10.329 26.348 10.329 36.209 0l471.245-493.636c5.744-5.91 5.744-15.319 0-21.234l-471.245-493.636c-9.861-10.329-26.348-10.329-36.209 0-9.231 9.673-9.231 24.889 0 34.561z" />
<glyph unicode="&#xe906;" glyph-name="angle-up" d="M1002.067 288.029l-446.119 425.962c-24.041 23.373-63.717 23.373-87.768 0l0.192 0.384-446.513-426.355c-29.145-27.827-29.145-76.077 0-103.934 27.385-26.126 71.908-26.156 99.313 0l356.836 340.907c19.361 18.486 48.624 18.486 67.985 0l357.033-340.907c27.385-26.136 71.711-26.136 99.116 0 29.145 27.827 29.145 76.077 0 103.934z" />
<glyph unicode="&#xe907;" glyph-name="angle-up-alt" d="M474.815 608.479c20.798 19.856 53.53 19.856 74.333 0l432.544-412.897c9.672-9.231 24.894-9.231 34.562 0 10.329 9.861 10.329 26.348 0 36.209l-493.636 471.245c-5.91 5.743-15.319 5.743-21.234 0l-493.636-471.245c-10.329-9.861-10.329-26.348 0-36.209 9.672-9.231 24.889-9.231 34.562 0z" />
<glyph unicode="&#xe908;" glyph-name="approve" d="M430.927 959.802c-2.708-0.429-5.277-1.576-7.489-3.348l-60.842-48.697-77.82 3.674c-5.687 0.268-11.030-2.474-14.14-7.208l-42.792-65.103-75.153-20.558c-5.468-1.496-9.76-5.789-11.256-11.256l-20.558-75.153-65.103-42.744c-4.739-3.112-7.478-8.525-7.208-14.185l3.674-77.82-48.697-60.842c-3.544-4.425-4.515-10.37-2.512-15.673l27.527-72.891-27.527-72.891c-2.006-5.303-1.034-11.246 2.512-15.673l48.697-60.842-3.674-77.82c-0.268-5.658 2.474-11.030 7.208-14.14l65.103-42.792 20.558-75.153c1.496-5.468 5.789-9.76 11.256-11.256l75.153-20.558 42.744-65.103c3.112-4.739 8.537-7.459 14.185-7.208l77.82 3.674 60.842-48.697c4.425-3.546 10.37-4.518 15.673-2.512l72.891 27.575 72.891-27.575c1.841-0.693 3.765-1.023 5.675-1.023 3.591 0 7.111 1.223 9.998 3.534l60.842 48.697 77.82-3.674c5.677-0.252 11.025 2.472 14.14 7.208l42.792 65.103 75.153 20.558c5.468 1.498 9.76 5.792 11.256 11.256l20.558 75.153 65.103 42.792c4.737 3.112 7.478 8.483 7.208 14.14l-3.674 77.82 48.697 60.842c3.544 4.425 4.515 10.368 2.512 15.673l-27.575 72.891 27.575 72.891c2.005 5.301 1.034 11.246-2.512 15.673l-48.697 60.842 3.674 77.82c0.269 5.661-2.474 11.075-7.208 14.185l-65.103 42.744-20.558 75.153c-1.498 5.468-5.789 9.76-11.256 11.256l-75.153 20.558-42.792 65.103c-3.112 4.739-8.478 7.468-14.14 7.208l-77.82-3.674-60.842 48.697c-4.425 3.544-10.37 4.515-15.673 2.512l-72.891-27.527-72.891 27.527c-2.653 1.003-5.48 1.266-8.187 0.837zM436.322 925.702l69.985-26.408c3.653-1.38 7.699-1.38 11.349 0l69.985 26.408 58.365-46.791c3.046-2.443 6.892-3.672 10.789-3.489l74.748 3.534 41.077-62.555c2.141-3.263 5.441-5.62 9.208-6.651l72.128-19.767 19.767-72.128c1.031-3.767 3.386-7.063 6.651-9.208l62.555-41.077-3.534-74.748c-0.183-3.901 1.047-7.744 3.489-10.789l46.791-58.365-26.408-69.985c-1.379-3.653-1.381-7.697 0-11.349l26.408-69.985-46.791-58.365c-2.441-3.046-3.672-6.889-3.489-10.789l3.534-74.748-62.555-41.077c-3.263-2.141-5.62-5.441-6.651-9.208l-19.767-72.128-72.128-19.767c-3.765-1.031-7.063-3.386-9.208-6.651l-41.077-62.555-74.748 3.534c-3.901 0.181-7.744-1.047-10.789-3.489l-58.365-46.791-69.985 26.408c-1.827 0.691-3.755 1.070-5.675 1.070s-3.848-0.381-5.675-1.070l-69.985-26.408-58.365 46.791c-3.046 2.441-6.897 3.67-10.789 3.489l-74.748-3.534-41.077 62.555c-2.141 3.263-5.441 5.62-9.208 6.651l-72.128 19.767-19.767 72.128c-1.030 3.765-3.386 7.063-6.651 9.208l-62.555 41.077 3.534 74.748c0.184 3.903-1.046 7.744-3.489 10.789l-46.791 58.365 26.408 69.985c1.38 3.653 1.38 7.699 0 11.349l-26.408 69.985 46.791 58.365c2.441 3.046 3.672 6.892 3.489 10.789l-3.534 74.748 62.555 41.077c3.263 2.143 5.62 5.439 6.651 9.208l19.767 72.128 72.128 19.767c3.765 1.030 7.063 3.386 9.208 6.651l41.077 62.555 74.748-3.534c3.896-0.182 7.744 1.046 10.789 3.489zM503.165 860.361c-11.534-0.215-23.077-0.899-34.6-2.093-93.56-9.701-181.786-51.769-248.366-118.467-73.319-73.391-116.038-170.95-120.23-274.559-4.17-103.037 29.908-203.050 95.989-281.703 3.186-3.794 7.775-5.768 12.37-5.768 3.665 0 7.304 1.271 10.325 3.815 6.811 5.739 7.732 15.881 2 22.696-60.889 72.438-92.346 164.641-88.511 259.557 3.865 95.537 43.244 185.404 110.824 253.128 61.413 61.46 142.709 100.227 228.911 109.157 85.011 8.815 171.284-11.482 242.888-57.15 7.511-4.789 17.447-2.586 22.232 4.929 4.787 7.518 2.577 17.49-4.929 22.277-68.032 43.387-148.162 65.699-228.911 64.175zM779.629 760.871c-3.11-0.177-6.146-1.956-8.418-5.256-4.544-6.596-4.206-16.826 0.744-22.882 3.039-3.722 6.054-7.59 8.977-11.487s5.811-7.947 8.604-11.999c2.398-3.484 5.692-5.256 8.977-5.256 2.939 0 5.896 1.419 8.232 4.279 4.949 6.054 5.287 16.285 0.744 22.882-3.027 4.394-6.182 8.798-9.348 13.023-3.17 4.225-6.473 8.383-9.767 12.418-2.472 3.029-5.634 4.456-8.744 4.279zM604.558 732.463c-15.604 0-30.289-6.151-41.339-17.347-11.056-11.199-17.138-26.123-17.209-42.053-0.569-3.486-6.58-15.497-21.255-29.765-12.016-11.687-32.79-27.789-63.436-37.957-12.016-3.989-22.963-11.315-32.599-21.813-5.060-5.506-12.668-13.111-22.046-20.743-4.606 2.493-9.834 3.908-15.395 3.908h-102.227c-18.207 0-33.028-15.154-33.028-33.766v-278.845c0-18.612 14.814-33.766 33.028-33.766h102.227c12.408 0 23.244 7.066 28.884 17.44h260.986c27.598 0 50.102 22.941 50.102 51.149 0 9.486-2.558 18.417-6.977 26.051 14.38 9.001 24.003 25.194 24.003 43.673 0 9.486-2.558 18.371-6.977 26.004 14.38 9.001 24.003 25.194 24.003 43.673 0 10.68-3.203 20.62-8.697 28.837 15.528 10.782 25.766 28.98 25.766 49.578 0 33.028-26.313 59.865-58.603 59.865h-107.633c26.147 30.051 43.244 64.317 46.553 95.013 2.017 18.752-3.679 37.362-15.58 51.078-10.88 12.525-25.718 19.474-41.863 19.626-0.186 0.002-0.372 0.046-0.558 0.046zM604.792 699.769c8.953-0.083 14.878-4.779 18.279-8.697 5.832-6.713 8.735-16.362 7.72-25.813-3.489-32.456-28.908-72.557-64.699-102.18-5.261-4.353-7.28-11.618-5.022-18.138 2.258-6.523 8.302-10.882 15.068-10.882h147.472c14.683 0 26.646-12.197 26.646-27.217 0-15.009-11.968-27.265-26.646-27.265h-8.511c-8.82 0-15.952-7.301-15.952-16.323 0-9.017 7.13-16.323 15.952-16.323 9.984 0 18.093-8.304 18.093-18.51s-8.109-18.51-18.093-18.51h-17.021c-8.822 0-16-7.301-16-16.323 0-9.017 7.175-16.323 16-16.323 9.982 0 18.093-8.304 18.093-18.51s-8.111-18.51-18.093-18.51h-17.069c-8.822 0-15.952-7.301-15.952-16.323 0-9.017 7.13-16.371 15.952-16.371 9.984 0 18.138-8.304 18.138-18.51s-8.154-18.51-18.138-18.51h-256.699v157.901c0 9.020-7.175 16.323-16 16.323-8.822 0-15.952-7.301-15.952-16.323v-174.213c0-0.6-0.484-1.070-1.070-1.070h-102.227c-0.588 0-1.070 0.47-1.070 1.070v278.845c0 0.602 0.482 1.070 1.070 1.070h102.227c0.586 0 1.070-0.467 1.070-1.070v-34.885c0-9.020 7.13-16.323 15.952-16.323 8.824 0 16 7.304 16 16.323v34.885c0 0.793-0.088 1.547-0.141 2.326 11.977 9.479 21.563 19.057 27.813 25.861 5.913 6.442 12.37 10.849 19.207 13.116 37.6 12.48 62.936 32.599 77.534 47.244 18.305 18.374 29.265 37.529 29.265 51.245 0 7.244 2.748 14.030 7.768 19.114 5.082 5.149 11.796 7.851 19.069 7.861zM843.87 675.36c-2.067-0.348-4.122-1.129-6.001-2.326-7.518-4.784-9.717-14.726-4.929-22.232 45.672-71.628 65.961-157.925 57.15-242.888-8.936-86.202-47.696-167.497-109.157-228.911-67.651-67.58-157.52-106.919-253.128-110.777-94.965-3.858-187.19 27.575-259.557 88.464-6.818 5.732-16.959 4.86-22.696-1.953-5.739-6.811-4.865-17.009 1.953-22.744 74.319-62.46 167.735-96.322 264.796-96.322 5.613 0 11.246 0.1 16.883 0.326 103.656 4.194 201.145 46.887 274.559 120.23 66.699 66.627 108.8 154.853 118.515 248.366 9.556 92.203-12.516 185.785-62.079 263.605-3.591 5.634-10.077 8.302-16.278 7.256z" />
<glyph unicode="&#xe909;" glyph-name="arrow-down" d="M477.464-49.718c19.053-19.044 49.93-19.044 68.983 0l310.427 310.427c19.053 19.053 19.053 49.93 0 68.983s-49.93 19.053-68.983 0l-275.892-275.892-275.892 275.892c-19.053 19.053-49.93 19.053-68.983 0s-19.053-49.93 0-68.983zM463.182 960v-975.573h97.557v975.573z" />
<glyph unicode="&#xe90a;" glyph-name="arrow-down-long" d="M491.282-55.432c11.43-11.424 29.954-11.424 41.384 0l186.23 186.23c11.43 11.43 11.43 29.959 0 41.384-11.43 11.43-29.954 11.43-41.384 0l-165.512-165.512-165.512 165.512c-11.43 11.43-29.954 11.43-41.384 0-11.43-11.424-11.43-29.954 0-41.384zM482.713 960v-994.948h58.526v994.948z" />
<glyph unicode="&#xe90b;" glyph-name="arrow-left" d="M14.283 413.464c-19.044 19.053-19.044 49.93 0 68.983l310.428 310.428c19.053 19.053 49.93 19.053 68.983 0s19.053-49.93 0-68.983l-275.892-275.892 275.892-275.892c19.053-19.053 19.053-49.93 0-68.983s-49.93-19.053-68.983 0zM1024 399.182h-975.573v97.557h975.573z" />
<glyph unicode="&#xe90c;" glyph-name="arrow-left-long" d="M8.568 427.281c-11.425 11.43-11.425 29.954 0 41.384l186.231 186.231c11.43 11.43 29.96 11.43 41.384 0 11.43-11.43 11.43-29.954 0-41.384l-165.512-165.512 165.512-165.512c11.43-11.43 11.43-29.954 0-41.384-11.425-11.43-29.954-11.43-41.384 0zM1024 418.713h-994.948v58.526h994.948z" />
<glyph unicode="&#xe90d;" glyph-name="arrow-right" d="M1009.717 413.464c19.044 19.053 19.044 49.93 0 68.983l-310.427 310.427c-19.053 19.053-49.93 19.053-68.983 0s-19.053-49.93 0-68.983l275.892-275.892-275.892-275.892c-19.053-19.053-19.053-49.93 0-68.983s49.93-19.053 68.983 0zM0 399.182h975.572v97.557h-975.572z" />
<glyph unicode="&#xe90e;" glyph-name="arrow-right-long" d="M1015.432 427.281c11.425 11.43 11.425 29.954 0 41.384l-186.231 186.231c-11.43 11.43-29.96 11.43-41.384 0-11.43-11.43-11.43-29.954 0-41.384l165.512-165.512-165.512-165.512c-11.43-11.43-11.43-29.954 0-41.384 11.425-11.43 29.954-11.43 41.384 0zM0 418.713h994.948v58.526h-994.948z" />
<glyph unicode="&#xe90f;" glyph-name="arrow-up" d="M477.464 945.717c19.053 19.044 49.93 19.044 68.983 0l310.427-310.427c19.053-19.053 19.053-49.93 0-68.983s-49.93-19.053-68.983 0l-275.891 275.891-275.891-275.891c-19.053-19.053-49.93-19.053-68.983 0s-19.053 49.93 0 68.983zM463.182-64v975.572h97.557v-975.572z" />
<glyph unicode="&#xe910;" glyph-name="arrow-up-long" d="M491.282 951.432c11.43 11.424 29.954 11.424 41.384 0l186.23-186.23c11.43-11.43 11.43-29.959 0-41.384-11.43-11.43-29.954-11.43-41.384 0l-165.512 165.512-165.512-165.512c-11.43-11.43-29.954-11.43-41.384 0-11.43 11.424-11.43 29.954 0 41.384zM482.713-64v994.948h58.526v-994.948z" />
<glyph unicode="&#xe911;" glyph-name="bag" d="M80.935 74.828l61.714 660.259c1.322 14.66 14.321 25.758 29.526 25.758h126.931c1.762 110.169 96.479 199.156 212.846 199.156s211.067-88.987 212.846-199.156h126.931c15.426 0 28.205-11.098 29.526-25.758l61.714-660.259c0-0.841 0.221-1.676 0.221-2.517 0-75.189-72.493-136.31-161.696-136.31h-538.933c-89.257 0-161.75 61.175-161.75 136.31 0 0.841 0 1.676 0.22 2.517zM511.91 903.251c-83.489 0-151.563-63.655-153.342-142.615h306.683c-1.762 78.962-69.853 142.615-153.342 142.615zM242.47-7.637h538.933c55.947 0 101.329 35.18 102.245 78.531l-59.073 633.309h-99.604v-85.86c0-15.706-13.221-28.27-29.747-28.27s-29.741 12.564-29.741 28.27v85.86h-306.9v-85.86c0-15.706-13.221-28.27-29.747-28.27s-29.747 12.564-29.747 28.27v85.86h-99.604l-59.288-633.309c0.881-43.351 46.493-78.531 102.245-78.531z" />
<glyph unicode="&#xe912;" glyph-name="bag-checked" d="M512.015 960c-112.958 0-204.815-89.028-206.531-199.155h-123.335c-14.761 0-27.36-10.97-28.647-25.628l-59.97-660.504c-0.214-0.84-0.167-1.672-0.167-2.513 0-75.194 70.321-136.2 156.957-136.2h523.36c86.627 0 156.957 60.999 156.957 136.2 0 0.84-0.172 1.672-0.172 2.513l-59.798 660.504c-1.278 14.658-13.671 25.628-28.647 25.628h-123.335c-1.711 110.127-93.745 199.155-206.703 199.155zM512.015 903.546c81.086 0 147.179-63.761 148.894-142.719h-297.874c1.712 78.959 67.843 142.719 148.894 142.719zM208.651 704.22h96.832v-85.94c0-15.713 12.771-28.312 28.81-28.312 16.047 0 28.81 12.599 28.81 28.312v85.94h298.045v-85.94c0-15.713 12.934-28.312 28.981-28.312s28.81 12.599 28.81 28.312v85.94h96.661l57.456-633.23c-0.858-43.356-44.994-78.564-99.32-78.564h-523.36c-54.128 0-98.29 35.208-99.148 78.564zM714.858 465.869l-224.971-227.115-136.543 138.001-39.702-40.037 176.413-178.038 39.531 40.037 224.8 227.115z" />
<glyph unicode="&#xe913;" glyph-name="caret-down" d="M512 4.582l-512 886.836h1024z" />
<glyph unicode="&#xe914;" glyph-name="caret-left" d="M68.582 448l886.836 512v-1024z" />
<glyph unicode="&#xe915;" glyph-name="caret-right" d="M955.418 448l-886.836 512v-1024z" />
<glyph unicode="&#xe916;" glyph-name="caret-up" d="M512 891.418l-512-886.836h1024z" />
<glyph unicode="&#xe917;" glyph-name="check" d="M937.575 809.507c-22.701-0.696-43.033-10.295-57.727-25.405l-0.019-0.020-493.794-493.794-241.816 241.816c-15.276 15.691-36.604 25.425-60.205 25.425-0.001 0-0.001 0-0.002 0v0c-0.006 0-0.012 0-0.019 0-46.388 0-83.993-37.605-83.993-83.993 0-23.61 9.742-44.945 25.424-60.205l0.019-0.018 289.188-289.188c15.25-22.878 40.946-37.748 70.115-37.748 0.612 0 1.222 0.006 1.831 0.020l-0.091-0.001c0.049 0 0.107 0 0.165 0s0.115 0 0.173 0h-0.009c0.049 0 0.107 0 0.165 0s0.115 0 0.173 0h-0.009c0.016 0 0.034 0 0.052 0 29.095 0 54.734 14.793 69.807 37.268l0.191 0.303c0.013 0.009 0.175 0.223 0.335 0.437l0.157 0.219 540.831 540.747c15.726 15.281 25.483 36.631 25.483 60.26 0 46.388-37.605 83.993-83.993 83.993-0.886 0-1.768-0.013-2.648-0.041l0.129 0.003z" />
<glyph unicode="&#xe918;" glyph-name="close" d="M947.915 960c-17.506 0-35.013-6.651-48.424-20.068l-395.059-395.059-379.922 379.785c-26.828 26.828-69.998 26.828-96.847 0-26.828-26.828-26.828-69.998 0-96.847l379.922-379.785-379.922-379.922c-26.828-26.828-26.828-69.998 0-96.847 26.828-26.828 69.998-26.828 96.847 0l379.922 379.922 395.059-395.059c26.828-26.828 69.998-26.828 96.847 0 26.828 26.828 26.828 69.998 0 96.847l-395.059 395.059 395.059 395.059c26.828 26.828 26.828 69.998 0 96.847-13.417 13.417-30.917 20.068-48.424 20.068z" />
<glyph unicode="&#xe919;" glyph-name="close-circle" d="M512 960c-282.309 0-512-229.691-512-512s229.691-512 512-512c282.309 0 512 229.691 512 512s-229.691 512-512 512zM512 872.172c233.945 0 424.33-190.228 424.33-424.172s-190.385-424.33-424.33-424.33c-233.945 0-424.172 190.385-424.172 424.33s190.228 424.172 424.172 424.172zM344.93 658.944c-11.225 0-22.504-4.198-31.074-12.768-17.14-17.14-17.14-45.009 0-62.157l136.192-136.034-136.192-136.192c-17.14-17.14-17.14-44.859 0-61.999 8.57-8.57 19.85-12.926 31.074-12.926 11.232 0 22.52 4.348 31.074 12.926l136.034 136.034 136.034-136.034c8.57-8.57 19.85-12.926 31.074-12.926s22.504 4.348 31.074 12.926c17.14 17.14 17.14 44.859 0 61.999l-136.192 136.192 136.192 136.034c17.14 17.14 17.14 45.009 0 62.157-17.14 17.14-45.040 17.14-62.157 0l-136.034-136.192-136.034 136.192c-8.57 8.57-19.85 12.768-31.074 12.768z" />
<glyph unicode="&#xe91a;" glyph-name="envelope" d="M1023.966 192.073c0-22.447-6.314-43.253-16.428-61.559l-323.24 361.676 319.774 279.758c12.435-19.74 19.929-42.925 19.929-67.965zM511.924 426.507l444.911 389.275c-18.257 9.995-38.818 16.125-60.989 16.125h-767.844c-22.206 0-42.771-6.129-60.945-16.125zM635.963 450.060l-102.979-90.167c-6.024-5.247-13.527-7.867-21.052-7.867-7.534 0-15.037 2.619-21.061 7.867l-103.023 90.167-327.321-366.283c19.622-12.307 42.618-19.683 67.483-19.683h767.844c24.865 0 47.87 7.375 67.483 19.683zM19.934 771.94c-12.435-19.74-19.933-42.925-19.933-67.965v-512.042c0-22.443 6.283-43.25 16.436-61.559l323.196 361.72z" />
<glyph unicode="&#xe91b;" glyph-name="facebook" d="M576.73-63.953h-155.193c-25.918 0-47.001 22.277-47.001 49.669v369.889h-90.51c-25.918 0-47.001 22.289-47.001 49.669v158.491c0 27.392 21.083 49.669 47.001 49.669h90.51v79.36c0 78.677 23.381 145.635 67.641 193.592 44.43 48.179 106.495 73.614 179.54 73.614l118.328-0.204c25.878-0.047 46.927-22.329 46.927-49.669v-147.17c0-27.392-21.077-49.669-46.99-49.669l-79.701-0.031c-24.297 0-30.487-5.149-31.812-6.724-2.179-2.617-4.773-10.018-4.773-30.447v-62.691h110.25c8.3 0 16.345-2.164 23.256-6.241 14.916-8.806 24.183-25.452 24.183-43.446l-0.057-158.491c0-27.375-21.083-49.658-47.007-49.658h-110.648v-369.889c0-27.392-21.094-49.669-47.013-49.669zM431.38-3.936h135.565v386.387c0 18.29 14.086 33.166 31.386 33.166h126.293l0.051 137.784h-126.35c-17.299 0-31.374 14.877-31.374 33.166v89.6c0 23.456 2.255 50.124 19.007 70.143 20.241 24.235 52.144 27.034 74.353 27.034l69.859 0.031v126.464l-108.487 0.188c-117.361 0-190.349-79.417-190.349-207.245v-106.211c0-18.284-14.075-33.166-31.374-33.166h-106.154v-137.784h106.154c17.299 0 31.374-14.877 31.374-33.166zM740.001 900.024h0.006z" />
<glyph unicode="&#xe91c;" glyph-name="heart" d="M511.975-7.61c-14.576 0-28.633 5.283-39.591 14.875-41.375 36.177-81.255 70.17-116.409 100.193l-0.179 0.154c-103.18 87.904-192.279 163.859-254.238 238.62-69.299 83.619-101.558 162.92-101.558 249.545 0 84.149 28.855 161.811 81.247 218.65 53.016 57.495 125.796 89.184 204.824 89.184 59.117 0 113.251-18.69 160.872-55.542 24.050-18.605 45.847-41.375 65.057-67.934 19.211 26.559 41.007 49.329 65.066 67.934 47.655 36.86 101.815 55.542 160.872 55.542 79.088 0 151.826-31.671 204.824-89.184 52.392-56.831 81.238-134.501 81.238-218.65 0-86.623-32.268-165.908-101.558-249.545-61.993-74.804-151.058-150.716-254.238-238.62-35.255-30.032-75.205-64.084-116.664-100.364-10.949-9.576-25.014-14.859-39.582-14.859z" />
<glyph unicode="&#xe91d;" glyph-name="heart-o" d="M511.937-10.119c-14.579 0-28.634 5.308-39.586 14.961-41.37 36.374-81.273 70.548-116.412 100.73l-0.18 0.157c-103.154 88.388-192.242 164.756-254.222 239.994-69.309 84.076-101.537 163.786-101.537 250.88 0 84.614 28.85 162.708 81.22 219.837 53.005 57.829 125.737 89.681 204.854 89.681 59.122 0 113.233-18.793 160.876-55.835 24.048-18.707 45.843-41.602 65.051-68.285 19.208 26.705 40.998 49.6 65.051 68.285 47.648 37.064 101.753 55.835 160.876 55.835 79.063 0 151.822-31.846 204.854-89.681 52.381-57.128 81.22-135.222 81.22-219.837 0-87.094-32.267-166.804-101.537-250.88-61.979-75.237-151.067-151.552-254.222-239.994-35.253-30.203-75.183-64.458-116.628-100.891-10.946-9.636-25.007-14.945-39.58-14.945zM286.011 845.73c-62.14 0-119.215-24.937-160.715-70.225-42.14-45.972-65.374-109.514-65.374-178.93 0-73.243 27.071-138.779 87.741-212.399 58.638-71.195 145.947-145.947 246.946-232.556l0.188-0.157c35.322-30.273 75.345-64.566 117.006-101.214 41.925 36.713 82.028 71.087 117.437 101.43 100.999 86.609 188.255 161.361 246.946 232.556 60.686 73.674 87.741 139.157 87.741 212.399 0 69.416-23.212 132.958-65.374 178.93-41.515 45.288-98.628 70.225-160.715 70.225-45.514 0-87.309-14.552-124.173-43.245-32.882-25.584-55.782-57.937-69.201-80.573-6.909-11.636-19.062-18.583-32.525-18.583s-25.616 6.947-32.525 18.583c-13.42 22.625-36.331 54.973-69.201 80.573-36.896 28.693-78.687 43.245-124.173 43.245z" />
<glyph unicode="&#xe91e;" glyph-name="instagram" d="M149.986 960c-82.703 0-149.986-67.283-149.986-149.986v-724.028c0-82.703 67.283-149.986 149.986-149.986h724.028c82.703 0 149.986 67.283 149.986 149.986v724.028c0 82.703-67.283 149.986-149.986 149.986zM149.986 900h724.028c49.622 0 89.992-40.376 89.992-89.992v-724.028c0-49.622-40.376-89.992-89.992-89.992h-724.028c-49.622 0-89.992 40.376-89.992 89.992v724.028c0 49.622 40.376 89.992 89.992 89.992zM811.972 838.018c-49.628 0-89.992-40.376-89.992-89.992 0-49.628 40.37-89.992 89.992-89.992s89.992 40.376 89.992 89.992-40.376 89.992-89.992 89.992zM811.972 778.017c16.535 0 29.997-13.463 29.997-29.997 0-16.541-13.463-29.997-29.997-29.997-16.541 0-29.997 13.463-29.997 29.997 0 16.541 13.457 29.997 29.997 29.997zM512 718.017c-148.902 0-269.975-121.133-269.975-269.975 0-148.902 121.133-269.975 269.975-269.975 148.902 0 269.975 121.133 269.975 269.975 0 148.902-121.133 269.975-269.975 269.975zM512 658.016c115.772 0 209.98-94.208 209.98-209.98s-94.208-209.98-209.98-209.98c-115.772 0-209.98 94.208-209.98 209.98s94.208 209.98 209.98 209.98z" />
<glyph unicode="&#xe91f;" glyph-name="linen" d="M421.902 960c-24.832 0-45.058-19.805-45.058-44.164 0-24.35 20.222-44.164 45.058-44.164h20.49c-0.822-0.872-1.626-1.734-2.417-2.639l-181.148-207.193c-56.649-26.984-93.094-83.793-93.094-145.665 0.002-89.291 74.058-161.907 165.090-161.907 60.955 0 117.077 33.33 145.619 85.672h70.874c28.542-52.342 84.664-85.672 145.619-85.672 91.032 0 165.090 72.638 165.090 161.907 0 61.894-36.445 118.681-93.094 145.665l-181.148 207.193c-0.79 0.906-1.591 1.768-2.417 2.639h20.49c24.832 0 45.058 19.808 45.058 44.164 0.002 24.35-20.22 44.164-45.058 44.164h-30.283c-24.35 0-45.997-11.462-59.673-29.16-13.687 17.707-35.323 29.16-59.673 29.16zM421.902 930.244h30.283c19.217 0 35.62-12.008 41.829-28.771h-72.111c-8.087 0-14.674 6.433-14.674 14.362s6.588 14.406 14.674 14.406zM571.554 930.244h30.283c8.087 0 14.674-6.476 14.674-14.406s-6.588-14.362-14.674-14.362h-72.111c6.22 16.761 22.619 28.771 41.829 28.771zM484.141 865.509l-30.649-60.039 27.167-13.332 31.222 61.161 31.222-61.161 27.167 13.332-30.649 60.039c7.988-3.746 15.208-9.126 21.118-15.884l174.093-199.038-184.424-180.873h-77.037l-184.378 180.873 174.047 199.038c5.908 6.758 13.128 12.14 21.118 15.884zM265.31 631.629l183.209-179.683c-23.64-41.554-68.767-67.919-117.719-67.919-74.288 0-134.716 59.307-134.716 132.173-0.002 30.741 11.013 59.925 30.054 83.038l53.923-52.846 21.476 21.072-53.786 52.709c5.491 4.231 11.348 8.068 17.538 11.453zM758.497 631.629c42.378-23.182 69.202-67.438 69.202-115.428 0-72.867-60.428-132.173-134.716-132.173-30.558 0-59.673 10.308-82.946 28.152l89.704 87.963-21.476 21.072-89.887-88.192c-4.877 5.883-9.286 12.198-13.109 18.926zM772.099 585.059l-14.988-21.833c4.11-6.327 7.539-13.515 10.157-21.43l18.701 13.87c-3.587 10.832-8.245 20.733-13.87 29.389zM797.342 541.789l-25.77-6.263c1.471-5.422 2.192-11.009 2.192-16.598 0-1.464-0.037-2.935-0.135-4.385l26.572-1.611c0.137 1.991 0.179 3.995 0.179 5.995 0 7.693-1.017 15.403-3.042 22.861zM772.512 484.063c-4.776-14.841-15.359-27.969-29.802-36.995l16.823-20.669c19.789 12.374 34.292 30.397 40.843 50.785zM263.748 469.657l-25.77-16.465c15.359-20.003 37.934-34.658 63.566-41.256l8.545 27.602c-18.667 4.799-35.139 15.517-46.34 30.099zM389.255 455.205c-6.323-6.162-13.561-11.281-21.476-15.212l13.913-28.061c10.835 5.379 20.69 12.411 29.344 20.85zM347.107 440.798c-6.85-2.788-14.060-3.839-20.983-3.132l-1.611-39.813c1.98-0.204 4.032-0.313 6.041-0.313 7.695 0 15.359 1.522 22.818 4.563zM162.866 267.737c-22.195 0-40.271-18.31-40.271-40.798 0-22.495 18.074-40.798 40.271-40.798h45.447l-43.317-58.299 24.121-18.433 34.406 46.272v-39.858l97.446-23.32c69.568-16.637 123.721-73.257 137.969-144.245l2.46-12.26h101.203l2.46 12.26c14.257 70.989 68.4 127.592 137.969 144.245l97.446 23.32v39.858l34.406-46.272 24.121 18.433-43.317 58.299h45.447c22.195 0 40.271 18.31 40.271 40.798 0 22.493-18.074 40.798-40.271 40.798h-25.496c-30.855 0-56.741-21.824-63.566-51.014h-520.217c-6.84 29.183-32.711 51.014-63.566 51.014zM162.866 237.087h25.496c13.989 0 26.068-8.343 31.726-20.358h-57.222c-5.532 0.002-10.067 4.593-10.067 10.2s4.536 10.157 10.067 10.157zM835.643 237.087h25.45c5.532 0 10.067-4.55 10.067-10.157s-4.538-10.2-10.067-10.2h-57.222c5.665 12.014 17.776 20.358 31.772 20.358zM253.578 186.119h516.552v-46.088l-74.173-17.762c-76.945-18.406-137.717-78.799-157.852-155.653h-52.526c-20.117 76.853-80.907 137.235-157.852 155.653l-74.173 17.762v4.653h70.92v30.649h-70.92zM483.106 166.746v-28.862h28.862v28.862zM526.376 166.746v-28.862h28.862v28.862zM584.102 166.746v-28.862h129.79v28.862zM460.748 109.021l-20.894-23.526c25.45-25.565 45.584-57.336 58.207-91.857l28.313 11.721c-14.236 38.988-36.926 74.814-65.628 103.654z" />
<glyph unicode="&#xe920;" glyph-name="magnify" d="M1015.079-11.73l-248.88 248.82c66.738 76.736 107.214 176.843 107.214 286.285 0 240.87-195.997 436.626-436.686 436.626-240.93 0-436.686-195.936-436.686-436.626s195.997-436.626 436.686-436.626c109.443 0 209.609 40.41 286.346 107.154l248.88-248.82c5.903-5.903 13.853-9.083 21.575-9.083s15.666 2.952 21.575 9.083c11.805 11.805 11.805 31.333 0 43.139zM60.997 523.374c0 207.079 168.53 375.308 375.368 375.308 207.079 0 375.368-168.47 375.368-375.308s-168.289-375.549-375.368-375.549c-206.898 0-375.368 168.47-375.368 375.549z" />
<glyph unicode="&#xe921;" glyph-name="map-marker" d="M511.997 959.902c-97.915 0-190.208-39.255-259.311-110.283-128.929-132.396-144.577-375.637-34.771-526.586l0.183-0.277c0.040-0.056 0.052-0.127 0.091-0.183l242.398-359.522c24.315-36.069 78.613-36.069 102.928 0l242.024 359.142c110.424 151.37 94.87 394.846-34.135 527.523-69.15 71.023-161.49 110.283-259.404 110.283zM511.997 891.829c79.972 0 154.931-31.843 211.665-90.045 104.615-107.472 118.060-315.623 27.449-439.775l-0.183-0.183-0.094-0.277-212.555-315.25c-12.832-19.035-39.602-19.035-52.424 0l-213.301 316.322c-90.185 123.495-76.739 331.646 27.908 439.119 56.688 58.234 131.553 90.045 211.571 90.045zM511.997 725.655c-72.851 0-132.303-59.499-132.303-132.303 0-72.851 59.499-132.303 132.303-132.303 72.851 0 132.303 59.499 132.303 132.303 0 72.851-59.499 132.303-132.303 132.303zM511.997 661.799c37.873 0 68.447-30.574 68.447-68.447s-30.574-68.447-68.447-68.447-68.447 30.574-68.447 68.447c0 37.873 30.574 68.447 68.447 68.447z" />
<glyph unicode="&#xe922;" glyph-name="menu-btn" d="M51.2 806.4c-28.365 0-51.2-22.835-51.2-51.2s22.835-51.2 51.2-51.2h921.6c28.365 0 51.2 22.835 51.2 51.2s-22.835 51.2-51.2 51.2zM51.2 499.2c-28.365 0-51.2-22.835-51.2-51.2s22.835-51.2 51.2-51.2h921.6c28.365 0 51.2 22.835 51.2 51.2s-22.835 51.2-51.2 51.2zM51.2 192c-28.365 0-51.2-22.835-51.2-51.2s22.835-51.2 51.2-51.2h921.6c28.365 0 51.2 22.835 51.2 51.2s-22.835 51.2-51.2 51.2z" />
<glyph unicode="&#xe923;" glyph-name="online-shop" d="M83.226 960c-37.883 0-68.588-30.554-68.588-68.242v-238.934c0-37.688 30.705-68.286 68.588-68.286h445.867c37.883 0 68.588 30.597 68.588 68.286v238.934c0 37.688-30.705 68.242-68.588 68.242zM83.226 925.879h445.867c18.944 0 34.294-15.273 34.294-34.121v-238.934c0-18.851-15.348-34.164-34.294-34.164h-445.867c-18.944 0-34.294 15.316-34.294 34.164v238.934c0 18.851 15.35 34.121 34.294 34.121zM83.226 874.698v-34.164h308.777v34.164zM632.018 823.472v-34.121h68.588c28.413 0 51.441-22.921 51.441-51.182v-17.063h-120.029v-34.121h120.029v-372.997l-21.455 23.18c-12.139 13.16-29.191 20.775-47.138 21.074-4.558 0.195-9.147-0.069-13.642-0.845l13.218 52.457 13.811 55.333h20.905v34.121h-34.294c-7.871-0.002-14.734-5.323-16.639-12.924l-13.895-55.333h-260.99c-9.469-0.002-17.149-7.678-17.147-17.103 0-1.391 0.169-2.749 0.507-4.097l34.294-136.528c1.907-7.601 8.766-12.922 16.639-12.924h198.326c2.282-4.112 4.999-7.999 8.109-11.529l13.471-15.035c-3.155-4.694-8.431-7.514-14.105-7.56h-222.933v-34.164h222.933c14.042 0.063 27.418 5.866 37.084 16.006l63.767-71.378c-12.087-44.155-6.186-91.293 16.471-131.122-6.846-21.044-26.51-35.332-48.738-35.354h-342.941c-28.413 0-51.441 22.964-51.441 51.225v17.063h394.404v34.121h-394.404v477.869h-34.294v-528.9c0.056-47.095 38.402-85.303 85.735-85.347h342.941c28.564 0 55.225 14.17 71.162 37.753 5.689-6.271 11.81-12.156 18.33-17.568l19.554-16.218 21.969 26.229-19.554 16.218c-45.040 37.041-62.447 97.931-43.744 153.005 1.942 5.782 0.644 12.158-3.42 16.724l-106.558 119.273c-11.148 12.513-10.595 31.483 1.267 43.333 6.225 5.912 14.496 9.223 23.094 9.249 8.645-0.134 16.884-3.788 22.726-10.137l171.254-184.639 25.169 23.18-115.921 124.916h0.422v460.787c-0.056 47.095-38.402 85.26-85.735 85.303zM83.226 772.291v-34.121h34.294v34.121zM151.858 772.291v-34.121h34.294v34.121zM220.446 772.291v-34.121h34.294v34.121zM289.034 772.291v-34.121h34.294v34.121zM426.254 772.291c-28.413 0-51.484-22.921-51.484-51.182 0-28.283 23.072-51.182 51.484-51.182 9.006 0.050 17.8 2.487 25.558 7.053 24.498-14.332 56.047-6.214 70.448 18.159s6.249 55.723-18.245 70.059c-16.097 9.419-36.111 9.419-52.198 0-7.748 4.577-16.54 7.036-25.558 7.095zM426.254 738.17c9.471 0 17.147-7.64 17.147-17.063s-7.676-17.063-17.147-17.063-17.147 7.64-17.147 17.063c0 9.424 7.676 17.063 17.147 17.063zM477.695 738.17c9.471 0 17.147-7.64 17.147-17.063s-7.676-17.063-17.147-17.063c-1.023 0.050-2.044 0.188-3.041 0.422 4.037 10.722 4.037 22.51 0 33.234 0.997 0.234 2.018 0.406 3.041 0.465zM83.291 704.049v-34.121h240.016v34.121zM512.075 550.438v-36.37l-24.78 16.43-19.048-28.37 51.484-34.121c5.762-3.827 13.242-3.827 19.004 0l51.484 34.121-19.048 28.37-24.78-16.43v36.37zM833.394 459.557l-25.428-22.899 144.139-158.41c14.779-15.772 23.007-36.543 22.964-58.122v-284.126h34.294v284.126c0.076 30.1-11.334 59.117-31.937 81.173zM413.907 396.85h48.609l4.307-34.121h-44.349zM497.112 396.85h64.026l-4.266-34.121h-55.485zM595.735 396.85h48.609l-8.574-34.121h-44.349zM431.076 328.607h40.046l4.307-34.121h-35.765zM505.697 328.607h46.879l-4.266-34.121h-38.294zM587.172 328.607h39.743c-6.72-10.159-10.487-21.969-10.854-34.121h-33.191zM443.422 174.998c-18.944 0-34.294-15.275-34.294-34.121 0-18.851 15.348-34.121 34.294-34.121 18.942 0 34.294 15.273 34.294 34.121s-15.35 34.121-34.294 34.121zM614.893 174.998c-18.942 0-34.294-15.275-34.294-34.121 0-18.851 15.35-34.121 34.294-34.121s34.337 15.273 34.337 34.121c0 18.849-15.394 34.121-34.337 34.121z" />
<glyph unicode="&#xe924;" glyph-name="trash" d="M381.010 959.999c-36.849 0-66.807-29.938-66.807-66.807v-86.874h-279.359v-80.168h83.598l66.295-753.559c1.818-20.702 19.11-36.593 39.894-36.593h573.36c20.784 0 38.19 15.885 39.991 36.593l66.295 753.559h84.878v80.168h-279.359v86.874c0 36.849-29.943 66.807-66.807 66.807zM394.407 879.832h235.282v-73.513h-235.282zM198.954 726.15h625.065l-62.404-710.045h-499.949zM394.817 540.679l-56.67-56.67 112.778-112.778-109.604-109.604 56.67-56.67 109.604 109.604 112.675-112.675 56.773 56.67-112.778 112.778 109.604 109.604-56.67 56.67-109.604-109.604z" />
<glyph unicode="&#xe925;" glyph-name="vk" d="M913.399 353.574l-0.553 0.492c-8.745 7.68-35.522 32.491-44.553 43.329-10.603 13.527-8.156 22.394-0.215 35.675 10.040 16.783 30.156 42.526 51.455 69.784 68.197 87.294 112.228 147.708 103.165 190.613l-4.884 22.927-251.796-0.105c-0.881-2.261-14.024-57.189-69.477-150.78-40.212-67.838-66.61-89.137-75.877-92.926l-1.438 0.416c-3.021 3.555-8.304 13.148-10.475 37.872-2.263 25.901-0.256 57.24 1.689 87.601 2.274 35.562 4.234 66.251-0.461 88.267l-7.649 35.798c-9.241 1.406-43.078 13.834-137.366 14.776-81.611 0.796-105.572-10.424-117.348-20.316l-38.947-32.711 49.228-15.764c18.734-6.001 24.954-12.922 30.054-47.241 3.328-22.369 5.070-59.954 1.476-93.54-5.166-48.122-17.546-57.087-18.186-57.547-2.132 0.692-20.219 8.222-51.608 71.422-21.78 43.821-40.872 95.639-54.834 133.527-15.969 43.345-13.091 34.119-21.196 54.578l-243.603 0.007 15.764-38.819c65.739-161.993 126.051-288.454 206.74-379.332 89.137-100.401 199.982-152.93 349.226-152.93h29.997v28.553c0 26.695 2.324 45.92 7.301 60.517 3.036 8.878 7.076 16.215 11.32 23.915 6.292 11.33 12.452 16.189 15.81 16.906 3.046 0.666 8.407-1.464 14.341-5.678 17.049-12.098 30.581-28.001 44.906-44.834 20.674-24.294 42.050-49.407 75.979-65.842 18.534-8.986 52.479-13.522 71.218-13.522 4.946 0 181.192 0.010 181.397 0.010l-1.29 29.731c-1.92 44.451-38.681 100.042-109.258 165.167zM843.667 215.748h-0.486c-12.887-0.199-37.488 3.824-44.645 7.291-22.548 10.931-38.302 29.454-56.575 50.902-16.025 18.836-32.593 38.312-55.653 54.68-18.657 13.245-35.604 17.121-49.054 17.121-5.376 0-10.204-0.619-14.346-1.51-15.616-3.349-37.948-14.039-55.704-46.007-5.007-9.093-10.685-19.394-15.288-32.87-4.818-14.1-7.818-29.767-9.252-48.823-112.484 6.083-200.238 48.439-274.425 131.939-68.964 77.617-123.184 186.21-180.629 324.19 4.156 0 108.285-0.015 114.429-0.015 1.883-5.035 3.914-10.552 6.072-16.399 15.037-40.831 35.639-96.766 59.903-144.432 34.759-68.299 66.507-98.711 102.909-98.711 18.181 0 34.482 7.332 47.149 21.217 18.052 19.788 28.538 52.427 32.056 99.838 2.774 37.38 0.195 74.597-2.852 95.127-2.515 16.88-6.103 34.6-14.853 50.477 37.288 1.599 87.243-0.93 118.832-5.248 2.877-14.904 0.998-44.195-0.814-72.549-4.383-68.453-8.904-139.107 29.163-172.13 6.697-5.811 13.798-8.929 14.003-9.057l19.373-5.657c7.475 2.192 50.779-18.718 132.758 117.501 26.27 43.642 50.733 93.95 63.896 126.768 30.545 0.059 134.602-0.052 146.838-0.067-17.321-36.279-58.366-88.011-85.195-122.365-23.388-29.936-43.585-55.807-55.448-75.621-22.015-36.802-18.314-69.579 4.618-98.557l0.358-0.445c12.795-15.503 44.394-44.21 50.953-49.996 47.481-43.877 70.347-75.415 81.252-96.561h-109.463z" />
<glyph unicode="&#xe926;" glyph-name="world-plane" d="M610.816 854.133c-82.693 0.415-165.912-23.327-238.022-72.215-9.060-6.142-11.36-18.27-5.079-27.127 6.279-8.86 18.742-11.061 27.809-4.924 38.34 25.979 80.12 44.038 123.239 54.464-7.865-9.514-15.399-20.33-22.568-32.457-28.598-48.397-49.842-114.599-61.448-191.463-1.609-10.664 5.919-20.582 16.822-22.159 10.895-1.56 21.061 5.798 22.67 16.465 2.432 16.103 5.37 31.774 8.719 46.927h252.045c10.415-47.295 16.429-99.657 17.591-154.226h-55.856c-11.021 0-20.003-8.711-20.003-19.49s8.981-19.54 20.003-19.54h55.856c-1.164-54.568-7.177-106.932-17.591-154.226h-98.791c-11.021 0-20.003-8.711-20.003-19.49s8.981-19.54 20.003-19.54h88.838c-5.48-18.821-11.738-36.58-18.721-53.045-25.291-59.663-57.667-95.692-89.914-100.577-4.95-0.102-9.921-0.086-14.874 0-56.328 8.285-109.689 110.765-128.78 249.839-1.465 10.688-11.484 18.156-22.413 16.72-10.927-1.434-18.595-11.216-17.13-21.901 10.917-79.516 31.985-148.265 60.976-198.789 7.618-13.283 15.688-25.074 24.107-35.346-47.189 11.3-92.646 31.644-133.349 61.344-8.837 6.439-21.31 4.696-27.889-3.949-6.591-8.639-4.787-20.89 4.052-27.337 71.533-52.179 158.585-80.199 247.791-80.225h0.052c9.461 0 18.971 0.342 28.466 0.975 99.999 6.686 194.115 48.581 264.965 117.961 78.413 76.679 121.611 178.674 121.611 287.024s-43.198 210.37-121.611 287.024c-79.91 78.15-185.318 118.617-291.751 119.143zM608.919 814.9c34.663 0 70.141-36.843 97.399-101.154 6.98-16.465 13.241-34.27 18.721-53.072h-232.192c10.318 35.478 23.201 66.753 37.893 91.648 23.82 40.335 51.575 62.578 78.177 62.578zM699.096 804.283c64.495-15.633 125.314-48.135 175.155-96.874 14.937-14.608 28.44-30.251 40.467-46.717h-148.265c-6.583 24.285-14.367 47.085-23.235 68.014-12.946 30.54-27.783 55.882-44.117 75.603zM17.645 712.898c-4.643 0-9.178-1.896-12.463-5.181s-5.181-7.82-5.181-12.463c0-4.643 1.894-9.23 5.181-12.516 3.285-3.301 7.82-5.181 12.463-5.181s9.233 1.878 12.516 5.181c3.285 3.285 5.181 7.854 5.181 12.516-0.002 4.643-1.896 9.178-5.181 12.463-3.282 3.285-7.87 5.181-12.516 5.181zM90.412 712.898c-10.921 0-19.797-7.891-19.797-17.645s8.876-17.694 19.797-17.694h84.059c10.921 0 19.747 7.944 19.747 17.694 0 9.753-8.823 17.645-19.747 17.645zM254.485 712.898c-11.179 0-20.207-8.913-20.207-19.9v-167.671h-73.896l-51.706 60.871c-3.847 4.528-9.537 7.13-15.541 7.13h-72.872c-7.211 0-13.863-3.773-17.489-9.9-3.624-6.127-3.671-13.692-0.102-19.85l66.937-115.439-66.937-115.492c-3.569-6.158-3.522-13.726 0.102-19.85 3.624-6.127 10.276-9.847 17.489-9.847h72.872c6.003 0 11.694 2.602 15.541 7.13l51.706 60.871h73.896v-167.881c0-10.985 9.028-19.9 20.207-19.9h76.47c8.18 0 15.533 4.834 18.669 12.258l74.211 175.523h73.449c52.258 0 102.414 24.33 134.163 65.099 5.567 7.137 5.567 17.072 0 24.209-31.774 40.756-81.932 65.099-134.163 65.099h-73.503l-74.159 175.313c-3.138 7.421-10.491 12.258-18.669 12.258zM274.745 673.088h42.673l62.578-147.766h-105.251zM775.789 621.644h163.916c25.995-47.189 41.044-99.605 43.959-154.226h-191.043c-1.114 54.149-6.888 106.406-16.822 154.226zM54.947 553.524h28.571l51.917-61.081c3.642-4.288 8.936-6.88 14.616-7.13 1.302-0.056 2.621 0.021 3.897 0.205h343.221c34.244 0 67.331-13.742 91.307-37.394-23.952-23.65-57.037-37.394-91.307-37.394h-343.221c-1.287 0.189-2.639 0.21-3.949 0.155-5.662-0.265-10.935-2.802-14.566-7.077l-51.917-61.134h-28.571l55.383 95.614c3.538 6.1 3.538 13.595 0 19.695zM792.596 428.369h191.043c-2.909-54.621-17.957-106.984-43.959-154.173h-163.916c9.934 47.82 15.709 100.025 16.822 154.173zM274.745 371.017h105.303l-62.63-148.134h-42.673zM547.326 271.412c-4.661 0-9.23-1.893-12.516-5.181-3.301-3.282-5.181-7.818-5.181-12.463 0-4.643 1.879-9.233 5.181-12.516 3.285-3.285 7.87-5.181 12.516-5.181 4.643 0 9.178 1.895 12.463 5.181 3.282 3.282 5.181 7.872 5.181 12.516 0 4.646-1.898 9.18-5.181 12.463-3.285 3.285-7.82 5.181-12.463 5.181zM766.44 235.094h148.265c-12.041-16.481-25.525-32.116-40.467-46.717-49.395-48.293-110.135-80.487-174.525-96.059 16.064 19.606 30.724 44.695 43.487 74.841 8.868 20.913 16.651 43.671 23.235 67.961zM36.933 218.424c-10.737 0-19.438-7.894-19.438-17.645 0-9.753 8.7-17.645 19.438-17.645h120.061c10.737 0 19.438 7.891 19.438 17.645 0 9.751-8.7 17.645-19.438 17.645z" />
</font>
</defs>
</svg>
