<svg width="280" height="69" viewBox="0 0 280 69" fill="none" xmlns="http://www.w3.org/2000/svg">
<path fill-rule="evenodd" clip-rule="evenodd" d="M20.4417 49.9446C18.0554 49.1983 15.7712 48.1609 13.6409 46.8562C12.9875 46.4991 12.7234 46.5642 12.7234 47.1415C13.1306 48.4656 14.0149 49.5933 15.2064 50.3083C17.8654 52.1027 23.0168 54.6882 31.938 54.6205C44.1716 54.5488 51.1632 49.3115 51.9899 42.7656C52.4487 38.3752 49.2269 34.0617 43.5181 31.5426C50.7937 29.1708 56.0331 24.4963 56.2225 18.3871C56.4892 8.75138 45.0903 0.76809 27.8 0.0580216C12.35 -0.594976 3.89556 4.94223 1.31389 9.83042C-2.36793 16.805 2.14069 21.8339 9.22029 22.9926C11.3182 23.4825 13.5095 23.406 15.5678 22.7709C16.2132 22.4842 16.1265 22.0569 15.3864 21.9746C6.09716 20.6102 1.2219 16.002 3.52487 11.1258C5.53981 6.80566 14.1929 3.06951 26.8812 3.35486C39.9376 3.64818 53.0047 9.31811 53.4607 18.0964C53.8235 24.925 45.4597 28.5205 38.2787 29.8809C36.4021 29.506 34.4967 29.2915 32.5833 29.2398C30.0977 29.1668 26.7865 29.4522 25.4157 30.6029C23.9382 31.8293 24.5823 32.688 26.8826 32.98C30.917 33.5342 35.0148 33.4356 39.0175 32.688C45.2717 34.1997 50.1537 37.7938 49.5896 42.6767C48.8642 48.9359 39.5749 51.6713 32.1206 51.5904C29.2455 51.585 26.3779 51.2973 23.5595 50.7317C21.1698 36.3511 21.8259 16.4414 24.0316 5.87129C24.1116 5.51692 24.1116 5.29925 23.4688 5.44127C22.7999 5.60479 22.1925 5.95681 21.7195 6.45515C21.2465 6.9535 20.9278 7.57702 20.8018 8.25101C18.2281 17.3041 17.7654 34.8461 19.0562 46.9929C19.0741 47.5515 19.2058 48.1007 19.4433 48.6071C19.6808 49.1136 20.0191 49.5668 20.4377 49.9393L20.4417 49.9446ZM60.7097 42.97C60.6515 42.1543 60.6855 41.3347 60.8111 40.5266C61.4472 35.0624 64.8543 31.1033 66.5998 31.4696C68.9055 31.9779 67.7053 41.8207 60.7137 42.9767L60.7097 42.97ZM60.8111 44.1884C64.5729 43.9721 69.1815 41.6667 70.4617 37.4275C71.3805 34.3404 70.6457 31.7496 67.7 30.1012C64.1155 28.0865 58.9709 31.1059 57.2226 38.8689C55.6491 45.7001 59.979 49.5066 62.918 50.4423C68.5334 52.1677 73.8621 49.435 75.153 44.1884C75.3431 43.5099 75.3431 42.7925 75.153 42.114C75.0583 41.741 74.6955 41.741 74.5088 42.1763C72.4859 47.2769 67.0586 49.8743 63.6581 48.9346C62.3713 48.5829 61.1711 46.8562 60.8151 44.1884H60.8111ZM87.3079 37.0785C86.8358 45.1281 82.886 49.7336 80.5883 49.3739C78.9388 49.0872 77.0986 46.6412 78.2854 40.8942C79.3949 35.5707 83.2567 31.2532 85.0863 31.6036C86.4678 31.9036 87.4759 33.8427 87.3079 37.0785ZM88.9587 32.7623C88.4119 31.7056 87.542 30.8491 86.4744 30.3162C82.7059 28.5245 77.464 31.4762 75.069 39.0175C72.8674 46.0665 75.713 49.7336 79.2028 50.737C83.8048 52.1027 86.2891 49.6566 87.3839 45.7758C87.5758 46.8732 88.0757 47.8942 88.8258 48.7209C89.576 49.5475 90.5458 50.1462 91.6232 50.4476C95.297 51.5254 98.06 48.8629 98.06 44.1274C98.1006 43.7243 98.0559 43.3173 97.9287 42.9325C97.8014 42.5478 97.5944 42.1938 97.3212 41.8936C96.8704 41.5326 96.8705 41.7463 96.8705 41.9706C96.1237 46.2032 93.37 48.7952 92.1765 48.5802C90.0656 48.2206 89.2322 39.5219 91.6232 31.8306C91.7178 31.4736 91.5298 31.3262 91.0724 31.3939C90.6439 31.4659 90.2346 31.6245 89.87 31.8598C89.5054 32.0952 89.193 32.4023 88.9521 32.7623H88.9587ZM115.258 42.1206C115.078 41.7477 114.714 41.8206 114.526 42.2533C112.961 46.2032 107.895 50.8803 103.858 49.3049C101.835 48.5086 100.642 45.5595 100.827 41.3853C101.094 35.6424 104.41 30.6042 106.344 30.8192C107.9 30.9666 108.637 34.7784 106.988 38.3712C106.893 38.6565 106.988 38.6565 107.539 38.6565C108.547 38.495 109.457 37.9614 110.088 37.1622C110.719 36.3629 111.025 35.3564 110.944 34.343C110.85 33.2754 110.455 32.256 109.803 31.4027C109.152 30.5495 108.271 29.8972 107.263 29.5212C103.487 27.6631 98.156 31.3262 97.1465 39.7409C96.3211 46.9278 99.8135 50.2366 104.141 51.1697C105.292 51.4767 106.493 51.5524 107.673 51.3923C108.854 51.2322 109.991 50.8394 111.018 50.237C112.044 49.6346 112.94 48.8347 113.652 47.8839C114.364 46.9331 114.879 45.8505 115.166 44.6994C115.514 43.8799 115.545 42.9611 115.252 42.1206H115.258ZM118.483 43.8341C118.025 32.984 118.945 17.7394 120.692 10.1224C120.786 9.76406 120.968 9.47738 120.139 9.69504C119.504 9.85988 118.932 10.2057 118.492 10.6901C118.052 11.1744 117.765 11.7761 117.664 12.4212C115.272 20.5478 114.257 38.2305 115.169 48.0108C115.194 48.8994 115.529 49.7516 116.116 50.4212C116.704 51.0909 117.507 51.5361 118.388 51.6806C118.486 51.7344 118.596 51.761 118.708 51.7579C118.819 51.7548 118.928 51.7221 119.023 51.663C119.117 51.604 119.194 51.5208 119.246 51.4221C119.297 51.3235 119.321 51.2129 119.315 51.102C120.001 44.9785 121.874 39.0455 124.83 33.6316C125.2 33.0543 125.388 33.3516 125.474 33.8466C125.314 37.3548 125.499 40.8702 126.028 44.3424C126.766 48.2949 129.056 49.2253 131.452 49.8796C134.49 50.6666 137.156 48.8669 136.969 43.6987C136.986 43.3746 136.929 43.0509 136.802 42.752C136.675 42.4531 136.481 42.1869 136.236 41.9733C136.054 41.8206 135.868 41.8963 135.868 42.1843C135.316 45.7771 133.294 48.5829 131.822 48.2232C129.337 47.6485 129.251 40.1006 129.337 34.8514C129.429 34.0768 129.306 33.292 128.981 32.5821C128.657 31.8721 128.144 31.2639 127.497 30.8232C127.232 30.5959 126.92 30.4305 126.582 30.3392C126.244 30.2479 125.891 30.233 125.547 30.2956C125.203 30.3583 124.877 30.4968 124.594 30.7011C124.311 30.9054 124.077 31.1703 123.91 31.4762C121.517 35.3172 119.687 39.4785 118.476 43.8341H118.483ZM157.57 49.9393C155.184 49.1935 152.9 48.1561 150.77 46.8508C150.118 46.4938 149.851 46.5589 149.851 47.1362C150.26 48.4595 151.143 49.5868 152.334 50.303C155.001 52.0974 160.147 54.6828 169.061 54.6151C181.299 54.5435 188.292 49.3062 189.112 42.7603C189.576 38.3699 186.358 34.0564 180.663 31.5373C187.931 29.1655 193.166 24.491 193.353 18.3818C193.633 8.74607 182.212 0.762781 164.93 0.0527131C149.473 -0.600284 141.018 4.93692 138.437 9.82511C134.763 16.7997 139.269 21.8286 146.356 22.9873C148.452 23.4766 150.641 23.4001 152.698 22.7656C153.343 22.4789 153.255 22.0516 152.51 21.9693C143.219 20.6049 138.349 15.9967 140.642 11.1205C142.67 6.80035 151.31 3.0642 164.005 3.34955C177.062 3.64287 190.119 9.3128 190.587 18.0911C190.956 24.9197 182.586 28.5152 175.41 29.8756C173.531 29.5007 171.624 29.2862 169.708 29.2345C167.221 29.1615 163.911 29.4469 162.527 30.5976C161.06 31.824 161.707 32.6827 164.005 32.9747C168.042 33.5293 172.143 33.4307 176.149 32.6827C182.398 34.1944 187.274 37.7885 186.724 42.6714C185.985 48.9306 176.7 51.666 169.255 51.5851C166.379 51.5795 163.511 51.2919 160.692 50.7264C158.307 36.3458 158.952 16.436 161.162 5.86598C161.248 5.51161 161.248 5.29395 160.606 5.43596C159.935 5.59658 159.326 5.94767 158.853 6.44652C158.379 6.94537 158.062 7.57046 157.939 8.24571C155.368 17.2987 154.902 34.8407 156.192 46.9876C156.207 47.5473 156.336 48.0982 156.572 48.6066C156.808 49.1149 157.145 49.5702 157.564 49.9446L157.57 49.9393ZM206.124 46.7102C206.406 47.6049 206.895 48.4217 207.55 49.096C208.205 49.7703 209.008 50.2835 209.897 50.595C213.204 51.524 216.152 49.7349 216.232 44.3397C216.226 43.5562 216.004 42.7891 215.592 42.1219C215.325 41.749 215.045 41.749 215.045 42.2547C214.391 45.9908 212.564 48.7966 211.271 48.7966C207.951 48.7966 208.417 38.6592 209.697 30.8219C209.791 30.4688 209.791 30.1795 209.071 30.3149C208.367 30.314 207.688 30.5703 207.162 31.0352C206.635 31.5001 206.299 32.1412 206.217 32.8366C205.937 33.982 205.484 37.7261 204.923 41.8206C204.19 46.9278 202.63 49.0859 201.336 49.0859C200.78 49.106 200.233 48.9393 199.783 48.6127C199.333 48.286 199.007 47.8184 198.856 47.2849C197.109 43.6204 197.842 34.5647 199.043 29.8849C199.136 29.3885 199.043 29.3885 198.389 29.4562C197.78 29.573 197.215 29.8577 196.76 30.2779C196.305 30.6981 195.978 31.237 195.816 31.8332C193.615 38.3738 193.429 47.0725 196.656 50.2366C197.424 50.9084 198.377 51.336 199.392 51.4642C200.407 51.5924 201.437 51.4154 202.35 50.956C203.234 50.5378 204.024 49.9462 204.672 49.2166C205.321 48.487 205.814 47.6344 206.124 46.7102ZM219.099 44.2641C218.827 39.0733 219.104 33.8685 219.925 28.7355C220.019 28.3055 219.832 28.1648 219.179 28.3055C218.596 28.381 218.052 28.6371 217.623 29.0376C217.195 29.438 216.904 29.9624 216.792 30.5365C215.625 36.6924 215.316 42.9787 215.871 49.2186C216.058 50.7343 217.258 51.2387 218.912 51.524C219.459 51.593 219.645 51.524 219.739 50.8843C220.552 44.9222 222.484 39.1653 225.433 33.913C225.806 33.3463 225.993 33.6263 226.086 34.136C225.928 37.6404 226.111 41.1518 226.633 44.6211C226.776 46.0194 227.39 47.3283 228.376 48.335C229.361 49.3418 230.66 49.9872 232.06 50.1663C235.101 50.887 237.848 48.7979 237.581 43.6204C237.529 43.0051 237.271 42.4251 236.848 41.9733C236.661 41.7477 236.381 41.8963 236.381 42.1843C236.208 45.7068 234.087 48.7979 232.434 48.4356C229.94 47.9405 229.847 40.3859 229.94 35.1367C229.94 33.3489 229.58 31.9036 228.113 31.0435C226.446 30.1145 225.526 30.3905 224.513 31.7563C222.098 35.6368 220.273 39.8518 219.099 44.2641ZM240.061 44.2641C239.81 39.0734 240.087 33.8706 240.888 28.7355C240.968 28.3055 240.795 28.1648 240.168 28.3055C239.581 28.3737 239.032 28.627 238.6 29.0285C238.168 29.4299 237.876 29.9584 237.768 30.5365C236.581 36.69 236.272 42.9791 236.848 49.2186C237.021 50.7343 238.221 51.2387 239.875 51.524C240.421 51.593 240.608 51.524 240.702 50.8843C241.505 44.9181 243.442 39.1586 246.409 33.913C246.769 33.3463 246.956 33.6263 247.049 34.136C246.896 37.6408 247.083 41.1522 247.609 44.6211C247.749 46.0181 248.361 47.3267 249.344 48.3336C250.327 49.3405 251.624 49.9865 253.023 50.1663C256.064 50.887 258.824 48.7979 258.557 43.6204C258.501 43.0034 258.238 42.4231 257.81 41.9733C257.624 41.7477 257.344 41.8963 257.344 42.1843C257.17 45.7068 255.063 48.7979 253.397 48.4356C250.916 47.9405 250.823 40.3859 250.916 35.1367C251.025 34.3514 250.911 33.5513 250.585 32.8276C250.26 32.104 249.737 31.4858 249.076 31.0435C248.81 30.8127 248.493 30.6458 248.152 30.5556C247.81 30.4654 247.453 30.4543 247.106 30.5231C246.76 30.5919 246.434 30.7389 246.154 30.9526C245.873 31.1664 245.646 31.4413 245.489 31.7563C243.069 35.6359 241.24 39.8509 240.061 44.2641ZM268.212 47.4999C268.292 50.595 268.492 53.8281 268.839 56.9922C269.399 62.0954 269.025 65.1202 267.012 66.1939C264.331 67.6353 260.024 65.4069 257.997 58.788C257.81 58.1416 257.264 58.2133 256.984 58.6552C256.645 59.3448 256.455 60.0972 256.425 60.8641C256.395 61.6311 256.526 62.3958 256.81 63.1094C258.09 67.7826 262.784 70.875 267.932 67.7109C270.865 65.9125 273.266 62.6674 272.532 56.9962C271.331 48.2661 271.331 39.4139 272.532 30.6839C272.532 30.3945 272.532 30.1848 271.799 30.3202C271.123 30.4109 270.493 30.7093 269.995 31.1737C269.498 31.6381 269.159 32.2455 269.025 32.911C268.42 35.8541 267.993 38.8306 267.745 41.8246C267.092 46.9318 265.731 49.0899 264.251 49.3115C263.331 49.4443 262.411 48.7302 261.664 47.2888C259.744 43.5553 260.571 34.5687 261.758 29.8889C261.851 29.3925 261.758 29.3925 261.131 29.4602C260.55 29.5708 260.014 29.8471 259.587 30.2555C259.161 30.6638 258.864 31.1866 258.731 31.7602C256.704 38.5158 256.424 46.9318 259.557 50.2406C260.254 50.942 261.165 51.3933 262.148 51.5235C263.13 51.6537 264.128 51.4555 264.985 50.96C266.404 50.1784 267.535 48.9655 268.212 47.4985V47.4999ZM275.853 26.8057C276.148 26.7586 276.447 26.7355 276.746 26.7367C277.112 26.7016 277.479 26.8038 277.773 27.0234C277.865 27.1115 277.937 27.2176 277.985 27.3351C278.033 27.4526 278.057 27.5787 278.053 27.7056C278.052 27.9075 277.987 28.104 277.868 28.267C277.748 28.4301 277.579 28.5513 277.386 28.6134V28.628C277.527 28.6923 277.648 28.7925 277.737 28.9184C277.826 29.0442 277.88 29.1913 277.893 29.3447C277.962 29.6792 278.056 30.0084 278.173 30.3295H277.706C277.592 30.0543 277.512 29.7664 277.466 29.4721C277.467 29.3791 277.448 29.2871 277.411 29.2015C277.375 29.1159 277.322 29.0385 277.254 28.974C277.187 28.9095 277.107 28.8593 277.02 28.8263C276.933 28.7933 276.84 28.7782 276.746 28.7819H276.319V30.3282H275.853V26.8017V26.8057ZM276.319 28.4329H276.786C276.885 28.4472 276.985 28.4406 277.08 28.4133C277.176 28.386 277.265 28.3387 277.34 28.2747C277.416 28.2106 277.477 28.1312 277.52 28.0418C277.562 27.9523 277.585 27.8549 277.586 27.756C277.589 27.6551 277.568 27.5549 277.526 27.4632C277.484 27.3714 277.421 27.2904 277.342 27.2265C277.264 27.1625 277.172 27.1171 277.073 27.0939C276.974 27.0707 276.872 27.0701 276.773 27.0924C276.621 27.0892 276.469 27.1017 276.319 27.1295V28.4355V28.4329ZM276.933 31.6342C276.326 31.6342 275.733 31.4551 275.229 31.1197C274.725 30.7843 274.331 30.3075 274.099 29.7497C273.867 29.1919 273.806 28.5781 273.925 27.986C274.043 27.3938 274.335 26.8499 274.764 26.423C275.193 25.9961 275.74 25.7053 276.335 25.5876C276.93 25.4698 277.546 25.5302 278.107 25.7613C278.667 25.9923 279.146 26.3836 279.483 26.8856C279.82 27.3876 280 27.9778 280 28.5815C280.001 28.9828 279.923 29.3804 279.769 29.7514C279.616 30.1224 279.39 30.4594 279.105 30.7432C278.82 31.0269 278.481 31.2517 278.108 31.4046C277.736 31.5576 277.336 31.6356 276.933 31.6342ZM276.933 26.1925C276.458 26.1925 275.994 26.3326 275.599 26.5951C275.205 26.8576 274.897 27.2308 274.715 27.6673C274.534 28.1038 274.486 28.5842 274.579 29.0476C274.671 29.511 274.9 29.9367 275.236 30.2708C275.571 30.6049 275.999 30.8325 276.465 30.9246C276.93 31.0168 277.413 30.9695 277.851 30.7887C278.29 30.6079 278.665 30.3017 278.929 29.9088C279.192 29.5159 279.333 29.054 279.333 28.5815C279.334 28.2675 279.272 27.9564 279.152 27.6661C279.031 27.3758 278.855 27.1119 278.632 26.8897C278.409 26.6674 278.144 26.4911 277.852 26.3708C277.561 26.2505 277.248 26.1885 276.933 26.1885V26.1925Z" fill="white"/>
</svg>
