<svg width="130" height="192" viewBox="0 0 130 192" fill="none" xmlns="http://www.w3.org/2000/svg">
<rect x="0.5" y="1.1582" width="129" height="189.667" rx="2.5" fill="white" stroke="#EAEAEA"/>
<path d="M39.1436 82.1118C39.1436 82.3032 39.0798 82.481 38.9521 82.645C38.8291 82.8091 38.64 82.8911 38.3848 82.8911C38.1387 82.8911 37.945 82.825 37.8037 82.6929C37.6624 82.5562 37.5143 82.3123 37.3594 81.9614C37.25 82.0207 37.0905 82.1642 36.8809 82.3921C36.6758 82.6154 36.3773 83.0802 35.9854 83.7866C35.6709 84.3426 35.3883 84.7778 35.1377 85.0923C34.887 85.4022 34.584 85.6779 34.2285 85.9194V86.0151C34.6432 86.1564 34.9668 86.3934 35.1992 86.7261C35.4316 87.0588 35.6139 87.4552 35.7461 87.9155C35.8327 88.2118 35.9193 88.5103 36.0059 88.811C36.0924 89.1073 36.1722 89.3761 36.2451 89.6177C36.3499 89.9549 36.4548 90.1714 36.5596 90.2671C36.6644 90.3582 36.792 90.4175 36.9424 90.4448C37.0609 90.4676 37.1816 90.4881 37.3047 90.5063C37.4277 90.52 37.5439 90.5314 37.6533 90.5405L37.5371 90.9917H34.9941C34.8984 90.4129 34.805 89.9321 34.7139 89.5493C34.6227 89.1665 34.5179 88.7427 34.3994 88.2778C34.2126 87.5806 33.9688 87.0952 33.668 86.8218C33.3672 86.5438 32.9548 86.4048 32.4307 86.4048H32.1367L31.3916 89.6587C31.3825 89.6951 31.3757 89.7339 31.3711 89.7749C31.3665 89.8159 31.3643 89.8547 31.3643 89.8911C31.3643 89.9823 31.3848 90.0688 31.4258 90.1509C31.4714 90.2329 31.5374 90.299 31.624 90.3491C31.6924 90.3901 31.8154 90.4312 31.9932 90.4722C32.1755 90.5132 32.3304 90.536 32.458 90.5405L32.3555 90.9917H28.3291L28.4316 90.5405C28.5456 90.5314 28.7074 90.5177 28.917 90.4995C29.1266 90.4813 29.2747 90.4539 29.3613 90.4175C29.5208 90.3582 29.6439 90.2716 29.7305 90.1577C29.8171 90.0438 29.8786 89.9025 29.915 89.7339L31.5488 82.6655C31.5579 82.6291 31.5648 82.5926 31.5693 82.5562C31.5739 82.5151 31.5762 82.4741 31.5762 82.4331C31.5762 82.3328 31.5557 82.2463 31.5146 82.1733C31.4782 82.1004 31.4098 82.0366 31.3096 81.9819C31.2002 81.9227 31.0635 81.8703 30.8994 81.8247C30.7354 81.7791 30.5895 81.7518 30.4619 81.7427L30.5645 81.2915H34.5908L34.4883 81.7427C34.3607 81.7472 34.2012 81.7677 34.0098 81.8042C33.8184 81.8407 33.6725 81.8748 33.5723 81.9067C33.3945 81.966 33.2669 82.0594 33.1895 82.187C33.112 82.3146 33.055 82.4513 33.0186 82.5972L32.2666 85.8647H32.9023C33.1165 85.8647 33.2943 85.8306 33.4355 85.7622C33.5814 85.6938 33.75 85.5799 33.9414 85.4204C34.1921 85.2153 34.4131 84.967 34.6045 84.6753C34.7959 84.3791 34.9896 84.0555 35.1855 83.7046C35.377 83.3674 35.5843 83.0324 35.8076 82.6997C36.0309 82.3625 36.293 82.0617 36.5938 81.7974C36.7806 81.6333 36.9925 81.4943 37.2295 81.3804C37.4665 81.2619 37.7262 81.2026 38.0088 81.2026C38.3551 81.2026 38.6309 81.2847 38.8359 81.4487C39.041 81.6082 39.1436 81.8293 39.1436 82.1118ZM42.9922 90.0894H42.9443C42.8441 90.1714 42.7233 90.2762 42.582 90.4038C42.4453 90.5269 42.2835 90.6453 42.0967 90.7593C41.9189 90.8732 41.7253 90.9712 41.5156 91.0532C41.306 91.1398 41.0781 91.1831 40.832 91.1831C40.1712 91.1831 39.6517 90.9461 39.2734 90.4722C38.8997 89.9982 38.7129 89.3511 38.7129 88.5308C38.7129 87.9657 38.8177 87.4165 39.0273 86.8833C39.237 86.3501 39.5264 85.8716 39.8955 85.4478C40.2464 85.0422 40.6634 84.7163 41.1465 84.4702C41.6296 84.2196 42.1263 84.0942 42.6367 84.0942C42.9603 84.0942 43.2679 84.1375 43.5596 84.2241C43.8558 84.3107 44.0882 84.4087 44.2568 84.5181L45.5078 84.1968L45.5898 84.2993L44.5508 88.7085C44.5143 88.8498 44.4756 89.0229 44.4346 89.228C44.3981 89.4285 44.3799 89.5767 44.3799 89.6724C44.3799 89.9321 44.4346 90.1076 44.5439 90.1987C44.6533 90.2899 44.8379 90.3354 45.0977 90.3354C45.1842 90.3354 45.3073 90.3218 45.4668 90.2944C45.6263 90.2671 45.7493 90.2375 45.8359 90.2056L45.7334 90.6431C45.3232 90.8071 45.0179 90.9256 44.8174 90.9985C44.6169 91.0715 44.373 91.1079 44.0859 91.1079C43.7578 91.1079 43.498 91.0122 43.3066 90.8208C43.1152 90.6294 43.0104 90.3856 42.9922 90.0894ZM43.9697 85.769C43.9697 85.6187 43.9538 85.4751 43.9219 85.3384C43.89 85.2017 43.8239 85.0741 43.7236 84.9556C43.6325 84.8416 43.5072 84.7505 43.3477 84.6821C43.1882 84.6138 42.9876 84.5796 42.7461 84.5796C42.4134 84.5796 42.0898 84.689 41.7754 84.9077C41.4609 85.1265 41.1784 85.4204 40.9277 85.7896C40.6908 86.1359 40.4971 86.5552 40.3467 87.0474C40.1963 87.5396 40.1211 88.0386 40.1211 88.5444C40.1211 88.8224 40.137 89.0685 40.1689 89.2827C40.2008 89.4969 40.2624 89.6929 40.3535 89.8706C40.4401 90.0438 40.5654 90.1782 40.7295 90.2739C40.8936 90.3696 41.1009 90.4175 41.3516 90.4175C41.6068 90.4175 41.8734 90.3468 42.1514 90.2056C42.4339 90.0597 42.7507 89.8068 43.1016 89.4468L43.9697 85.769ZM53.875 86.7056C53.875 87.3162 53.7679 87.895 53.5537 88.4419C53.3395 88.9888 53.0547 89.4627 52.6992 89.8638C52.3027 90.3058 51.8721 90.634 51.4072 90.8481C50.9469 91.0623 50.473 91.1694 49.9854 91.1694C49.5934 91.1694 49.2721 91.1216 49.0215 91.0259C48.7708 90.9302 48.5475 90.8117 48.3516 90.6704L47.9551 92.4614C47.9277 92.5754 47.9049 92.6825 47.8867 92.7827C47.873 92.883 47.8662 92.9627 47.8662 93.022C47.8662 93.145 47.9095 93.243 47.9961 93.3159C48.0872 93.3888 48.1898 93.4412 48.3037 93.4731C48.4176 93.5096 48.5452 93.5369 48.6865 93.5552C48.8278 93.5734 48.9554 93.5871 49.0693 93.5962L48.9736 94.0269H45.207L45.3027 93.5962C45.4486 93.5871 45.5853 93.5757 45.7129 93.562C45.8405 93.5483 45.9613 93.5256 46.0752 93.4937C46.2165 93.4526 46.3281 93.3752 46.4102 93.2612C46.4967 93.1519 46.5583 93.0151 46.5947 92.8511L48.0234 86.562C48.0599 86.3888 48.0941 86.2157 48.126 86.0425C48.1579 85.8647 48.1738 85.7121 48.1738 85.5845C48.1738 85.3293 48.1328 85.1584 48.0508 85.0718C47.9733 84.9852 47.8024 84.9419 47.5381 84.9419C47.4378 84.9419 47.3102 84.9624 47.1553 85.0034C47.0003 85.0399 46.8796 85.0695 46.793 85.0923L46.8955 84.6548C47.2419 84.4998 47.554 84.3813 47.832 84.2993C48.11 84.2127 48.347 84.1694 48.543 84.1694C48.862 84.1694 49.1035 84.2515 49.2676 84.4155C49.4316 84.575 49.5342 84.7983 49.5752 85.0854H49.6299C49.9398 84.7983 50.2702 84.5614 50.6211 84.3745C50.9766 84.1877 51.3298 84.0942 51.6807 84.0942C52.3734 84.0942 52.9111 84.3312 53.2939 84.8052C53.6813 85.2746 53.875 85.908 53.875 86.7056ZM51.7422 89.5288C51.9746 89.1551 52.1523 88.7313 52.2754 88.2573C52.403 87.7788 52.4668 87.2729 52.4668 86.7397C52.4668 86.4982 52.444 86.2567 52.3984 86.0151C52.3574 85.769 52.2891 85.5662 52.1934 85.4067C52.0931 85.229 51.9564 85.0923 51.7832 84.9966C51.61 84.8963 51.3822 84.8462 51.0996 84.8462C50.89 84.8462 50.6576 84.91 50.4023 85.0376C50.1517 85.1652 49.8441 85.4045 49.4795 85.7554L48.6045 89.6313C48.6364 89.8911 48.7754 90.1349 49.0215 90.3628C49.2721 90.5861 49.5729 90.6978 49.9238 90.6978C50.2839 90.6978 50.6211 90.5929 50.9355 90.3833C51.25 90.1737 51.5189 89.8888 51.7422 89.5288ZM66.2686 90.2192L66.166 90.6567C65.7467 90.8254 65.4118 90.9416 65.1611 91.0054C64.9105 91.0737 64.6963 91.1079 64.5186 91.1079C64.154 91.1079 63.8805 91.0145 63.6982 90.8276C63.516 90.6362 63.4248 90.4015 63.4248 90.1235C63.4248 90.0233 63.4339 89.9139 63.4521 89.7954C63.4704 89.6724 63.5 89.5288 63.541 89.3647L64.2109 86.8149C64.2611 86.619 64.2998 86.4412 64.3271 86.2817C64.359 86.1222 64.375 85.9946 64.375 85.8989C64.375 85.5936 64.3089 85.3521 64.1768 85.1743C64.0446 84.9966 63.835 84.9077 63.5479 84.9077C63.2425 84.9077 62.9417 84.9806 62.6455 85.1265C62.3538 85.2677 62.0234 85.5343 61.6543 85.9263L60.4648 90.9917H59.1934L60.2666 86.4253C60.2894 86.325 60.3099 86.2202 60.3281 86.1108C60.3509 85.9969 60.3623 85.9126 60.3623 85.8579C60.3623 85.5617 60.2871 85.3293 60.1367 85.1606C59.9909 84.992 59.7744 84.9077 59.4873 84.9077C59.2275 84.9077 58.9404 84.9738 58.626 85.106C58.3115 85.2336 57.9469 85.5229 57.5322 85.9741L56.377 90.9917H55.1055L56.124 86.562C56.1605 86.4025 56.1947 86.2316 56.2266 86.0493C56.263 85.867 56.2812 85.7121 56.2812 85.5845C56.2812 85.3201 56.238 85.147 56.1514 85.0649C56.0648 84.9784 55.8962 84.9351 55.6455 84.9351C55.5452 84.9351 55.4154 84.9533 55.2559 84.9897C55.1009 85.0262 54.9801 85.0558 54.8936 85.0786L54.9961 84.6411C55.3516 84.4816 55.666 84.3631 55.9395 84.2856C56.2129 84.2082 56.4476 84.1694 56.6436 84.1694C57.0081 84.1694 57.2656 84.2697 57.416 84.4702C57.571 84.6662 57.653 84.9351 57.6621 85.2769H57.7031C58.2409 84.853 58.6829 84.55 59.0293 84.3677C59.3757 84.1854 59.7881 84.0942 60.2666 84.0942C60.6722 84.0942 61.0003 84.2127 61.251 84.4497C61.5062 84.6821 61.6497 84.9761 61.6816 85.3315H61.709C62.1966 84.9259 62.6296 84.6183 63.0078 84.4087C63.3906 84.1991 63.835 84.0942 64.3408 84.0942C64.7783 84.0942 65.1133 84.2218 65.3457 84.4771C65.5827 84.7277 65.7012 85.0581 65.7012 85.4683C65.7012 85.5503 65.6875 85.6961 65.6602 85.9058C65.6374 86.1154 65.5986 86.3228 65.5439 86.5278L64.9697 88.7222C64.9287 88.868 64.89 89.0366 64.8535 89.228C64.8171 89.4149 64.7988 89.5607 64.7988 89.6655C64.7988 89.9253 64.8535 90.103 64.9629 90.1987C65.0723 90.2899 65.2568 90.3354 65.5166 90.3354C65.6032 90.3354 65.7285 90.3241 65.8926 90.3013C66.0566 90.2785 66.182 90.2511 66.2686 90.2192ZM71.5049 90.0347H71.4639C71.2542 90.2033 71.0537 90.3582 70.8623 90.4995C70.6709 90.6408 70.4818 90.7593 70.2949 90.855C70.0762 90.9644 69.8779 91.0418 69.7002 91.0874C69.5225 91.1375 69.29 91.1626 69.0029 91.1626C68.5654 91.1626 68.2259 91.0373 67.9844 90.7866C67.7428 90.5314 67.6221 90.1987 67.6221 89.7886C67.6221 89.6792 67.6312 89.5493 67.6494 89.3989C67.6676 89.2485 67.7109 89.0252 67.7793 88.729L68.3125 86.562C68.3581 86.3615 68.3945 86.1838 68.4219 86.0288C68.4538 85.8739 68.4697 85.7257 68.4697 85.5845C68.4697 85.3293 68.4264 85.1606 68.3398 85.0786C68.2578 84.992 68.0869 84.9487 67.8271 84.9487C67.7269 84.9487 67.5993 84.967 67.4443 85.0034C67.2894 85.0399 67.1686 85.0695 67.082 85.0923L67.1846 84.6548C67.54 84.4953 67.8522 84.3745 68.1211 84.2925C68.3945 84.2104 68.6133 84.1694 68.7773 84.1694C69.1419 84.1694 69.4085 84.256 69.5771 84.4292C69.7503 84.5978 69.8369 84.8394 69.8369 85.1538C69.8369 85.2358 69.8278 85.3475 69.8096 85.4888C69.7913 85.63 69.764 85.7713 69.7275 85.9126L69.1191 88.4419C69.0736 88.6333 69.0348 88.8133 69.0029 88.9819C68.9756 89.146 68.9619 89.2713 68.9619 89.3579C68.9619 89.6632 69.028 89.9048 69.1602 90.0825C69.2923 90.2603 69.502 90.3491 69.7891 90.3491C70.0807 90.3491 70.3792 90.2739 70.6846 90.1235C70.9945 89.9686 71.3044 89.7362 71.6143 89.4263L72.8105 84.2788L74 84.1968L74.082 84.2993L73.0635 88.7017C73.0179 88.8885 72.9769 89.0776 72.9404 89.269C72.904 89.4559 72.8857 89.5881 72.8857 89.6655C72.8857 89.9253 72.9404 90.103 73.0498 90.1987C73.1637 90.2899 73.3506 90.3354 73.6104 90.3354C73.6969 90.3354 73.82 90.3218 73.9795 90.2944C74.139 90.2671 74.262 90.2375 74.3486 90.2056L74.2461 90.6431C73.8678 90.798 73.5511 90.9142 73.2959 90.9917C73.0452 91.0692 72.8128 91.1079 72.5986 91.1079C72.2295 91.1079 71.9538 91.0008 71.7715 90.7866C71.5938 90.5724 71.5049 90.3218 71.5049 90.0347ZM77.6299 87.1431H80.3779L81.0479 84.2788L82.2373 84.1968L82.3193 84.2993L81.3008 88.7017C81.2689 88.8338 81.2301 89.007 81.1846 89.2212C81.1436 89.4308 81.123 89.5789 81.123 89.6655C81.123 89.9253 81.18 90.103 81.2939 90.1987C81.4079 90.2899 81.5947 90.3354 81.8545 90.3354C81.9411 90.3354 82.0641 90.3218 82.2236 90.2944C82.3877 90.2625 82.513 90.2306 82.5996 90.1987L82.4971 90.6362C82.0869 90.8003 81.7679 90.9188 81.54 90.9917C81.3122 91.0692 81.082 91.1079 80.8496 91.1079C80.485 91.1079 80.2116 91.0145 80.0293 90.8276C79.847 90.6362 79.7559 90.4015 79.7559 90.1235C79.7559 90.0233 79.765 89.9139 79.7832 89.7954C79.806 89.6724 79.8356 89.522 79.8721 89.3442L80.2549 87.6899H77.5068L76.7549 90.9917H75.4766L76.4951 86.562C76.527 86.4162 76.5612 86.2498 76.5977 86.063C76.6341 85.8716 76.6523 85.7121 76.6523 85.5845C76.6523 85.3293 76.609 85.1606 76.5225 85.0786C76.4404 84.992 76.2695 84.9487 76.0098 84.9487C75.9095 84.9487 75.7819 84.967 75.627 85.0034C75.472 85.0399 75.3512 85.0695 75.2646 85.0923L75.3672 84.6548C75.7227 84.4953 76.0348 84.3745 76.3037 84.2925C76.5771 84.2104 76.7959 84.1694 76.96 84.1694C77.3245 84.1694 77.5911 84.256 77.7598 84.4292C77.9329 84.5978 78.0195 84.8394 78.0195 85.1538C78.0195 85.2267 78.0104 85.3384 77.9922 85.4888C77.974 85.6346 77.9443 85.7964 77.9033 85.9741L77.6299 87.1431ZM90.6523 84.9009C90.6523 85.106 90.5885 85.2837 90.4609 85.4341C90.3333 85.5799 90.1488 85.6528 89.9072 85.6528C89.766 85.6528 89.6178 85.605 89.4629 85.5093C89.3125 85.409 89.1507 85.2746 88.9775 85.106C88.8955 85.1652 88.8089 85.3019 88.7178 85.5161C88.6312 85.7257 88.5423 85.9194 88.4512 86.0972C88.3464 86.3114 88.2096 86.5415 88.041 86.7876C87.877 87.0337 87.6742 87.2342 87.4326 87.3892V87.4507C87.7197 87.5874 87.9316 87.7537 88.0684 87.9497C88.2096 88.1457 88.3122 88.4282 88.376 88.7974C88.3851 88.8566 88.4033 88.9569 88.4307 89.0981C88.458 89.2394 88.4808 89.3693 88.499 89.4878C88.5446 89.7612 88.6357 89.9777 88.7725 90.1372C88.9137 90.2922 89.1484 90.3696 89.4766 90.3696C89.5996 90.3696 89.7477 90.3514 89.9209 90.3149C90.0941 90.2785 90.2194 90.2466 90.2969 90.2192L90.1875 90.6772C89.7227 90.8595 89.3854 90.9757 89.1758 91.0259C88.9707 91.0806 88.7406 91.1079 88.4854 91.1079C88.1937 91.1079 87.9385 91.0236 87.7197 90.855C87.5055 90.6818 87.3643 90.3856 87.2959 89.9663C87.2731 89.8296 87.2503 89.6746 87.2275 89.5015C87.2048 89.3283 87.1797 89.1779 87.1523 89.0503C87.0658 88.5854 86.9564 88.2756 86.8242 88.1206C86.6966 87.9657 86.471 87.8882 86.1475 87.8882C86.1475 87.8882 86.0814 87.8882 85.9492 87.8882C85.8216 87.8882 85.7396 87.8882 85.7031 87.8882L84.999 90.9917H83.7207L84.7393 86.562C84.7712 86.4162 84.8053 86.2498 84.8418 86.063C84.8783 85.8716 84.8965 85.7121 84.8965 85.5845C84.8965 85.3293 84.8532 85.1606 84.7666 85.0786C84.6846 84.992 84.5137 84.9487 84.2539 84.9487C84.1536 84.9487 84.026 84.967 83.8711 85.0034C83.7161 85.0399 83.5954 85.0695 83.5088 85.0923L83.6113 84.6548C83.9668 84.4953 84.279 84.3745 84.5479 84.2925C84.8213 84.2104 85.04 84.1694 85.2041 84.1694C85.5687 84.1694 85.8353 84.256 86.0039 84.4292C86.1771 84.5978 86.2637 84.8394 86.2637 85.1538C86.2637 85.2267 86.2546 85.3384 86.2363 85.4888C86.2181 85.6346 86.1885 85.7964 86.1475 85.9741L85.8262 87.3755H86.2363C86.3867 87.3755 86.5326 87.3504 86.6738 87.3003C86.8197 87.2456 86.9609 87.159 87.0977 87.0405C87.2572 86.9038 87.3893 86.7489 87.4941 86.5757C87.6035 86.4025 87.7106 86.202 87.8154 85.9741C87.9157 85.7554 88.0182 85.5503 88.123 85.3589C88.2279 85.1675 88.376 84.9647 88.5674 84.7505C88.7451 84.5545 88.9434 84.4064 89.1621 84.3062C89.3854 84.2013 89.6224 84.1489 89.873 84.1489C90.1055 84.1489 90.2923 84.2196 90.4336 84.3608C90.5794 84.4976 90.6523 84.6776 90.6523 84.9009ZM95.2871 90.0894H95.2393C95.139 90.1714 95.0182 90.2762 94.877 90.4038C94.7402 90.5269 94.5785 90.6453 94.3916 90.7593C94.2139 90.8732 94.0202 90.9712 93.8105 91.0532C93.6009 91.1398 93.373 91.1831 93.127 91.1831C92.4661 91.1831 91.9466 90.9461 91.5684 90.4722C91.1947 89.9982 91.0078 89.3511 91.0078 88.5308C91.0078 87.9657 91.1126 87.4165 91.3223 86.8833C91.5319 86.3501 91.8213 85.8716 92.1904 85.4478C92.5413 85.0422 92.9583 84.7163 93.4414 84.4702C93.9245 84.2196 94.4212 84.0942 94.9316 84.0942C95.2552 84.0942 95.5628 84.1375 95.8545 84.2241C96.1507 84.3107 96.3831 84.4087 96.5518 84.5181L97.8027 84.1968L97.8848 84.2993L96.8457 88.7085C96.8092 88.8498 96.7705 89.0229 96.7295 89.228C96.693 89.4285 96.6748 89.5767 96.6748 89.6724C96.6748 89.9321 96.7295 90.1076 96.8389 90.1987C96.9482 90.2899 97.1328 90.3354 97.3926 90.3354C97.4792 90.3354 97.6022 90.3218 97.7617 90.2944C97.9212 90.2671 98.0443 90.2375 98.1309 90.2056L98.0283 90.6431C97.6182 90.8071 97.3128 90.9256 97.1123 90.9985C96.9118 91.0715 96.668 91.1079 96.3809 91.1079C96.0527 91.1079 95.793 91.0122 95.6016 90.8208C95.4102 90.6294 95.3053 90.3856 95.2871 90.0894ZM96.2646 85.769C96.2646 85.6187 96.2487 85.4751 96.2168 85.3384C96.1849 85.2017 96.1188 85.0741 96.0186 84.9556C95.9274 84.8416 95.8021 84.7505 95.6426 84.6821C95.4831 84.6138 95.2826 84.5796 95.041 84.5796C94.7083 84.5796 94.3848 84.689 94.0703 84.9077C93.7559 85.1265 93.4733 85.4204 93.2227 85.7896C92.9857 86.1359 92.792 86.5552 92.6416 87.0474C92.4912 87.5396 92.416 88.0386 92.416 88.5444C92.416 88.8224 92.432 89.0685 92.4639 89.2827C92.4958 89.4969 92.5573 89.6929 92.6484 89.8706C92.735 90.0438 92.8604 90.1782 93.0244 90.2739C93.1885 90.3696 93.3958 90.4175 93.6465 90.4175C93.9017 90.4175 94.1683 90.3468 94.4463 90.2056C94.7288 90.0597 95.0456 89.8068 95.3965 89.4468L96.2646 85.769ZM36.1836 103.901C36.1836 104.106 36.1198 104.284 35.9922 104.434C35.8646 104.58 35.68 104.653 35.4385 104.653C35.2972 104.653 35.1491 104.605 34.9941 104.509C34.8438 104.409 34.682 104.275 34.5088 104.106C34.4268 104.165 34.3402 104.302 34.249 104.516C34.1624 104.726 34.0736 104.919 33.9824 105.097C33.8776 105.311 33.7409 105.542 33.5723 105.788C33.4082 106.034 33.2054 106.234 32.9639 106.389V106.451C33.251 106.587 33.4629 106.754 33.5996 106.95C33.7409 107.146 33.8434 107.428 33.9072 107.797C33.9163 107.857 33.9346 107.957 33.9619 108.098C33.9893 108.239 34.012 108.369 34.0303 108.488C34.0758 108.761 34.167 108.978 34.3037 109.137C34.445 109.292 34.6797 109.37 35.0078 109.37C35.1309 109.37 35.279 109.351 35.4521 109.315C35.6253 109.278 35.7507 109.247 35.8281 109.219L35.7188 109.677C35.2539 109.86 34.9167 109.976 34.707 110.026C34.502 110.081 34.2718 110.108 34.0166 110.108C33.7249 110.108 33.4697 110.024 33.251 109.855C33.0368 109.682 32.8955 109.386 32.8271 108.966C32.8044 108.83 32.7816 108.675 32.7588 108.501C32.736 108.328 32.7109 108.178 32.6836 108.05C32.597 107.585 32.4876 107.276 32.3555 107.121C32.2279 106.966 32.0023 106.888 31.6787 106.888C31.6787 106.888 31.6126 106.888 31.4805 106.888C31.3529 106.888 31.2708 106.888 31.2344 106.888L30.5303 109.992H29.252L30.2705 105.562C30.3024 105.416 30.3366 105.25 30.373 105.063C30.4095 104.872 30.4277 104.712 30.4277 104.584C30.4277 104.329 30.3844 104.161 30.2979 104.079C30.2158 103.992 30.0449 103.949 29.7852 103.949C29.6849 103.949 29.5573 103.967 29.4023 104.003C29.2474 104.04 29.1266 104.069 29.04 104.092L29.1426 103.655C29.498 103.495 29.8102 103.375 30.0791 103.292C30.3525 103.21 30.5713 103.169 30.7354 103.169C31.0999 103.169 31.3665 103.256 31.5352 103.429C31.7083 103.598 31.7949 103.839 31.7949 104.154C31.7949 104.227 31.7858 104.338 31.7676 104.489C31.7493 104.635 31.7197 104.796 31.6787 104.974L31.3574 106.375H31.7676C31.918 106.375 32.0638 106.35 32.2051 106.3C32.3509 106.246 32.4922 106.159 32.6289 106.041C32.7884 105.904 32.9206 105.749 33.0254 105.576C33.1348 105.403 33.2419 105.202 33.3467 104.974C33.4469 104.755 33.5495 104.55 33.6543 104.359C33.7591 104.167 33.9072 103.965 34.0986 103.75C34.2764 103.555 34.4746 103.406 34.6934 103.306C34.9167 103.201 35.1536 103.149 35.4043 103.149C35.6367 103.149 35.8236 103.22 35.9648 103.361C36.1107 103.498 36.1836 103.678 36.1836 103.901ZM40.8184 109.089H40.7705C40.6702 109.171 40.5495 109.276 40.4082 109.404C40.2715 109.527 40.1097 109.645 39.9229 109.759C39.7451 109.873 39.5514 109.971 39.3418 110.053C39.1322 110.14 38.9043 110.183 38.6582 110.183C37.9974 110.183 37.4779 109.946 37.0996 109.472C36.7259 108.998 36.5391 108.351 36.5391 107.531C36.5391 106.966 36.6439 106.417 36.8535 105.883C37.0632 105.35 37.3525 104.872 37.7217 104.448C38.0726 104.042 38.4896 103.716 38.9727 103.47C39.4557 103.22 39.9525 103.094 40.4629 103.094C40.7865 103.094 41.0941 103.138 41.3857 103.224C41.682 103.311 41.9144 103.409 42.083 103.518L43.334 103.197L43.416 103.299L42.377 107.708C42.3405 107.85 42.3018 108.023 42.2607 108.228C42.2243 108.429 42.2061 108.577 42.2061 108.672C42.2061 108.932 42.2607 109.108 42.3701 109.199C42.4795 109.29 42.6641 109.335 42.9238 109.335C43.0104 109.335 43.1335 109.322 43.293 109.294C43.4525 109.267 43.5755 109.237 43.6621 109.206L43.5596 109.643C43.1494 109.807 42.8441 109.926 42.6436 109.999C42.443 110.071 42.1992 110.108 41.9121 110.108C41.584 110.108 41.3242 110.012 41.1328 109.821C40.9414 109.629 40.8366 109.386 40.8184 109.089ZM41.7959 104.769C41.7959 104.619 41.7799 104.475 41.748 104.338C41.7161 104.202 41.6501 104.074 41.5498 103.956C41.4587 103.842 41.3333 103.75 41.1738 103.682C41.0143 103.614 40.8138 103.58 40.5723 103.58C40.2396 103.58 39.916 103.689 39.6016 103.908C39.2871 104.126 39.0046 104.42 38.7539 104.79C38.5169 105.136 38.3232 105.555 38.1729 106.047C38.0225 106.54 37.9473 107.039 37.9473 107.544C37.9473 107.822 37.9632 108.069 37.9951 108.283C38.027 108.497 38.0885 108.693 38.1797 108.871C38.2663 109.044 38.3916 109.178 38.5557 109.274C38.7197 109.37 38.9271 109.417 39.1777 109.417C39.4329 109.417 39.6995 109.347 39.9775 109.206C40.2601 109.06 40.5768 108.807 40.9277 108.447L41.7959 104.769ZM56.001 109.219L55.8984 109.657C55.4792 109.825 55.1442 109.942 54.8936 110.005C54.6429 110.074 54.4287 110.108 54.251 110.108C53.8864 110.108 53.613 110.014 53.4307 109.828C53.2484 109.636 53.1572 109.402 53.1572 109.124C53.1572 109.023 53.1663 108.914 53.1846 108.795C53.2028 108.672 53.2324 108.529 53.2734 108.365L53.9434 105.815C53.9935 105.619 54.0322 105.441 54.0596 105.282C54.0915 105.122 54.1074 104.995 54.1074 104.899C54.1074 104.594 54.0413 104.352 53.9092 104.174C53.777 103.997 53.5674 103.908 53.2803 103.908C52.9749 103.908 52.6742 103.981 52.3779 104.126C52.0863 104.268 51.7559 104.534 51.3867 104.926L50.1973 109.992H48.9258L49.999 105.425C50.0218 105.325 50.0423 105.22 50.0605 105.111C50.0833 104.997 50.0947 104.913 50.0947 104.858C50.0947 104.562 50.0195 104.329 49.8691 104.161C49.7233 103.992 49.5068 103.908 49.2197 103.908C48.96 103.908 48.6729 103.974 48.3584 104.106C48.0439 104.234 47.6794 104.523 47.2646 104.974L46.1094 109.992H44.8379L45.8564 105.562C45.8929 105.403 45.9271 105.232 45.959 105.049C45.9954 104.867 46.0137 104.712 46.0137 104.584C46.0137 104.32 45.9704 104.147 45.8838 104.065C45.7972 103.978 45.6286 103.935 45.3779 103.935C45.2777 103.935 45.1478 103.953 44.9883 103.99C44.8333 104.026 44.7126 104.056 44.626 104.079L44.7285 103.641C45.084 103.482 45.3984 103.363 45.6719 103.286C45.9453 103.208 46.18 103.169 46.376 103.169C46.7406 103.169 46.998 103.27 47.1484 103.47C47.3034 103.666 47.3854 103.935 47.3945 104.277H47.4355C47.9733 103.853 48.4154 103.55 48.7617 103.368C49.1081 103.185 49.5205 103.094 49.999 103.094C50.4046 103.094 50.7327 103.213 50.9834 103.45C51.2386 103.682 51.3822 103.976 51.4141 104.332H51.4414C51.929 103.926 52.362 103.618 52.7402 103.409C53.123 103.199 53.5674 103.094 54.0732 103.094C54.5107 103.094 54.8457 103.222 55.0781 103.477C55.3151 103.728 55.4336 104.058 55.4336 104.468C55.4336 104.55 55.4199 104.696 55.3926 104.906C55.3698 105.115 55.3311 105.323 55.2764 105.528L54.7021 107.722C54.6611 107.868 54.6224 108.037 54.5859 108.228C54.5495 108.415 54.5312 108.561 54.5312 108.666C54.5312 108.925 54.5859 109.103 54.6953 109.199C54.8047 109.29 54.9893 109.335 55.249 109.335C55.3356 109.335 55.4609 109.324 55.625 109.301C55.7891 109.278 55.9144 109.251 56.001 109.219ZM62.7344 104.516C62.7344 104.999 62.5817 105.414 62.2764 105.76C61.9756 106.107 61.5358 106.382 60.957 106.587C60.5332 106.742 60.1048 106.868 59.6719 106.963C59.2389 107.059 58.7604 107.139 58.2363 107.203C58.2363 107.923 58.3685 108.474 58.6328 108.857C58.9017 109.235 59.2936 109.424 59.8086 109.424C60.2643 109.424 60.6654 109.31 61.0117 109.083C61.3626 108.855 61.7067 108.515 62.0439 108.064L62.4336 108.351C62.069 108.907 61.6133 109.351 61.0664 109.684C60.5195 110.017 59.9521 110.183 59.3643 110.183C58.5576 110.183 57.9401 109.958 57.5117 109.506C57.0879 109.055 56.876 108.415 56.876 107.585C56.876 107.011 56.9648 106.464 57.1426 105.945C57.3249 105.421 57.5892 104.942 57.9355 104.509C58.2728 104.085 58.6852 103.744 59.1729 103.484C59.665 103.224 60.2074 103.094 60.7998 103.094C61.4561 103.094 61.9414 103.229 62.2559 103.498C62.5749 103.762 62.7344 104.101 62.7344 104.516ZM61.4766 104.345C61.4766 104.167 61.4515 104.028 61.4014 103.928C61.3512 103.823 61.2874 103.746 61.21 103.696C61.1279 103.641 61.0413 103.607 60.9502 103.593C60.859 103.58 60.7656 103.573 60.6699 103.573C60.123 103.573 59.6172 103.874 59.1523 104.475C58.6921 105.077 58.4004 105.826 58.2773 106.724C58.5964 106.679 58.9564 106.615 59.3574 106.533C59.7585 106.446 60.0911 106.334 60.3555 106.198C60.7337 106.002 61.014 105.751 61.1963 105.446C61.3831 105.136 61.4766 104.769 61.4766 104.345ZM69.167 104.646C69.167 105.033 69.0781 105.355 68.9004 105.61C68.7272 105.861 68.5153 106.056 68.2646 106.198C68.0094 106.344 67.7269 106.464 67.417 106.56C67.1071 106.656 66.8359 106.736 66.6035 106.799C66.3255 106.881 66.0885 106.959 65.8926 107.032C65.7012 107.1 65.5029 107.203 65.2979 107.339C65.1247 107.458 64.9834 107.608 64.874 107.791C64.7692 107.973 64.7168 108.189 64.7168 108.44C64.7168 108.713 64.8398 108.953 65.0859 109.158C65.332 109.358 65.6647 109.458 66.084 109.458C66.5443 109.458 66.9772 109.329 67.3828 109.069C67.793 108.809 68.1667 108.465 68.5039 108.037L68.8867 108.351C68.5085 108.93 68.0322 109.379 67.458 109.698C66.8883 110.017 66.2321 110.176 65.4893 110.176C64.833 110.176 64.3066 110.026 63.9102 109.725C63.5182 109.42 63.3223 109.032 63.3223 108.563C63.3223 108.189 63.4202 107.877 63.6162 107.626C63.8122 107.371 64.0605 107.164 64.3613 107.004C64.6439 106.854 64.9492 106.738 65.2773 106.656C65.6055 106.569 65.8447 106.501 65.9951 106.451C66.2822 106.364 66.5374 106.278 66.7607 106.191C66.9886 106.1 67.1755 105.993 67.3213 105.87C67.4808 105.733 67.597 105.583 67.6699 105.418C67.7474 105.254 67.7861 105.031 67.7861 104.749C67.7861 104.484 67.6768 104.263 67.458 104.085C67.2393 103.903 66.9339 103.812 66.542 103.812C66.1045 103.812 65.7012 103.946 65.332 104.215C64.9629 104.48 64.6165 104.819 64.293 105.234L63.876 104.926C64.2633 104.334 64.7282 103.88 65.2705 103.566C65.8128 103.251 66.4167 103.094 67.082 103.094C67.7064 103.094 68.21 103.238 68.5928 103.525C68.9756 103.807 69.167 104.181 69.167 104.646ZM76.4951 105.781C76.4951 106.319 76.404 106.856 76.2217 107.394C76.0394 107.932 75.7751 108.403 75.4287 108.809C75.0778 109.228 74.654 109.566 74.1572 109.821C73.665 110.071 73.0931 110.197 72.4414 110.197C71.6849 110.197 71.0697 109.953 70.5957 109.465C70.1263 108.978 69.8916 108.321 69.8916 107.497C69.8916 106.89 69.9919 106.325 70.1924 105.801C70.3929 105.277 70.6618 104.817 70.999 104.42C71.3408 104.024 71.7624 103.705 72.2637 103.463C72.7695 103.217 73.3164 103.094 73.9043 103.094C74.7155 103.094 75.349 103.343 75.8047 103.839C76.265 104.332 76.4951 104.979 76.4951 105.781ZM75.1006 105.521C75.1006 104.874 74.9844 104.389 74.752 104.065C74.5241 103.741 74.1937 103.58 73.7607 103.58C73.3825 103.58 73.0247 103.696 72.6875 103.928C72.3548 104.161 72.0677 104.539 71.8262 105.063C71.6393 105.459 71.5026 105.902 71.416 106.389C71.3294 106.872 71.2861 107.319 71.2861 107.729C71.2861 108.381 71.3978 108.875 71.6211 109.212C71.849 109.545 72.1908 109.711 72.6465 109.711C73.0521 109.711 73.4121 109.584 73.7266 109.329C74.041 109.073 74.2962 108.75 74.4922 108.358C74.6882 107.975 74.8385 107.538 74.9434 107.045C75.0482 106.549 75.1006 106.041 75.1006 105.521ZM84.5684 105.706C84.5684 106.316 84.4613 106.895 84.2471 107.442C84.0329 107.989 83.748 108.463 83.3926 108.864C82.9961 109.306 82.5654 109.634 82.1006 109.848C81.6403 110.062 81.1663 110.169 80.6787 110.169C80.2868 110.169 79.9655 110.122 79.7148 110.026C79.4642 109.93 79.2409 109.812 79.0449 109.67L78.6484 111.461C78.6211 111.575 78.5983 111.682 78.5801 111.783C78.5664 111.883 78.5596 111.963 78.5596 112.022C78.5596 112.145 78.6029 112.243 78.6895 112.316C78.7806 112.389 78.8831 112.441 78.9971 112.473C79.111 112.51 79.2386 112.537 79.3799 112.555C79.5212 112.573 79.6488 112.587 79.7627 112.596L79.667 113.027H75.9004L75.9961 112.596C76.1419 112.587 76.2786 112.576 76.4062 112.562C76.5339 112.548 76.6546 112.526 76.7686 112.494C76.9098 112.453 77.0215 112.375 77.1035 112.261C77.1901 112.152 77.2516 112.015 77.2881 111.851L78.7168 105.562C78.7533 105.389 78.7874 105.216 78.8193 105.042C78.8512 104.865 78.8672 104.712 78.8672 104.584C78.8672 104.329 78.8262 104.158 78.7441 104.072C78.6667 103.985 78.4958 103.942 78.2314 103.942C78.1312 103.942 78.0036 103.962 77.8486 104.003C77.6937 104.04 77.5729 104.069 77.4863 104.092L77.5889 103.655C77.9352 103.5 78.2474 103.381 78.5254 103.299C78.8034 103.213 79.0404 103.169 79.2363 103.169C79.5553 103.169 79.7969 103.251 79.9609 103.416C80.125 103.575 80.2275 103.798 80.2686 104.085H80.3232C80.6331 103.798 80.9635 103.561 81.3145 103.375C81.6699 103.188 82.0231 103.094 82.374 103.094C83.0667 103.094 83.6045 103.331 83.9873 103.805C84.3747 104.275 84.5684 104.908 84.5684 105.706ZM82.4355 108.529C82.668 108.155 82.8457 107.731 82.9688 107.257C83.0964 106.779 83.1602 106.273 83.1602 105.74C83.1602 105.498 83.1374 105.257 83.0918 105.015C83.0508 104.769 82.9824 104.566 82.8867 104.407C82.7865 104.229 82.6497 104.092 82.4766 103.997C82.3034 103.896 82.0755 103.846 81.793 103.846C81.5833 103.846 81.3509 103.91 81.0957 104.038C80.8451 104.165 80.5374 104.404 80.1729 104.755L79.2979 108.631C79.3298 108.891 79.4688 109.135 79.7148 109.363C79.9655 109.586 80.2663 109.698 80.6172 109.698C80.9772 109.698 81.3145 109.593 81.6289 109.383C81.9434 109.174 82.2122 108.889 82.4355 108.529ZM89.8799 109.035H89.8389C89.6292 109.203 89.4287 109.358 89.2373 109.5C89.0459 109.641 88.8568 109.759 88.6699 109.855C88.4512 109.964 88.2529 110.042 88.0752 110.087C87.8975 110.138 87.665 110.163 87.3779 110.163C86.9404 110.163 86.6009 110.037 86.3594 109.787C86.1178 109.531 85.9971 109.199 85.9971 108.789C85.9971 108.679 86.0062 108.549 86.0244 108.399C86.0426 108.249 86.0859 108.025 86.1543 107.729L86.6875 105.562C86.7331 105.361 86.7695 105.184 86.7969 105.029C86.8288 104.874 86.8447 104.726 86.8447 104.584C86.8447 104.329 86.8014 104.161 86.7148 104.079C86.6328 103.992 86.4619 103.949 86.2021 103.949C86.1019 103.949 85.9743 103.967 85.8193 104.003C85.6644 104.04 85.5436 104.069 85.457 104.092L85.5596 103.655C85.915 103.495 86.2272 103.375 86.4961 103.292C86.7695 103.21 86.9883 103.169 87.1523 103.169C87.5169 103.169 87.7835 103.256 87.9521 103.429C88.1253 103.598 88.2119 103.839 88.2119 104.154C88.2119 104.236 88.2028 104.347 88.1846 104.489C88.1663 104.63 88.139 104.771 88.1025 104.913L87.4941 107.442C87.4486 107.633 87.4098 107.813 87.3779 107.982C87.3506 108.146 87.3369 108.271 87.3369 108.358C87.3369 108.663 87.403 108.905 87.5352 109.083C87.6673 109.26 87.877 109.349 88.1641 109.349C88.4557 109.349 88.7542 109.274 89.0596 109.124C89.3695 108.969 89.6794 108.736 89.9893 108.426L91.1855 103.279L92.375 103.197L92.457 103.299L91.4385 107.702C91.3929 107.889 91.3519 108.078 91.3154 108.269C91.279 108.456 91.2607 108.588 91.2607 108.666C91.2607 108.925 91.3154 109.103 91.4248 109.199C91.5387 109.29 91.7256 109.335 91.9854 109.335C92.0719 109.335 92.195 109.322 92.3545 109.294C92.514 109.267 92.637 109.237 92.7236 109.206L92.6211 109.643C92.2428 109.798 91.9261 109.914 91.6709 109.992C91.4202 110.069 91.1878 110.108 90.9736 110.108C90.6045 110.108 90.3288 110.001 90.1465 109.787C89.9688 109.572 89.8799 109.322 89.8799 109.035ZM97.9326 109.035H97.8916C97.682 109.203 97.4814 109.358 97.29 109.5C97.0986 109.641 96.9095 109.759 96.7227 109.855C96.5039 109.964 96.3057 110.042 96.1279 110.087C95.9502 110.138 95.7178 110.163 95.4307 110.163C94.9932 110.163 94.6536 110.037 94.4121 109.787C94.1706 109.531 94.0498 109.199 94.0498 108.789C94.0498 108.679 94.0589 108.549 94.0771 108.399C94.0954 108.249 94.1387 108.025 94.207 107.729L94.7402 105.562C94.7858 105.361 94.8223 105.184 94.8496 105.029C94.8815 104.874 94.8975 104.726 94.8975 104.584C94.8975 104.329 94.8542 104.161 94.7676 104.079C94.6855 103.992 94.5146 103.949 94.2549 103.949C94.1546 103.949 94.027 103.967 93.8721 104.003C93.7171 104.04 93.5964 104.069 93.5098 104.092L93.6123 103.655C93.9678 103.495 94.2799 103.375 94.5488 103.292C94.8223 103.21 95.041 103.169 95.2051 103.169C95.5697 103.169 95.8363 103.256 96.0049 103.429C96.1781 103.598 96.2646 103.839 96.2646 104.154C96.2646 104.236 96.2555 104.347 96.2373 104.489C96.2191 104.63 96.1917 104.771 96.1553 104.913L95.5469 107.442C95.5013 107.633 95.4626 107.813 95.4307 107.982C95.4033 108.146 95.3896 108.271 95.3896 108.358C95.3896 108.663 95.4557 108.905 95.5879 109.083C95.7201 109.26 95.9297 109.349 96.2168 109.349C96.5085 109.349 96.807 109.274 97.1123 109.124C97.4222 108.969 97.7321 108.736 98.042 108.426L99.2383 103.279L100.428 103.197L100.51 103.299L99.4912 107.702C99.4456 107.889 99.4046 108.078 99.3682 108.269C99.3317 108.456 99.3135 108.588 99.3135 108.666C99.3135 108.925 99.3682 109.103 99.4775 109.199C99.5915 109.29 99.7783 109.335 100.038 109.335C100.125 109.335 100.248 109.322 100.407 109.294C100.567 109.267 100.69 109.237 100.776 109.206L100.674 109.643C100.296 109.798 99.9788 109.914 99.7236 109.992C99.473 110.069 99.2406 110.108 99.0264 110.108C98.6572 110.108 98.3815 110.001 98.1992 109.787C98.0215 109.572 97.9326 109.322 97.9326 109.035Z" fill="#EAEAEA"/>
</svg>
