<svg width="130" height="192" viewBox="0 0 130 192" fill="none" xmlns="http://www.w3.org/2000/svg">
<rect x="0.000976562" y="0.921875" width="129.999" height="190.665" fill="#F6F6F6"/>
<rect x="5.21289" y="113.21" width="109.183" height="61.5606" transform="rotate(-45 5.21289 113.21)" fill="#C4C4C4"/>
<path d="M42.9651 123.239L42.3431 123.861L38.1604 119.678L35.8467 121.992L40.0294 126.175L39.4107 126.793L34.7188 122.101L38.2732 118.547L42.9651 123.239ZM42.066 120.587C41.7244 120.245 41.4838 119.871 41.3442 119.465C41.2067 119.057 41.1831 118.66 41.2733 118.273C41.3657 117.884 41.5655 117.536 41.8727 117.229C42.3474 116.754 42.8953 116.535 43.5161 116.572C44.1391 116.606 44.7235 116.896 45.2691 117.442L45.311 117.484C45.6505 117.823 45.89 118.194 46.0296 118.595C46.1693 118.993 46.1929 119.388 46.1005 119.781C46.0103 120.172 45.8084 120.525 45.4947 120.838C45.0221 121.311 44.4743 121.53 43.8513 121.496C43.2304 121.459 42.6493 121.17 42.1079 120.629L42.066 120.587ZM42.7363 120.058C43.123 120.445 43.5226 120.666 43.935 120.722C44.3497 120.776 44.7074 120.652 45.0081 120.352C45.311 120.049 45.4335 119.69 45.3755 119.275C45.3153 118.859 45.0715 118.436 44.644 118.009C44.2616 117.626 43.8609 117.408 43.442 117.355C43.0231 117.297 42.6632 117.418 42.3625 117.719C42.0682 118.013 41.9479 118.368 42.0016 118.782C42.0553 119.197 42.3002 119.622 42.7363 120.058ZM47.0157 118.215L46.9674 117.754C46.8986 117.221 46.5796 116.638 46.0103 116.004L44.673 114.558L46.919 112.312L49.9192 115.312L50.3671 114.864L51.8784 116.375L51.2823 116.971L50.2575 115.946L47.8246 118.379L48.8493 119.404L48.2532 120L46.745 118.486L47.0157 118.215ZM47.7214 117.509L49.323 115.908L46.8739 113.459L45.8009 114.532L46.5968 115.399C47.2542 116.129 47.6291 116.833 47.7214 117.509ZM53.6669 112.537C53.5638 112.503 53.4134 112.408 53.2157 112.254C53.2265 112.819 53.0396 113.293 52.655 113.678C52.3113 114.022 51.9321 114.207 51.5175 114.235C51.1029 114.259 50.7463 114.121 50.4477 113.823C50.0846 113.46 49.9406 113.041 50.0158 112.566C50.091 112.087 50.3789 111.597 50.8795 111.097L51.4595 110.517L51.1856 110.243C50.9772 110.034 50.7495 109.931 50.5024 109.933C50.2532 109.933 50.0072 110.055 49.7645 110.297C49.5518 110.51 49.4272 110.742 49.3907 110.994C49.3542 111.245 49.4122 111.447 49.5647 111.599L48.9653 112.199C48.7913 112.025 48.685 111.796 48.6463 111.512C48.6076 111.224 48.6463 110.928 48.7623 110.623C48.8805 110.316 49.0663 110.035 49.3198 109.782C49.7215 109.38 50.1372 109.166 50.5669 109.141C50.9944 109.113 51.3886 109.271 51.7495 109.614L53.3543 111.219C53.6744 111.539 53.9698 111.753 54.2405 111.86L54.2921 111.912L53.6669 112.537ZM52.2232 113.072C52.4101 112.885 52.539 112.66 52.6099 112.395C52.6808 112.131 52.6765 111.884 52.597 111.654L51.8816 110.939L51.4144 111.406C50.684 112.136 50.5325 112.715 50.96 113.143C51.1469 113.33 51.3553 113.414 51.5852 113.394C51.8151 113.375 52.0277 113.268 52.2232 113.072ZM56.3448 106.45C56.8754 106.98 57.1815 107.529 57.2632 108.097C57.3448 108.664 57.1783 109.155 56.7637 109.569C56.3405 109.992 55.8732 110.191 55.3619 110.165L57.0408 111.844L56.4447 112.44L51.6174 107.613L52.162 107.069L52.5777 107.426C52.5197 106.883 52.7066 106.395 53.1384 105.963C53.5573 105.544 54.0461 105.371 54.6046 105.444C55.1653 105.515 55.7271 105.832 56.29 106.395L56.3448 106.45ZM55.6809 106.978C55.2878 106.585 54.8936 106.359 54.4983 106.298C54.103 106.238 53.7593 106.354 53.4671 106.646C53.1062 107.007 52.9955 107.438 53.1352 107.939L54.8012 109.605C55.2975 109.744 55.7293 109.63 56.0966 109.263C56.3824 108.977 56.4962 108.638 56.4382 108.245C56.3802 107.847 56.1278 107.425 55.6809 106.978ZM56.8765 105.776C56.5349 105.435 56.2943 105.061 56.1546 104.655C56.0171 104.247 55.9935 103.849 56.0837 103.463C56.1761 103.074 56.3759 102.726 56.6831 102.419C57.1579 101.944 57.7057 101.725 58.3266 101.761C58.9496 101.796 59.5339 102.086 60.0796 102.631L60.1215 102.673C60.4609 103.013 60.7005 103.383 60.8401 103.785C60.9797 104.182 61.0034 104.578 60.911 104.971C60.8208 105.362 60.6188 105.714 60.3052 106.028C59.8325 106.5 59.2847 106.719 58.6617 106.685C58.0409 106.649 57.4597 106.36 56.9184 105.818L56.8765 105.776ZM57.5467 105.248C57.9334 105.635 58.333 105.856 58.7455 105.912C59.1601 105.965 59.5178 105.842 59.8186 105.541C60.1215 105.238 60.2439 104.879 60.1859 104.465C60.1258 104.048 59.882 103.626 59.4544 103.198C59.072 102.816 58.6714 102.598 58.2525 102.544C57.8335 102.486 57.4737 102.608 57.1729 102.908C56.8786 103.203 56.7583 103.557 56.812 103.972C56.8657 104.386 57.1106 104.812 57.5467 105.248ZM65.2065 100.997L64.6072 101.597L63.344 100.334C63.1506 100.664 62.9164 100.967 62.6415 101.242C62.2054 101.678 61.7607 101.9 61.3074 101.906C60.8562 101.91 60.4223 101.709 60.0055 101.3L58.9646 100.26L59.5608 99.6634L60.621 100.724C61.1516 101.233 61.6618 101.242 62.1516 100.753C62.4266 100.478 62.6608 100.175 62.8541 99.8438L61.1205 98.1101L61.7198 97.5107L65.2065 100.997ZM69.0123 97.1917L68.4161 97.7879L66.9273 96.2991L65.3258 97.9007L66.8146 99.3894L66.2152 99.9888L62.7285 96.5021L63.3278 95.9027L64.8392 97.4141L66.4407 95.8125L64.9294 94.3012L65.5256 93.705L69.0123 97.1917ZM72.1252 94.0788C72.0221 94.0444 71.8717 93.9499 71.674 93.7952C71.6848 94.3602 71.4979 94.835 71.1133 95.2196C70.7696 95.5633 70.3904 95.7491 69.9758 95.7771C69.5612 95.8007 69.2046 95.6632 68.9059 95.3646C68.5429 95.0015 68.3989 94.5826 68.4741 94.1078C68.5493 93.6287 68.8372 93.1389 69.3377 92.6384L69.9178 92.0583L69.6439 91.7844C69.4355 91.576 69.2078 91.4729 68.9607 91.4751C68.7115 91.4751 68.4655 91.5964 68.2228 91.8392C68.0101 92.0519 67.8855 92.2839 67.849 92.5353C67.8124 92.7866 67.8705 92.9885 68.023 93.1411L67.4236 93.7405C67.2496 93.5664 67.1432 93.3376 67.1046 93.0541C67.0659 92.7662 67.1046 92.4697 67.2206 92.1647C67.3387 91.8575 67.5246 91.5771 67.7781 91.3236C68.1798 90.9219 68.5955 90.7081 69.0252 90.6823C69.4527 90.6544 69.8469 90.8123 70.2078 91.156L71.8126 92.7608C72.1327 93.0809 72.4281 93.2947 72.6988 93.4021L72.7503 93.4537L72.1252 94.0788ZM70.6815 94.6137C70.8684 94.4268 70.9973 94.2013 71.0682 93.937C71.1391 93.6728 71.1348 93.4257 71.0553 93.1959L70.3399 92.4805L69.8727 92.9477C69.1422 93.6782 68.9908 94.2571 69.4183 94.6846C69.6052 94.8715 69.8136 94.9553 70.0435 94.936C70.2733 94.9167 70.486 94.8092 70.6815 94.6137ZM72.7407 86.4899L76.2274 89.9766L75.628 90.576L74.2713 89.2193L73.3723 90.1184L73.9072 92.2968L73.2627 92.9413L72.6923 90.6179C72.3873 90.7597 72.0897 90.8059 71.7997 90.7565C71.5097 90.7027 71.2508 90.562 71.0231 90.3343C70.7051 90.0164 70.5687 89.6415 70.6138 89.2097C70.6568 88.7757 70.877 88.3579 71.2744 87.9561L72.7407 86.4899ZM71.6289 89.7414C71.7986 89.9111 71.9941 89.9906 72.2154 89.9798C72.4345 89.967 72.6408 89.866 72.8341 89.6769L73.7815 88.7295L72.6247 87.5727L71.7675 88.4298C71.5462 88.6511 71.4248 88.8821 71.4033 89.1227C71.3797 89.3611 71.4549 89.5674 71.6289 89.7414ZM78.4219 84.811L77.9868 85.246L79.4724 86.7316L78.873 87.331L75.3863 83.8443L75.9857 83.2449L77.4616 84.7208L77.8515 84.3309L77.5486 81.682L78.2704 80.9602L78.5669 84.0151L81.8731 84.3309L81.1159 85.0881L78.4219 84.811ZM84.5381 81.6659C84.435 81.6315 84.2846 81.537 84.087 81.3823C84.0977 81.9473 83.9108 82.4221 83.5263 82.8066C83.1825 83.1504 82.8034 83.3362 82.3887 83.3641C81.9741 83.3877 81.6175 83.2503 81.3189 82.9516C80.9558 82.5886 80.8119 82.1697 80.8871 81.6949C80.9623 81.2158 81.2501 80.726 81.7507 80.2254L82.3307 79.6454L82.0568 79.3715C81.8484 79.1631 81.6207 79.06 81.3737 79.0621C81.1245 79.0621 80.8785 79.1835 80.6357 79.4263C80.423 79.6389 80.2984 79.871 80.2619 80.1223C80.2254 80.3737 80.2834 80.5756 80.4359 80.7281L79.8365 81.3275C79.6625 81.1535 79.5562 80.9247 79.5175 80.6411C79.4788 80.3533 79.5175 80.0568 79.6335 79.7517C79.7517 79.4445 79.9375 79.1642 80.191 78.9107C80.5927 78.5089 81.0084 78.2952 81.4381 78.2694C81.8656 78.2415 82.2598 78.3994 82.6208 78.7431L84.2255 80.3479C84.5456 80.668 84.841 80.8817 85.1117 80.9892L85.1633 81.0407L84.5381 81.6659ZM83.0945 82.2008C83.2814 82.0139 83.4103 81.7883 83.4811 81.5241C83.552 81.2598 83.5477 81.0128 83.4683 80.7829L82.7529 80.0675L82.2856 80.5348C81.5552 81.2652 81.4037 81.8442 81.8312 82.2717C82.0181 82.4586 82.2265 82.5424 82.4564 82.5231C82.6863 82.5037 82.899 82.3963 83.0945 82.2008ZM87.216 75.5786C87.7466 76.1093 88.0528 76.6582 88.1344 77.2253C88.216 77.7925 88.0495 78.2834 87.6349 78.698C87.2117 79.1212 86.7444 79.3199 86.2331 79.2941L87.912 80.973L87.3159 81.5692L82.4886 76.742L83.0332 76.1974L83.4489 76.555C83.3909 76.0115 83.5778 75.5239 84.0096 75.092C84.4286 74.6731 84.9173 74.5002 85.4759 74.5732C86.0366 74.6441 86.5983 74.961 87.1612 75.5239L87.216 75.5786ZM86.5522 76.1071C86.159 75.714 85.7648 75.4873 85.3695 75.4272C84.9742 75.367 84.6305 75.483 84.3383 75.7752C83.9774 76.1361 83.8668 76.5669 84.0064 77.0674L85.6724 78.7334C86.1687 78.8731 86.6005 78.7592 86.9679 78.3919C87.2536 78.1061 87.3674 77.7667 87.3094 77.3736C87.2514 76.9761 86.999 76.554 86.5522 76.1071ZM89.0109 71.1864L87.8411 72.3562L90.8445 75.3595L90.2483 75.9557L87.245 72.9523L86.0978 74.0995L85.6144 73.6162L88.5275 70.703L89.0109 71.1864ZM94.6953 71.5087C94.5922 71.4743 94.4418 71.3798 94.2442 71.2251C94.2549 71.7901 94.068 72.2649 93.6835 72.6494C93.3397 72.9931 92.9606 73.179 92.5459 73.2069C92.1313 73.2305 91.7747 73.093 91.4761 72.7944C91.113 72.4314 90.9691 72.0124 91.0443 71.5377C91.1195 71.0586 91.4073 70.5688 91.9079 70.0682L92.4879 69.4882L92.214 69.2143C92.0056 69.0059 91.7779 68.9028 91.5309 68.9049C91.2817 68.9049 91.0357 69.0263 90.7929 69.269C90.5802 69.4817 90.4556 69.7137 90.4191 69.9651C90.3826 70.2165 90.4406 70.4184 90.5931 70.5709L89.9938 71.1703C89.8197 70.9963 89.7134 70.7675 89.6747 70.4839C89.6361 70.196 89.6747 69.8996 89.7907 69.5945C89.9089 69.2873 90.0947 69.007 90.3482 68.7535C90.75 68.3517 91.1657 68.138 91.5953 68.1122C92.0228 68.0843 92.417 68.2422 92.778 68.5859L94.3828 70.1907C94.7029 70.5108 94.9982 70.7245 95.2689 70.8319L95.3205 70.8835L94.6953 71.5087ZM93.2517 72.0436C93.4386 71.8567 93.5675 71.6311 93.6384 71.3669C93.7093 71.1026 93.705 70.8556 93.6255 70.6257L92.9101 69.9103L92.4428 70.3776C91.7124 71.108 91.5609 71.687 91.9885 72.1145C92.1754 72.3014 92.3838 72.3852 92.6136 72.3658C92.8435 72.3465 93.0562 72.2391 93.2517 72.0436Z" fill="white"/>
</svg>
