<svg width="206" height="116" viewBox="0 0 206 116" fill="none" xmlns="http://www.w3.org/2000/svg">
<rect x="0.234863" y="0.983398" width="205.53" height="114.32" rx="6" fill="#C4C4C4"/>
<path d="M36.2585 64.6436H34.5623V53.2354H28.2517V64.6436H26.5642V51.8467H36.2585V64.6436ZM38.6492 59.8008C38.6492 58.8691 38.8308 58.0312 39.1941 57.2871C39.5632 56.543 40.073 55.9688 40.7234 55.5645C41.3796 55.1602 42.1267 54.958 42.9646 54.958C44.2595 54.958 45.3054 55.4062 46.1023 56.3027C46.905 57.1992 47.3064 58.3916 47.3064 59.8799V59.9941C47.3064 60.9199 47.1277 61.752 46.7703 62.4902C46.4187 63.2227 45.9119 63.7939 45.2498 64.2041C44.5935 64.6143 43.8376 64.8193 42.9822 64.8193C41.6931 64.8193 40.6472 64.3711 39.8445 63.4746C39.0476 62.5781 38.6492 61.3916 38.6492 59.915V59.8008ZM40.2839 59.9941C40.2839 61.0488 40.5271 61.8955 41.0134 62.5342C41.5056 63.1729 42.1619 63.4922 42.9822 63.4922C43.8083 63.4922 44.4646 63.1699 44.9509 62.5254C45.4373 61.875 45.6804 60.9668 45.6804 59.8008C45.6804 58.7578 45.4314 57.9141 44.9333 57.2695C44.4412 56.6191 43.7849 56.2939 42.9646 56.2939C42.1619 56.2939 41.5144 56.6133 41.0222 57.252C40.53 57.8906 40.2839 58.8047 40.2839 59.9941ZM48.6335 63.3164L49.196 62.6221C49.8289 61.8018 50.1892 60.5713 50.2771 58.9307L50.4265 55.1338H56.5525V63.3164H57.7742V67.4385H56.1482V64.6436H49.5125V67.4385H47.8865L47.8953 63.3164H48.6335ZM50.5583 63.3164H54.9265V56.6367H51.9998L51.9031 58.9043C51.8035 60.7969 51.3552 62.2676 50.5583 63.3164ZM65.447 64.6436C65.3533 64.4561 65.2771 64.1221 65.2185 63.6416C64.4626 64.4268 63.5603 64.8193 62.5115 64.8193C61.574 64.8193 60.8035 64.5557 60.2 64.0283C59.6023 63.4951 59.3035 62.8213 59.3035 62.0068C59.3035 61.0166 59.6785 60.249 60.4285 59.7041C61.1843 59.1533 62.2449 58.8779 63.6101 58.8779H65.1921V58.1309C65.1921 57.5625 65.0222 57.1113 64.6824 56.7773C64.3425 56.4375 63.8416 56.2676 63.1794 56.2676C62.5994 56.2676 62.113 56.4141 61.7205 56.707C61.3279 57 61.1316 57.3545 61.1316 57.7705H59.4968C59.4968 57.2959 59.6638 56.8389 59.9978 56.3994C60.3376 55.9541 60.7947 55.6025 61.3689 55.3447C61.949 55.0869 62.5847 54.958 63.2761 54.958C64.3718 54.958 65.2302 55.2334 65.8513 55.7842C66.4724 56.3291 66.7947 57.082 66.8181 58.043V62.4199C66.8181 63.293 66.9294 63.9873 67.1521 64.5029V64.6436H65.447ZM62.7488 63.4043C63.2585 63.4043 63.7419 63.2725 64.199 63.0088C64.656 62.7451 64.9871 62.4023 65.1921 61.9805V60.0293H63.9177C61.9255 60.0293 60.9294 60.6123 60.9294 61.7783C60.9294 62.2881 61.0994 62.6865 61.4392 62.9736C61.7791 63.2607 62.2156 63.4043 62.7488 63.4043ZM77.4001 59.9941C77.4001 61.4414 77.0691 62.6074 76.407 63.4922C75.7449 64.377 74.8484 64.8193 73.7175 64.8193C72.5632 64.8193 71.655 64.4531 70.9929 63.7207V68.2998H69.3669V55.1338H70.8523L70.9314 56.1885C71.5935 55.3682 72.5134 54.958 73.6912 54.958C74.8337 54.958 75.7361 55.3887 76.3982 56.25C77.0662 57.1113 77.4001 58.3096 77.4001 59.8447V59.9941ZM75.7742 59.8096C75.7742 58.7373 75.5457 57.8906 75.0886 57.2695C74.6316 56.6484 74.0046 56.3379 73.2078 56.3379C72.2234 56.3379 71.4851 56.7744 70.9929 57.6475V62.1914C71.4792 63.0586 72.2234 63.4922 73.2253 63.4922C74.0046 63.4922 74.6228 63.1846 75.0798 62.5693C75.5427 61.9482 75.7742 61.0283 75.7742 59.8096ZM79.0437 59.8008C79.0437 58.8691 79.2253 58.0312 79.5886 57.2871C79.9578 56.543 80.4675 55.9688 81.1179 55.5645C81.7742 55.1602 82.5212 54.958 83.3591 54.958C84.6541 54.958 85.7 55.4062 86.4968 56.3027C87.2996 57.1992 87.7009 58.3916 87.7009 59.8799V59.9941C87.7009 60.9199 87.5222 61.752 87.1648 62.4902C86.8132 63.2227 86.3064 63.7939 85.6443 64.2041C84.988 64.6143 84.2322 64.8193 83.3767 64.8193C82.0876 64.8193 81.0417 64.3711 80.239 63.4746C79.4421 62.5781 79.0437 61.3916 79.0437 59.915V59.8008ZM80.6785 59.9941C80.6785 61.0488 80.9216 61.8955 81.408 62.5342C81.9001 63.1729 82.5564 63.4922 83.3767 63.4922C84.2029 63.4922 84.8591 63.1699 85.3455 62.5254C85.8318 61.875 86.075 60.9668 86.075 59.8008C86.075 58.7578 85.8259 57.9141 85.3279 57.2695C84.8357 56.6191 84.1794 56.2939 83.3591 56.2939C82.5564 56.2939 81.9089 56.6133 81.4167 57.252C80.9246 57.8906 80.6785 58.8047 80.6785 59.9941ZM96.9207 64.6436H95.2859V61.1982C94.571 61.3857 93.8386 61.4795 93.0886 61.4795C91.8992 61.4795 90.991 61.1748 90.364 60.5654C89.7429 59.9561 89.4265 59.0889 89.4148 57.9639V55.125H91.0408V58.0166C91.0701 59.4346 91.7527 60.1436 93.0886 60.1436C93.8386 60.1436 94.571 60.0498 95.2859 59.8623V55.1338H96.9207V64.6436ZM107.301 64.6436H105.675V60.583H101.306V64.6436H99.6716V55.1338H101.306V59.2559H105.675V55.1338H107.301V64.6436ZM115.791 64.6436C115.697 64.4561 115.621 64.1221 115.562 63.6416C114.806 64.4268 113.904 64.8193 112.855 64.8193C111.918 64.8193 111.147 64.5557 110.544 64.0283C109.946 63.4951 109.647 62.8213 109.647 62.0068C109.647 61.0166 110.022 60.249 110.772 59.7041C111.528 59.1533 112.589 58.8779 113.954 58.8779H115.536V58.1309C115.536 57.5625 115.366 57.1113 115.026 56.7773C114.686 56.4375 114.185 56.2676 113.523 56.2676C112.943 56.2676 112.457 56.4141 112.064 56.707C111.672 57 111.475 57.3545 111.475 57.7705H109.841C109.841 57.2959 110.008 56.8389 110.342 56.3994C110.681 55.9541 111.138 55.6025 111.713 55.3447C112.293 55.0869 112.928 54.958 113.62 54.958C114.716 54.958 115.574 55.2334 116.195 55.7842C116.816 56.3291 117.138 57.082 117.162 58.043V62.4199C117.162 63.293 117.273 63.9873 117.496 64.5029V64.6436H115.791ZM113.093 63.4043C113.602 63.4043 114.086 63.2725 114.543 63.0088C115 62.7451 115.331 62.4023 115.536 61.9805V60.0293H114.261C112.269 60.0293 111.273 60.6123 111.273 61.7783C111.273 62.2881 111.443 62.6865 111.783 62.9736C112.123 63.2607 112.559 63.4043 113.093 63.4043ZM126.979 55.1338V64.6436H125.344V60.9434H122.892L120.651 64.6436H118.893L121.284 60.6973C120.675 60.4746 120.206 60.1318 119.878 59.6689C119.555 59.2002 119.394 58.6553 119.394 58.0342C119.394 57.167 119.719 56.4697 120.37 55.9424C121.02 55.4092 121.89 55.1396 122.98 55.1338H126.979ZM121.029 58.0518C121.029 58.5146 121.187 58.8896 121.504 59.1768C121.82 59.458 122.239 59.6016 122.76 59.6074H125.344V56.4521H123.007C122.403 56.4521 121.923 56.6016 121.565 56.9004C121.208 57.1934 121.029 57.5771 121.029 58.0518ZM137.016 60.5918H135.83V64.6436H134.195V55.1338H135.83V59.1592H136.893L140.093 55.1338H142.061L138.3 59.7041L142.378 64.6436H140.312L137.016 60.5918ZM149.646 64.6436C149.552 64.4561 149.476 64.1221 149.418 63.6416C148.662 64.4268 147.76 64.8193 146.711 64.8193C145.773 64.8193 145.003 64.5557 144.399 64.0283C143.802 63.4951 143.503 62.8213 143.503 62.0068C143.503 61.0166 143.878 60.249 144.628 59.7041C145.384 59.1533 146.444 58.8779 147.809 58.8779H149.391V58.1309C149.391 57.5625 149.221 57.1113 148.882 56.7773C148.542 56.4375 148.041 56.2676 147.379 56.2676C146.799 56.2676 146.312 56.4141 145.92 56.707C145.527 57 145.331 57.3545 145.331 57.7705H143.696C143.696 57.2959 143.863 56.8389 144.197 56.3994C144.537 55.9541 144.994 55.6025 145.568 55.3447C146.148 55.0869 146.784 54.958 147.475 54.958C148.571 54.958 149.429 55.2334 150.051 55.7842C150.672 56.3291 150.994 57.082 151.017 58.043V62.4199C151.017 63.293 151.129 63.9873 151.351 64.5029V64.6436H149.646ZM146.948 63.4043C147.458 63.4043 147.941 63.2725 148.398 63.0088C148.855 62.7451 149.186 62.4023 149.391 61.9805V60.0293H148.117C146.125 60.0293 145.129 60.6123 145.129 61.7783C145.129 62.2881 145.299 62.6865 145.638 62.9736C145.978 63.2607 146.415 63.4043 146.948 63.4043ZM161.599 59.9941C161.599 61.4414 161.268 62.6074 160.606 63.4922C159.944 64.377 159.048 64.8193 157.917 64.8193C156.762 64.8193 155.854 64.4531 155.192 63.7207V68.2998H153.566V55.1338H155.052L155.131 56.1885C155.793 55.3682 156.713 54.958 157.89 54.958C159.033 54.958 159.935 55.3887 160.597 56.25C161.265 57.1113 161.599 58.3096 161.599 59.8447V59.9941ZM159.973 59.8096C159.973 58.7373 159.745 57.8906 159.288 57.2695C158.831 56.6484 158.204 56.3379 157.407 56.3379C156.423 56.3379 155.684 56.7744 155.192 57.6475V62.1914C155.678 63.0586 156.423 63.4922 157.425 63.4922C158.204 63.4922 158.822 63.1846 159.279 62.5693C159.742 61.9482 159.973 61.0283 159.973 59.8096ZM170.037 56.4521H166.846V64.6436H165.22V56.4521H162.092V55.1338H170.037V56.4521ZM177.349 64.6436C177.256 64.4561 177.179 64.1221 177.121 63.6416C176.365 64.4268 175.463 64.8193 174.414 64.8193C173.476 64.8193 172.706 64.5557 172.102 64.0283C171.505 63.4951 171.206 62.8213 171.206 62.0068C171.206 61.0166 171.581 60.249 172.331 59.7041C173.087 59.1533 174.147 58.8779 175.512 58.8779H177.094V58.1309C177.094 57.5625 176.925 57.1113 176.585 56.7773C176.245 56.4375 175.744 56.2676 175.082 56.2676C174.502 56.2676 174.015 56.4141 173.623 56.707C173.23 57 173.034 57.3545 173.034 57.7705H171.399C171.399 57.2959 171.566 56.8389 171.9 56.3994C172.24 55.9541 172.697 55.6025 173.271 55.3447C173.851 55.0869 174.487 54.958 175.178 54.958C176.274 54.958 177.133 55.2334 177.754 55.7842C178.375 56.3291 178.697 57.082 178.72 58.043V62.4199C178.72 63.293 178.832 63.9873 179.054 64.5029V64.6436H177.349ZM174.651 63.4043C175.161 63.4043 175.644 63.2725 176.101 63.0088C176.558 62.7451 176.889 62.4023 177.094 61.9805V60.0293H175.82C173.828 60.0293 172.832 60.6123 172.832 61.7783C172.832 62.2881 173.002 62.6865 173.342 62.9736C173.681 63.2607 174.118 63.4043 174.651 63.4043Z" fill="white"/>
</svg>
