<svg width="95" height="21" viewBox="0 0 95 21" fill="none" xmlns="http://www.w3.org/2000/svg">
<rect width="95" height="20.2" fill="#C4C4C4"/>
<path d="M12.26 6.2001H13.46V13.5561H18.008V14.6001H12.26V6.2001ZM21.859 14.6721C21.227 14.6721 20.659 14.5321 20.155 14.2521C19.651 13.9721 19.255 13.5881 18.967 13.1001C18.687 12.6041 18.547 12.0441 18.547 11.4201C18.547 10.7961 18.687 10.2401 18.967 9.7521C19.255 9.2561 19.651 8.8721 20.155 8.6001C20.659 8.3201 21.227 8.1801 21.859 8.1801C22.491 8.1801 23.055 8.3201 23.551 8.6001C24.055 8.8721 24.447 9.2561 24.727 9.7521C25.015 10.2401 25.159 10.7961 25.159 11.4201C25.159 12.0441 25.015 12.6041 24.727 13.1001C24.447 13.5881 24.055 13.9721 23.551 14.2521C23.055 14.5321 22.491 14.6721 21.859 14.6721ZM21.859 13.6641C22.267 13.6641 22.631 13.5721 22.951 13.3881C23.279 13.1961 23.535 12.9321 23.719 12.5961C23.903 12.2521 23.995 11.8601 23.995 11.4201C23.995 10.9801 23.903 10.5921 23.719 10.2561C23.535 9.9121 23.279 9.6481 22.951 9.4641C22.631 9.2801 22.267 9.1881 21.859 9.1881C21.451 9.1881 21.083 9.2801 20.755 9.4641C20.435 9.6481 20.179 9.9121 19.987 10.2561C19.803 10.5921 19.711 10.9801 19.711 11.4201C19.711 11.8601 19.803 12.2521 19.987 12.5961C20.179 12.9321 20.435 13.1961 20.755 13.3881C21.083 13.5721 21.451 13.6641 21.859 13.6641ZM32.8362 8.2401V13.7361C32.8362 14.8481 32.5602 15.6681 32.0082 16.1961C31.4562 16.7321 30.6322 17.0001 29.5362 17.0001C28.9362 17.0001 28.3642 16.9161 27.8202 16.7481C27.2762 16.5881 26.8362 16.3561 26.5002 16.0521L27.0522 15.1641C27.3482 15.4201 27.7122 15.6201 28.1442 15.7641C28.5842 15.9161 29.0362 15.9921 29.5002 15.9921C30.2442 15.9921 30.7922 15.8161 31.1442 15.4641C31.5042 15.1121 31.6842 14.5761 31.6842 13.8561V13.3521C31.4122 13.6801 31.0762 13.9281 30.6762 14.0961C30.2842 14.2561 29.8562 14.3361 29.3922 14.3361C28.7842 14.3361 28.2322 14.2081 27.7362 13.9521C27.2482 13.6881 26.8642 13.3241 26.5842 12.8601C26.3042 12.3881 26.1642 11.8521 26.1642 11.2521C26.1642 10.6521 26.3042 10.1201 26.5842 9.6561C26.8642 9.1841 27.2482 8.8201 27.7362 8.5641C28.2322 8.3081 28.7842 8.1801 29.3922 8.1801C29.8722 8.1801 30.3162 8.2681 30.7242 8.4441C31.1402 8.6201 31.4802 8.8801 31.7442 9.2241V8.2401H32.8362ZM29.5242 13.3281C29.9402 13.3281 30.3122 13.2401 30.6402 13.0641C30.9762 12.8881 31.2362 12.6441 31.4202 12.3321C31.6122 12.0121 31.7082 11.6521 31.7082 11.2521C31.7082 10.6361 31.5042 10.1401 31.0962 9.7641C30.6882 9.3801 30.1642 9.1881 29.5242 9.1881C28.8762 9.1881 28.3482 9.3801 27.9402 9.7641C27.5322 10.1401 27.3282 10.6361 27.3282 11.2521C27.3282 11.6521 27.4202 12.0121 27.6042 12.3321C27.7962 12.6441 28.0562 12.8881 28.3842 13.0641C28.7202 13.2401 29.1002 13.3281 29.5242 13.3281ZM37.7613 14.6721C37.1293 14.6721 36.5613 14.5321 36.0573 14.2521C35.5533 13.9721 35.1573 13.5881 34.8693 13.1001C34.5893 12.6041 34.4493 12.0441 34.4493 11.4201C34.4493 10.7961 34.5893 10.2401 34.8693 9.7521C35.1573 9.2561 35.5533 8.8721 36.0573 8.6001C36.5613 8.3201 37.1293 8.1801 37.7613 8.1801C38.3933 8.1801 38.9573 8.3201 39.4533 8.6001C39.9573 8.8721 40.3493 9.2561 40.6293 9.7521C40.9173 10.2401 41.0613 10.7961 41.0613 11.4201C41.0613 12.0441 40.9173 12.6041 40.6293 13.1001C40.3493 13.5881 39.9573 13.9721 39.4533 14.2521C38.9573 14.5321 38.3933 14.6721 37.7613 14.6721ZM37.7613 13.6641C38.1693 13.6641 38.5333 13.5721 38.8533 13.3881C39.1813 13.1961 39.4373 12.9321 39.6213 12.5961C39.8053 12.2521 39.8973 11.8601 39.8973 11.4201C39.8973 10.9801 39.8053 10.5921 39.6213 10.2561C39.4373 9.9121 39.1813 9.6481 38.8533 9.4641C38.5333 9.2801 38.1693 9.1881 37.7613 9.1881C37.3533 9.1881 36.9853 9.2801 36.6573 9.4641C36.3373 9.6481 36.0813 9.9121 35.8893 10.2561C35.7053 10.5921 35.6133 10.9801 35.6133 11.4201C35.6133 11.8601 35.7053 12.2521 35.8893 12.5961C36.0813 12.9321 36.3373 13.1961 36.6573 13.3881C36.9853 13.5721 37.3533 13.6641 37.7613 13.6641ZM47.7012 14.6721C47.1812 14.6721 46.6812 14.6041 46.2012 14.4681C45.7212 14.3241 45.3452 14.1441 45.0732 13.9281L45.5532 13.0161C45.8332 13.2161 46.1732 13.3761 46.5732 13.4961C46.9732 13.6161 47.3772 13.6761 47.7852 13.6761C48.7932 13.6761 49.2972 13.3881 49.2972 12.8121C49.2972 12.6201 49.2292 12.4681 49.0932 12.3561C48.9572 12.2441 48.7852 12.1641 48.5772 12.1161C48.3772 12.0601 48.0892 12.0001 47.7132 11.9361C47.2012 11.8561 46.7812 11.7641 46.4532 11.6601C46.1332 11.5561 45.8572 11.3801 45.6252 11.1321C45.3932 10.8841 45.2772 10.5361 45.2772 10.0881C45.2772 9.5121 45.5172 9.0521 45.9972 8.7081C46.4772 8.3561 47.1212 8.1801 47.9292 8.1801C48.3532 8.1801 48.7772 8.2321 49.2012 8.3361C49.6252 8.4401 49.9732 8.5801 50.2452 8.7561L49.7532 9.6681C49.2332 9.3321 48.6212 9.1641 47.9172 9.1641C47.4292 9.1641 47.0572 9.2441 46.8012 9.4041C46.5452 9.5641 46.4172 9.7761 46.4172 10.0401C46.4172 10.2481 46.4892 10.4121 46.6332 10.5321C46.7772 10.6521 46.9532 10.7401 47.1612 10.7961C47.3772 10.8521 47.6772 10.9161 48.0612 10.9881C48.5732 11.0761 48.9852 11.1721 49.2972 11.2761C49.6172 11.3721 49.8892 11.5401 50.1132 11.7801C50.3372 12.0201 50.4492 12.3561 50.4492 12.7881C50.4492 13.3641 50.2012 13.8241 49.7052 14.1681C49.2172 14.5041 48.5492 14.6721 47.7012 14.6721ZM55.4649 14.2281C55.2969 14.3721 55.0889 14.4841 54.8409 14.5641C54.5929 14.6361 54.3369 14.6721 54.0729 14.6721C53.4329 14.6721 52.9369 14.5001 52.5849 14.1561C52.2329 13.8121 52.0569 13.3201 52.0569 12.6801V9.1881H50.9769V8.2401H52.0569V6.8481H53.2089V8.2401H55.0329V9.1881H53.2089V12.6321C53.2089 12.9761 53.2929 13.2401 53.4609 13.4241C53.6369 13.6081 53.8849 13.7001 54.2049 13.7001C54.5569 13.7001 54.8569 13.6001 55.1049 13.4001L55.4649 14.2281ZM62.7856 8.2401V14.6001H61.6936V13.6401C61.4616 13.9681 61.1536 14.2241 60.7696 14.4081C60.3936 14.5841 59.9816 14.6721 59.5336 14.6721C58.6856 14.6721 58.0176 14.4401 57.5296 13.9761C57.0416 13.5041 56.7976 12.8121 56.7976 11.9001V8.2401H57.9496V11.7681C57.9496 12.3841 58.0976 12.8521 58.3936 13.1721C58.6896 13.4841 59.1136 13.6401 59.6656 13.6401C60.2736 13.6401 60.7536 13.4561 61.1056 13.0881C61.4576 12.7201 61.6336 12.2001 61.6336 11.5281V8.2401H62.7856ZM70.9787 5.6961V14.6001H69.8747V13.5921C69.6187 13.9441 69.2947 14.2121 68.9027 14.3961C68.5107 14.5801 68.0787 14.6721 67.6067 14.6721C66.9907 14.6721 66.4387 14.5361 65.9507 14.2641C65.4627 13.9921 65.0787 13.6121 64.7987 13.1241C64.5267 12.6281 64.3907 12.0601 64.3907 11.4201C64.3907 10.7801 64.5267 10.2161 64.7987 9.7281C65.0787 9.2401 65.4627 8.8601 65.9507 8.5881C66.4387 8.3161 66.9907 8.1801 67.6067 8.1801C68.0627 8.1801 68.4827 8.2681 68.8667 8.4441C69.2507 8.6121 69.5707 8.8641 69.8267 9.2001V5.6961H70.9787ZM67.7027 13.6641C68.1027 13.6641 68.4667 13.5721 68.7947 13.3881C69.1227 13.1961 69.3787 12.9321 69.5627 12.5961C69.7467 12.2521 69.8387 11.8601 69.8387 11.4201C69.8387 10.9801 69.7467 10.5921 69.5627 10.2561C69.3787 9.9121 69.1227 9.6481 68.7947 9.4641C68.4667 9.2801 68.1027 9.1881 67.7027 9.1881C67.2947 9.1881 66.9267 9.2801 66.5987 9.4641C66.2787 9.6481 66.0227 9.9121 65.8307 10.2561C65.6467 10.5921 65.5547 10.9801 65.5547 11.4201C65.5547 11.8601 65.6467 12.2521 65.8307 12.5961C66.0227 12.9321 66.2787 13.1961 66.5987 13.3881C66.9267 13.5721 67.2947 13.6641 67.7027 13.6641ZM73.1584 8.2401H74.3104V14.6001H73.1584V8.2401ZM73.7344 7.0161C73.5104 7.0161 73.3224 6.9441 73.1704 6.8001C73.0264 6.6561 72.9544 6.4801 72.9544 6.2721C72.9544 6.0641 73.0264 5.8881 73.1704 5.7441C73.3224 5.5921 73.5104 5.5161 73.7344 5.5161C73.9584 5.5161 74.1424 5.5881 74.2864 5.7321C74.4384 5.8681 74.5144 6.0401 74.5144 6.2481C74.5144 6.4641 74.4384 6.6481 74.2864 6.8001C74.1424 6.9441 73.9584 7.0161 73.7344 7.0161ZM79.234 14.6721C78.602 14.6721 78.034 14.5321 77.53 14.2521C77.026 13.9721 76.63 13.5881 76.342 13.1001C76.062 12.6041 75.922 12.0441 75.922 11.4201C75.922 10.7961 76.062 10.2401 76.342 9.7521C76.63 9.2561 77.026 8.8721 77.53 8.6001C78.034 8.3201 78.602 8.1801 79.234 8.1801C79.866 8.1801 80.43 8.3201 80.926 8.6001C81.43 8.8721 81.822 9.2561 82.102 9.7521C82.39 10.2401 82.534 10.7961 82.534 11.4201C82.534 12.0441 82.39 12.6041 82.102 13.1001C81.822 13.5881 81.43 13.9721 80.926 14.2521C80.43 14.5321 79.866 14.6721 79.234 14.6721ZM79.234 13.6641C79.642 13.6641 80.006 13.5721 80.326 13.3881C80.654 13.1961 80.91 12.9321 81.094 12.5961C81.278 12.2521 81.37 11.8601 81.37 11.4201C81.37 10.9801 81.278 10.5921 81.094 10.2561C80.91 9.9121 80.654 9.6481 80.326 9.4641C80.006 9.2801 79.642 9.1881 79.234 9.1881C78.826 9.1881 78.458 9.2801 78.13 9.4641C77.81 9.6481 77.554 9.9121 77.362 10.2561C77.178 10.5921 77.086 10.9801 77.086 11.4201C77.086 11.8601 77.178 12.2521 77.362 12.5961C77.554 12.9321 77.81 13.1961 78.13 13.3881C78.458 13.5721 78.826 13.6641 79.234 13.6641Z" fill="white"/>
</svg>
