<svg width="89" height="25" viewBox="0 0 89 25" fill="none" xmlns="http://www.w3.org/2000/svg">
<rect x="0.0200195" y="0.409973" width="88.98" height="14.83" fill="#C4C4C4"/>
<path d="M28.1313 11.3201H32.1743V12.24H27.0005V3.70874H28.1313V11.3201ZM33.0005 9.01147C33.0005 8.39038 33.1216 7.83179 33.3638 7.33569C33.6099 6.8396 33.9497 6.45679 34.3833 6.18726C34.8208 5.91772 35.3188 5.78296 35.8774 5.78296C36.7407 5.78296 37.438 6.08179 37.9692 6.67944C38.5044 7.2771 38.772 8.07202 38.772 9.06421V9.14038C38.772 9.75757 38.6528 10.3123 38.4146 10.8044C38.1802 11.2927 37.8423 11.6736 37.4009 11.947C36.9634 12.2205 36.4595 12.3572 35.8892 12.3572C35.0298 12.3572 34.3325 12.0583 33.7974 11.4607C33.2661 10.863 33.0005 10.072 33.0005 9.08765V9.01147ZM34.0903 9.14038C34.0903 9.84351 34.2524 10.408 34.5767 10.8337C34.9048 11.2595 35.3423 11.4724 35.8892 11.4724C36.4399 11.4724 36.8774 11.2576 37.2017 10.8279C37.5259 10.3943 37.688 9.78882 37.688 9.01147C37.688 8.31616 37.522 7.75366 37.1899 7.32397C36.8618 6.89038 36.4243 6.67358 35.8774 6.67358C35.3423 6.67358 34.9106 6.88647 34.5825 7.31226C34.2544 7.73804 34.0903 8.34741 34.0903 9.14038ZM39.8735 9.01733C39.8735 8.02905 40.1021 7.2439 40.5591 6.66187C41.0161 6.07593 41.6216 5.78296 42.3755 5.78296C43.1489 5.78296 43.7524 6.0564 44.186 6.60327L44.2388 5.90015H45.229V12.0876C45.229 12.908 44.9849 13.5544 44.4966 14.0271C44.0122 14.4998 43.3599 14.7361 42.5396 14.7361C42.0825 14.7361 41.6353 14.6384 41.1978 14.4431C40.7603 14.2478 40.4263 13.9802 40.1958 13.6404L40.7583 12.99C41.2231 13.5642 41.7915 13.8513 42.4634 13.8513C42.9907 13.8513 43.4009 13.7029 43.6938 13.406C43.9907 13.1091 44.1392 12.6912 44.1392 12.1521V11.6072C43.7056 12.1072 43.1138 12.3572 42.3638 12.3572C41.6216 12.3572 41.02 12.0583 40.5591 11.4607C40.1021 10.863 39.8735 10.0486 39.8735 9.01733ZM40.9634 9.14038C40.9634 9.85522 41.1099 10.4177 41.4028 10.8279C41.6958 11.2341 42.106 11.4373 42.6333 11.4373C43.3169 11.4373 43.8188 11.1267 44.1392 10.5056V7.61108C43.8071 7.00562 43.3091 6.70288 42.645 6.70288C42.1177 6.70288 41.7056 6.90796 41.4087 7.31812C41.1118 7.72827 40.9634 8.33569 40.9634 9.14038ZM46.5825 9.01147C46.5825 8.39038 46.7036 7.83179 46.9458 7.33569C47.1919 6.8396 47.5317 6.45679 47.9653 6.18726C48.4028 5.91772 48.9009 5.78296 49.4595 5.78296C50.3228 5.78296 51.02 6.08179 51.5513 6.67944C52.0864 7.2771 52.354 8.07202 52.354 9.06421V9.14038C52.354 9.75757 52.2349 10.3123 51.9966 10.8044C51.7622 11.2927 51.4243 11.6736 50.9829 11.947C50.5454 12.2205 50.0415 12.3572 49.4712 12.3572C48.6118 12.3572 47.9146 12.0583 47.3794 11.4607C46.8481 10.863 46.5825 10.072 46.5825 9.08765V9.01147ZM47.6724 9.14038C47.6724 9.84351 47.8345 10.408 48.1587 10.8337C48.4868 11.2595 48.9243 11.4724 49.4712 11.4724C50.022 11.4724 50.4595 11.2576 50.7837 10.8279C51.1079 10.3943 51.27 9.78882 51.27 9.01147C51.27 8.31616 51.104 7.75366 50.772 7.32397C50.4438 6.89038 50.0063 6.67358 49.4595 6.67358C48.9243 6.67358 48.4927 6.88647 48.1646 7.31226C47.8364 7.73804 47.6724 8.34741 47.6724 9.14038ZM62.1685 12.24H56.5786V11.4607L59.5317 8.17944C59.9692 7.68335 60.27 7.28101 60.4341 6.97241C60.6021 6.65991 60.686 6.33765 60.686 6.00562C60.686 5.5603 60.5513 5.19507 60.2817 4.90991C60.0122 4.62476 59.6528 4.48218 59.2036 4.48218C58.6646 4.48218 58.2446 4.63647 57.9438 4.94507C57.647 5.24976 57.4985 5.67554 57.4985 6.22241H56.4146C56.4146 5.43726 56.6665 4.80249 57.1704 4.31812C57.6782 3.83374 58.356 3.59155 59.2036 3.59155C59.9966 3.59155 60.6235 3.80054 61.0845 4.21851C61.5454 4.63257 61.7759 5.1853 61.7759 5.87671C61.7759 6.71655 61.2407 7.71655 60.1704 8.87671L57.8853 11.3552H62.1685V12.24Z" fill="white"/>
<path d="M86.7479 21.6281C86.7479 21.8324 86.7874 22.0214 86.8651 22.1976C86.9429 22.3732 87.0501 22.5072 87.1868 22.5997C87.3229 22.6928 87.4753 22.7384 87.6439 22.7384C87.9205 22.7384 88.1437 22.6359 88.3117 22.4295C88.481 22.2238 88.5651 21.9571 88.5651 21.6287C88.5651 21.4257 88.5268 21.2428 88.4509 21.0819C88.3751 20.9198 88.266 20.7925 88.1236 20.7C87.9725 20.6122 87.812 20.5687 87.6433 20.5687C87.4828 20.5687 87.3342 20.6149 87.1956 20.708C87.0564 20.8086 86.9473 20.9399 86.8676 21.0994C86.7886 21.2575 86.7479 21.4344 86.7479 21.6281ZM88.5262 20.1854H89.0002V23.119H88.5262V22.7102C88.2798 23.0386 87.9644 23.2021 87.5781 23.2021C87.3317 23.2021 87.1078 23.1324 86.9072 22.9937C86.7065 22.855 86.5504 22.6667 86.44 22.4281C86.329 22.1909 86.2738 21.9189 86.2738 21.614C86.2738 21.3312 86.3303 21.0759 86.4431 20.8467C86.556 20.6176 86.7128 20.4393 86.9134 20.3093C87.1147 20.1807 87.3411 20.115 87.5919 20.115C87.9644 20.115 88.2754 20.2792 88.5262 20.6069V20.1854ZM83.0677 22.6546H84.5469V20.6504H83.4371V21.5249C83.4377 22.0281 83.3142 22.4054 83.0677 22.6546ZM82.3404 22.6828C82.4532 22.6546 82.5548 22.5809 82.6451 22.4603C82.7542 22.3357 82.8363 22.1882 82.8928 22.0167C82.958 21.8411 82.9894 21.6636 82.9894 21.4827V20.1854H85.0078V22.6546H85.4819V24.0625H85.0078V23.1197H82.6846V24.0625H82.1986V22.6828H82.3404ZM79.4258 20.1854H79.8999V21.4847L80.8869 20.186L81.5233 20.1847L80.4649 21.4961L81.7365 23.1183L81.1226 23.123L80.1664 21.8499L79.9005 22.1755V23.1183H79.4265V22.1755L79.1618 21.8512L78.1993 23.1183L77.5898 23.119L78.8559 21.4967L77.8043 20.1854L78.4307 20.1894L79.4265 21.494V20.1854H79.4258ZM76.2059 21.3299C76.1802 21.1865 76.1301 21.0598 76.0567 20.9486C75.9833 20.8374 75.8862 20.7449 75.7645 20.6712C75.7344 20.6571 75.6855 20.639 75.619 20.6162C75.5519 20.5928 75.4792 20.5807 75.4015 20.5807C75.202 20.5807 75.0258 20.6511 74.8722 20.7925C74.7186 20.9332 74.6264 21.1128 74.5969 21.3299H76.2059ZM76.6919 21.7534H74.5574C74.5574 21.8505 74.5675 21.9376 74.5869 22.0167C74.6063 22.0958 74.6396 22.1789 74.6872 22.2666C74.7606 22.4147 74.8609 22.53 74.9882 22.6138C75.1161 22.6962 75.2579 22.7384 75.4134 22.7384C75.609 22.7384 75.7683 22.6948 75.8943 22.607C76.0197 22.5186 76.1451 22.3618 76.2712 22.1353L76.6668 22.3712C76.5326 22.6265 76.3571 22.8282 76.1376 22.9783C75.9194 23.129 75.6736 23.2034 75.4015 23.2034C75.1368 23.2034 74.9048 23.1378 74.7035 23.0057C74.5029 22.8744 74.3474 22.6901 74.237 22.4549C74.126 22.2191 74.0708 21.9531 74.0708 21.6575C74.0708 21.3661 74.1273 21.102 74.2395 20.8635C74.3524 20.6256 74.5092 20.4413 74.7104 20.312C74.9117 20.1834 75.1418 20.1177 75.4021 20.1177C75.683 20.1177 75.9219 20.1907 76.1194 20.3361C76.3157 20.4816 76.4612 20.6792 76.5533 20.9292C76.6455 21.1778 76.6919 21.4525 76.6919 21.7534ZM70.8635 22.6546H72.3427V20.6504H71.2328V21.5249C71.2335 22.0281 71.1099 22.4054 70.8635 22.6546ZM70.1367 22.6828C70.249 22.6546 70.3506 22.5809 70.4415 22.4603C70.55 22.3357 70.6321 22.1882 70.6886 22.0167C70.7538 21.8411 70.7851 21.6636 70.7851 21.4827V20.1854H72.8036V22.6546H73.2776V24.0625H72.8036V23.1197H70.4804V24.0625H69.9944V22.6828H70.1367ZM66.8391 21.6696C66.8391 21.9745 66.9313 22.2291 67.1175 22.4328C67.3037 22.6359 67.5307 22.7377 67.7991 22.7377C67.9803 22.7377 68.1484 22.6935 68.302 22.603C68.4556 22.5126 68.5735 22.3879 68.6557 22.2278C68.7378 22.069 68.7786 21.882 68.7786 21.6696C68.7786 21.4525 68.7366 21.2615 68.6525 21.0974C68.5679 20.9332 68.4512 20.8059 68.3014 20.7161C68.1528 20.6263 67.9847 20.5807 67.7985 20.5807C67.621 20.5807 67.4586 20.627 67.3119 20.7194C67.1652 20.8126 67.0492 20.9419 66.9645 21.1081C66.8799 21.2743 66.8391 21.4619 66.8391 21.6696ZM66.3657 21.6696C66.3657 21.3922 66.4296 21.1329 66.5569 20.893C66.6848 20.6531 66.8579 20.4628 67.0761 20.3241C67.295 20.1854 67.5358 20.1157 67.7997 20.1157C68.0073 20.1157 68.1992 20.1539 68.3741 20.2309C68.5491 20.3067 68.7014 20.4166 68.8312 20.5593C68.9698 20.7034 69.0745 20.8709 69.1454 21.0625C69.2175 21.2542 69.2532 21.4572 69.2532 21.6689C69.2532 21.8123 69.2382 21.949 69.2081 22.0784C69.1774 22.2077 69.1278 22.3296 69.0589 22.4462C68.9378 22.6767 68.7635 22.8603 68.5365 22.997C68.3095 23.1331 68.0631 23.2014 67.7997 23.2014C67.5401 23.2014 67.3 23.1344 67.0799 23.0004C66.8585 22.8664 66.6848 22.6794 66.5569 22.4382C66.429 22.199 66.3657 21.9423 66.3657 21.6696ZM63.2242 21.5939V20.6082H62.8806C62.6818 20.6082 62.5181 20.6363 62.3902 20.692C62.2629 20.7476 62.1989 20.8836 62.1989 21.1014C62.1989 21.3091 62.2598 21.4458 62.3802 21.5095C62.5062 21.5657 62.6548 21.5932 62.8285 21.5932H63.2242V21.5939ZM62.7482 22.0502L62.1902 23.1136L61.6145 23.1197L62.2892 21.9477C62.1983 21.9242 62.1118 21.874 62.0296 21.7949C61.9475 21.7071 61.8829 21.6033 61.8346 21.4827C61.7876 21.362 61.7638 21.2354 61.7638 21.102C61.7638 20.7965 61.8516 20.5673 62.0265 20.4152C62.2015 20.2631 62.4817 20.186 62.8674 20.186H63.6976V23.1197H63.2235V22.0516L62.7482 22.0502ZM58.3301 21.6281C58.3301 21.8324 58.3689 22.0214 58.4467 22.1976C58.5251 22.3732 58.6317 22.5072 58.7684 22.5997C58.9051 22.6928 59.0568 22.7384 59.2255 22.7384C59.502 22.7384 59.7252 22.6359 59.8939 22.4295C60.0626 22.2238 60.1466 21.9571 60.1466 21.6287C60.1466 21.4257 60.1084 21.2428 60.0331 21.0819C59.9573 20.9198 59.8481 20.7925 59.7052 20.7C59.5541 20.6122 59.3942 20.5687 59.2249 20.5687C59.065 20.5687 58.9157 20.6149 58.7771 20.708C58.6379 20.8086 58.5288 20.9399 58.4498 21.0994C58.3702 21.2575 58.3301 21.4344 58.3301 21.6281ZM60.1084 20.1854H60.5818V23.119H60.1084V22.7102C59.8613 23.0386 59.5459 23.2021 59.1603 23.2021C58.9138 23.2021 58.69 23.1324 58.4893 22.9937C58.288 22.855 58.1319 22.6667 58.0215 22.4281C57.9112 22.1909 57.856 21.9189 57.856 21.614C57.856 21.3312 57.9124 21.0759 58.0253 20.8467C58.1376 20.6176 58.2943 20.4393 58.4956 20.3093C58.6963 20.1807 58.9232 20.115 59.1734 20.115C59.5459 20.115 59.8575 20.2792 60.1084 20.6069V20.1854ZM55.0255 21.7534V23.119H54.5521V20.1854H55.0255V21.3017H56.2846V20.1854H56.7587V23.119H56.2846V21.7534H55.0255ZM51.3441 20.1854H51.8182V21.4847L52.8051 20.186L53.4416 20.1847L52.3831 21.4961L53.6554 23.1183L53.0409 23.123L52.0853 21.8499L51.8188 22.1755V23.1183H51.3447V22.1755L51.0801 21.8512L50.1176 23.1183L49.5087 23.119L50.7741 21.4967L49.7226 20.1854L50.349 20.1894L51.3447 21.494V20.1854H51.3441ZM48.0145 21.5939V20.6082H47.6702C47.4715 20.6082 47.3078 20.6363 47.1805 20.692C47.0532 20.7476 46.9893 20.8836 46.9893 21.1014C46.9893 21.3091 47.0495 21.4458 47.1705 21.5095C47.2959 21.5657 47.4451 21.5932 47.6188 21.5932H48.0145V21.5939ZM47.5379 22.0502L46.9799 23.1136L46.4049 23.1197L47.0796 21.9477C46.9886 21.9242 46.9021 21.874 46.82 21.7949C46.7378 21.7071 46.6732 21.6033 46.6249 21.4827C46.5767 21.362 46.5541 21.2354 46.5541 21.102C46.5541 20.7965 46.6413 20.5673 46.8162 20.4152C46.9911 20.2631 47.2721 20.186 47.6571 20.186H48.4879V23.1197H48.0139V22.0516L47.5379 22.0502ZM44.9695 20.6363H44.0158V21.7112C44.0158 22.4509 43.8841 22.92 43.6201 23.119H43.0301C43.3718 22.8644 43.5424 22.3906 43.5424 21.6971V20.1854H45.4568V23.119H44.9702V20.6363H44.9695ZM40.5163 20.6363V23.119H40.0422V20.1854H42.2488V23.119H41.7747V20.6363H40.5163ZM35.5582 20.1854V22.0308L37.2913 20.0038V23.119H36.8173V21.2676L35.0848 23.2724V20.1854H35.5582ZM30.6001 20.1854V22.0308L32.3326 20.0038V23.119H31.8592V21.2676L30.1261 23.2724V20.1854H30.6001ZM27.3282 20.1854V21.494L28.3245 20.1894L28.951 20.1854L27.8994 21.4967L29.1654 23.119L28.5566 23.1183L27.594 21.8512L27.3288 22.1769V23.1183H26.8554V20.1854H27.3282ZM23.855 20.1854V22.0308L25.5881 20.0038V23.119H25.1141V21.2676L23.3815 23.2724V20.1854H23.855ZM20.3817 21.7534V23.119H19.9083V20.1854H20.3817V21.3017H21.6408V20.1854H22.1143V23.119H21.6408V21.7534H20.3817ZM17.4603 22.668H17.7607C17.9826 22.668 18.1488 22.6459 18.2604 22.6024C18.372 22.5581 18.4272 22.4529 18.4272 22.2867C18.4272 22.0824 18.3733 21.9584 18.2642 21.9115C18.1632 21.8612 17.9958 21.8351 17.7613 21.8351H17.4609V22.668H17.4603ZM16.9863 23.119V20.1854H17.4603V21.3996H17.7732C18.0566 21.3996 18.2723 21.4317 18.4253 21.4974C18.5909 21.557 18.7088 21.6542 18.7809 21.7882C18.8524 21.9222 18.8881 22.0891 18.8881 22.2881C18.8881 22.5467 18.784 22.7525 18.5765 22.9046C18.3601 23.0486 18.0899 23.1197 17.7657 23.1197H16.9863V23.119ZM15.5121 20.6363H14.5583V21.7112C14.5583 22.4509 14.4267 22.92 14.1627 23.119H13.5726C13.9144 22.8644 14.0849 22.3906 14.0849 21.6971V20.1854H15.9993V23.119H15.5127V20.6363H15.5121ZM10.4687 21.6281C10.4687 21.8324 10.5076 22.0214 10.586 22.1976C10.6637 22.3732 10.771 22.5072 10.907 22.5997C11.0431 22.6928 11.1955 22.7384 11.3642 22.7384C11.6407 22.7384 11.8639 22.6359 12.0326 22.4295C12.2013 22.2238 12.2859 21.9571 12.2859 21.6287C12.2859 21.4257 12.2477 21.2428 12.1724 21.0819C12.0965 20.9198 11.9874 20.7925 11.8445 20.7C11.6934 20.6122 11.5328 20.5687 11.3642 20.5687C11.2043 20.5687 11.055 20.6149 10.9164 20.708C10.7779 20.8086 10.6688 20.9399 10.5891 21.0994C10.5089 21.2575 10.4687 21.4344 10.4687 21.6281ZM12.247 20.1854H12.7205V23.119H12.247V22.7102C12.0006 23.0386 11.6846 23.2021 11.2996 23.2021C11.0531 23.2021 10.8293 23.1324 10.628 22.9937C10.4267 22.855 10.2712 22.6667 10.1608 22.4281C10.0505 22.1909 9.99531 21.9189 9.99531 21.614C9.99531 21.3312 10.0517 21.0759 10.164 20.8467C10.2762 20.6176 10.4336 20.4393 10.6343 20.3093C10.8356 20.1807 11.0613 20.115 11.3121 20.115C11.6846 20.115 11.9956 20.2792 12.247 20.6069V20.1854ZM7.16419 20.6363V23.119H6.69076V20.1854H8.89735V23.119H8.4233V20.6363H7.16419ZM4.15874 22.8342L2.89273 20.1854L3.42635 20.1894L4.40705 22.3028L5.29621 20.1867L5.81917 20.1854L3.8007 24.7694L3.27774 24.7707L4.15874 22.8342ZM0.490514 20.1854V21.494L1.48689 20.1894L2.11331 20.1854L1.06175 21.4967L2.32713 23.119L1.71827 23.1183L0.755753 21.8512L0.491141 22.1769V23.1183H0.0170898V20.1854H0.490514Z" fill="#191E27"/>
</svg>
