<svg width="30" height="30" viewBox="0 0 30 30" fill="none" xmlns="http://www.w3.org/2000/svg">
<rect x="0.442871" y="0.169922" width="29.1313" height="29.6605" fill="#C4C4C4"/>
<path d="M9.2092 24.8895L12.068 22.0307L12.7185 22.6812L9.06004 26.3396L3.02745 20.3072L3.8271 19.5075L9.2092 24.8895ZM11.0198 19.8141C10.5806 19.375 10.2713 18.8944 10.0917 18.3723C9.91493 17.8475 9.88455 17.3365 10.0006 16.8394C10.1193 16.3394 10.3762 15.892 10.7712 15.497C11.3816 14.8866 12.086 14.6048 12.8843 14.6518C13.6853 14.696 14.4366 15.0689 15.1382 15.7704L15.1921 15.8243C15.6285 16.2607 15.9365 16.7372 16.116 17.2537C16.2956 17.7647 16.3259 18.2729 16.2072 18.7784C16.0912 19.2811 15.8315 19.734 15.4282 20.1373C14.8206 20.745 14.1162 21.0267 13.3152 20.9825C12.5169 20.9355 11.7697 20.564 11.0737 19.868L11.0198 19.8141ZM11.8816 19.1347C12.3788 19.6318 12.8926 19.9163 13.4229 19.9882C13.956 20.0572 14.4159 19.8984 14.8026 19.5117C15.1921 19.1222 15.3495 18.661 15.2749 18.1279C15.1976 17.592 14.8841 17.0493 14.3344 16.4996C13.8427 16.008 13.3276 15.7276 12.789 15.6586C12.2504 15.584 11.7877 15.74 11.401 16.1267C11.0226 16.5051 10.8679 16.9609 10.9369 17.494C11.006 18.0271 11.3209 18.574 11.8816 19.1347ZM15.884 14.9584C15.1852 14.2596 14.7916 13.5428 14.7032 12.8081C14.612 12.0706 14.833 11.4353 15.3661 10.9022C15.913 10.3553 16.5331 10.1219 17.2264 10.202L16.7665 9.66758L17.4667 8.96739L21.842 13.3425C22.4221 13.9226 22.7066 14.5523 22.6955 15.2318C22.6872 15.9085 22.3931 16.5369 21.813 17.117C21.4898 17.4401 21.1045 17.6873 20.657 17.8586C20.2096 18.0298 19.7842 18.0768 19.3809 17.9994L19.3188 17.1418C20.0535 17.2191 20.6584 17.0203 21.1335 16.5452C21.5064 16.1723 21.6915 15.7773 21.6887 15.3603C21.6887 14.9404 21.4981 14.5399 21.1169 14.1587L20.7316 13.7734C20.7786 14.4336 20.5369 15.0288 20.0065 15.5591C19.4817 16.0839 18.845 16.298 18.0965 16.2013C17.3507 16.1019 16.6132 15.6876 15.884 14.9584ZM16.7417 14.2748C17.2471 14.7802 17.7485 15.0744 18.2457 15.1572C18.7401 15.2373 19.1737 15.091 19.5466 14.7181C20.03 14.2347 20.1654 13.6602 19.9527 12.9945L17.9059 10.9478C17.243 10.7545 16.6767 10.8926 16.2072 11.3621C15.8343 11.735 15.6879 12.1714 15.768 12.6714C15.8481 13.1713 16.1726 13.7058 16.7417 14.2748ZM20.6239 10.2103C20.1847 9.77116 19.8753 9.29055 19.6958 8.76852C19.519 8.24372 19.4886 7.73273 19.6046 7.23555C19.7234 6.73561 19.9803 6.28815 20.3753 5.89317C20.9857 5.28275 21.6901 5.00102 22.4884 5.04797C23.2894 5.09217 24.0407 5.46505 24.7423 6.16662L24.7962 6.22048C25.2326 6.65689 25.5406 7.13335 25.7201 7.64987C25.8996 8.16085 25.93 8.66908 25.8113 9.17454C25.6952 9.67724 25.4356 10.1302 25.0323 10.5335C24.4246 11.1412 23.7203 11.4229 22.9193 11.3787C22.121 11.3317 21.3738 10.9602 20.6778 10.2642L20.6239 10.2103ZM21.4857 9.53085C21.9829 10.028 22.4966 10.3125 23.027 10.3843C23.5601 10.4534 24.02 10.2946 24.4067 9.90788C24.7962 9.51842 24.9536 9.05715 24.879 8.52407C24.8017 7.98822 24.4882 7.44547 23.9385 6.89581C23.4468 6.40416 22.9317 6.12381 22.3931 6.05476C21.8544 5.98018 21.3918 6.13624 21.0051 6.52293C20.6266 6.90134 20.472 7.35708 20.541 7.89017C20.6101 8.42325 20.925 8.97015 21.4857 9.53085Z" fill="white"/>
</svg>
