<svg width="59" height="34" viewBox="0 0 59 34" fill="none" xmlns="http://www.w3.org/2000/svg">
<mask id="path-1-inside-1" fill="white">
<path d="M50.6123 33.1687C50.7858 33.0409 50.7863 33.0128 50.6239 32.5203C50.5305 32.2372 50.3747 31.9067 50.2776 31.786C50.124 31.5949 50.1183 31.5332 50.2339 31.3088C50.3069 31.1671 50.412 31.0454 50.4674 31.0386C50.5228 31.0317 50.6523 31.0204 50.7553 31.0136C50.9814 30.9984 51.093 30.6406 50.9536 30.3781C50.8818 30.2432 50.8877 30.145 50.9736 30.0407C51.0967 29.8914 51.0932 29.8769 50.7652 29.1784C50.6677 28.971 50.6649 28.8735 50.7531 28.7665C50.8425 28.658 50.8346 28.5978 50.7184 28.5007C50.6358 28.4316 50.5681 28.268 50.5681 28.1372C50.5681 28.0063 50.5342 27.8993 50.4927 27.8993C50.4061 27.8993 50.1204 28.319 50.1449 28.4102C50.1539 28.4436 50.0504 28.5307 49.9149 28.6037C49.7795 28.6767 49.6426 28.8408 49.6109 28.9682C49.5791 29.0957 49.5164 29.2 49.4716 29.2C49.4268 29.2 49.3257 29.2649 49.247 29.3442C49.0383 29.5543 48.7277 29.43 48.5279 29.0563C48.4037 28.824 48.2788 28.7267 48.0947 28.7187C47.9524 28.7125 47.6664 28.6908 47.459 28.6704C47.2516 28.6501 47.0607 28.6681 47.0347 28.7105C46.9651 28.8239 46.6054 28.7321 46.3195 28.528C45.9655 28.2753 45.875 28.2232 45.6503 28.1429C45.4616 28.0754 45.4633 28.0687 45.6841 28.0099L45.9165 27.9479L45.6592 27.6683C45.5177 27.5145 45.402 27.346 45.402 27.2938C45.402 27.2416 45.3553 27.1989 45.2983 27.1989C45.2412 27.1989 45.0736 27.0841 44.9257 26.9438C44.6741 26.7051 44.6091 26.6921 43.9117 26.7409C42.8432 26.8155 42.7197 26.837 42.7183 26.9488C42.7176 27.0038 42.5611 27.1505 42.3706 27.2749C41.9766 27.5318 41.9363 27.6959 42.2228 27.8761C42.445 28.0158 42.4929 28.4877 42.3043 28.6777C42.2396 28.7428 42.1827 29.0994 42.1773 29.4732C42.1687 30.0697 42.1345 30.186 41.8905 30.4475L41.6134 30.7445L41.1744 30.5855C40.8143 30.4551 40.7042 30.4495 40.5619 30.5543C40.4203 30.6586 40.3389 30.6563 40.1187 30.5416C39.8763 30.4153 39.8133 30.4224 39.4953 30.6113C39.3008 30.7269 39.1158 30.9251 39.0842 31.0518C39.0437 31.2143 38.9308 31.3002 38.7011 31.3437C38.522 31.3775 38.2962 31.4933 38.1995 31.601C38.1027 31.7087 37.9776 31.7682 37.9215 31.7333C37.8654 31.6983 37.5622 31.6791 37.2478 31.6905C36.7723 31.7078 36.6421 31.6746 36.4743 31.4932C36.343 31.3512 36.2008 31.2939 36.0671 31.3291C35.929 31.3655 35.8286 31.3207 35.7602 31.1921C35.6332 30.9531 34.9302 30.9297 34.5097 31.1505C34.3532 31.2327 34.1425 31.3003 34.0414 31.3006C33.8333 31.3013 33.2813 30.751 33.2813 30.5428C33.2813 30.394 32.7898 30.1005 32.5407 30.1005C32.2947 30.1005 31.6511 29.7167 31.5757 29.5251C31.5198 29.3829 31.5056 29.3942 31.5 29.5858C31.4961 29.7154 31.3812 29.9553 31.2446 30.1188C30.9862 30.428 30.9186 30.8828 31.1033 31.0688C31.1797 31.1458 31.1367 31.2507 30.9525 31.4362C30.7434 31.6468 30.6342 31.6842 30.3736 31.6345C30.197 31.6008 29.9985 31.5307 29.9326 31.4786C29.8667 31.4266 29.7721 31.4094 29.7223 31.4403C29.6198 31.5041 29.3695 31.2417 29.2734 30.9696C29.2257 30.8346 29.1264 30.7962 28.8857 30.8196C28.7078 30.8368 28.5175 30.7969 28.4628 30.7309C28.3867 30.6389 28.2358 30.6597 27.817 30.8201C27.5165 30.9352 27.1435 31.0245 26.988 31.0185C26.7855 31.0107 26.7204 31.0469 26.7582 31.1461C26.8172 31.301 26.6617 31.3807 26.1367 31.4643C25.9407 31.4956 25.7495 31.5402 25.7119 31.5634C25.6742 31.5867 25.5401 31.4951 25.4138 31.36C25.2757 31.2121 25.047 31.1016 24.8397 31.0826C24.5468 31.0558 24.4813 31.0023 24.4031 30.7259C24.3525 30.547 24.2505 30.4007 24.1764 30.4007C24.0929 30.4007 24.0418 30.2862 24.0418 30.0989C24.0418 29.8524 23.9779 29.7665 23.693 29.6297C23.4445 29.5103 23.3137 29.4931 23.2376 29.5697C23.0693 29.7391 22.756 29.6015 22.5947 29.2874C22.439 28.9842 22.1541 28.8954 22.1541 29.15C22.1541 29.2325 22.087 29.3001 22.0051 29.3001C21.8883 29.3001 21.8561 29.1631 21.8561 28.6679C21.8561 28.3202 21.786 27.7979 21.7003 27.5074C21.6146 27.2168 21.5652 26.9582 21.5905 26.9327C21.6158 26.9072 21.5294 26.77 21.3986 26.6278C21.1039 26.3076 21.1019 26.2406 21.3841 26.1495C21.5785 26.0867 21.5564 26.0672 21.2156 26.0003C20.9331 25.9448 20.7857 25.9613 20.6883 26.0593C20.5525 26.1961 20.1747 26.1909 19.8359 26.0475C19.6936 25.9873 19.6826 25.9524 19.7857 25.8882C19.8894 25.8237 19.8752 25.7736 19.7196 25.6551C19.6105 25.5722 19.4669 25.5029 19.4003 25.5011C19.3337 25.4994 19.3049 25.4304 19.3364 25.3478C19.3782 25.2381 19.324 25.1978 19.1346 25.1978C18.8871 25.1978 18.7883 25.0188 18.9474 24.8586C18.9869 24.8188 19.0291 24.6312 19.0411 24.4417C19.059 24.1596 19.028 24.0971 18.8699 24.0971C18.7637 24.0971 18.5899 24.0095 18.4836 23.9025C18.3289 23.7467 18.2303 23.7251 17.9904 23.7944C17.6631 23.8889 16.7729 23.7294 15.746 23.3923C15.4182 23.2847 15.0864 23.1966 15.0087 23.1966C14.9311 23.1966 14.7886 23.1247 14.6921 23.0367C14.5956 22.9488 14.4745 22.9031 14.4229 22.9352C14.2701 23.0304 14.2145 23.5349 14.3391 23.6969C14.4387 23.8264 14.4314 23.8288 14.2861 23.7142C14.0215 23.5056 13.6549 23.6018 13.6834 23.8723C13.7101 24.1264 13.442 24.1844 13.2223 23.9721C13.1166 23.8699 13.1029 23.9202 13.1476 24.2472C13.2672 25.1224 13.2661 25.1407 13.0933 25.176C13.0004 25.195 12.8276 25.0985 12.7093 24.9616C12.5911 24.8246 12.4396 24.7337 12.3727 24.7596C12.2145 24.8207 12.0484 24.6123 12.0051 24.2983C11.984 24.1454 11.8944 24.0345 11.7731 24.0112C11.6644 23.9903 11.5144 23.8855 11.4399 23.7783C11.3638 23.6688 11.2401 23.6082 11.1578 23.6401C11.0771 23.6712 10.9029 23.6694 10.7707 23.6359C10.5871 23.5895 10.5302 23.5081 10.5302 23.2917C10.5302 22.9452 10.3799 22.8294 10.2418 23.0695C10.1642 23.2043 10.1478 23.1323 10.1729 22.7678C10.1997 22.3789 10.1704 22.2699 10.0171 22.1873C9.91333 22.1313 9.83513 22.0316 9.84334 21.9657C9.88003 21.6713 9.82285 21.5848 9.6112 21.6144C9.44422 21.6378 9.37975 21.5898 9.35641 21.4245C9.32862 21.2277 9.28192 21.2093 8.93418 21.2583C8.70463 21.2906 8.54319 21.2723 8.54319 21.2139C8.54319 21.1592 8.35318 21.1241 8.12095 21.1358C7.77588 21.1534 7.69311 21.1958 7.66807 21.368C7.65121 21.484 7.57128 21.6044 7.49044 21.6356C7.32812 21.6983 7.20145 21.4715 7.28149 21.2615C7.37795 21.0083 7.2087 20.9067 6.78555 20.9639C6.46408 21.0073 6.36055 21.0695 6.31665 21.2457C6.25879 21.4778 5.86074 21.6685 5.86074 21.464C5.86074 21.4019 5.7898 21.4531 5.70309 21.5778C5.5829 21.7506 5.57241 21.8371 5.65893 21.9421C5.74682 22.0488 5.73197 22.1028 5.59304 22.1815C5.4245 22.277 5.42768 22.2963 5.64571 22.5016C5.80408 22.6507 5.85971 22.7878 5.82093 22.9333C5.78967 23.0506 5.76349 23.2029 5.76275 23.2717C5.762 23.3405 5.69433 23.3967 5.61237 23.3967C5.43282 23.3967 5.41299 23.7538 5.58653 23.8618C5.86336 24.0341 5.20129 24.0562 4.80407 23.8879C4.44448 23.7355 4.35988 23.7312 4.12655 23.8531C3.9799 23.9297 3.8295 23.9881 3.79232 23.9829C3.47475 23.9381 3.37517 24.0146 3.3958 24.2873C3.40787 24.4469 3.36099 24.6464 3.29161 24.7306C3.18698 24.8575 3.19821 24.9013 3.35752 24.9871C3.46315 25.0441 3.5778 25.0622 3.61231 25.0275C3.64681 24.9927 3.67505 25.0168 3.67505 25.081C3.67505 25.1501 3.51607 25.1978 3.28554 25.1978C2.86337 25.1978 2.88895 25.1556 2.72356 26.1233C2.6751 26.4068 2.612 26.4985 2.46526 26.4985C2.05146 26.4985 1.88675 26.314 1.88675 25.8505C1.88675 25.6081 1.83914 25.38 1.78095 25.3438C1.72275 25.3076 1.68278 25.1586 1.69212 25.0127C1.73647 24.3201 1.68817 24.148 1.40374 23.985C1.17035 23.8513 1.11117 23.7378 1.06642 23.3379C1.03657 23.0712 0.962099 22.8362 0.900933 22.8157C0.751617 22.7655 0.495852 22.2547 0.495852 22.0066C0.495852 21.8969 0.411246 21.7475 0.307838 21.6746C0.147092 21.5612 0.111134 21.3638 0.0599115 20.3134L0 19.085L0.239904 19.3457C0.45137 19.5755 0.504313 19.591 0.68653 19.4764C0.852624 19.3719 0.932302 19.3709 1.09195 19.4713C1.27034 19.5835 1.29065 19.5712 1.29065 19.3512C1.29065 19.2164 1.33536 19.0783 1.39 19.0443C1.44464 19.0103 1.4897 19.0189 1.49013 19.0634C1.4909 19.1444 1.95548 19.3945 2.10526 19.3945C2.25529 19.3945 2.18484 19.1043 2.01094 19.0059C1.85729 18.9191 1.8553 18.9006 1.9938 18.8468C2.18923 18.7709 2.68155 18.9512 2.68155 19.0986C2.68155 19.2446 3.1042 19.1102 3.20807 18.9311C3.25177 18.8558 3.35236 18.7941 3.43161 18.7941C3.51086 18.7941 3.5757 18.7544 3.5757 18.7057C3.5757 18.6571 3.66511 18.5938 3.77439 18.565C4.01973 18.5004 4.04517 17.9851 3.8241 17.5583C3.74283 17.4013 3.70215 17.1693 3.7337 17.0427C3.7818 16.8497 3.74355 16.8021 3.49664 16.7475C3.24283 16.6913 3.20545 16.6411 3.22558 16.3834C3.23842 16.2189 3.34481 15.9944 3.46199 15.8845C3.71636 15.6458 3.72078 15.6025 3.52021 15.3142C3.37398 15.1039 3.37935 15.0862 3.61679 14.9953C3.7658 14.9382 3.89565 14.7888 3.9356 14.6285C3.99227 14.4011 3.94375 14.3033 3.63111 14.0148L3.25922 13.6715L3.53539 13.3812C3.8621 13.0378 3.93259 13.0242 4.00188 13.291C4.03998 13.4377 4.1374 13.4911 4.36706 13.4911C4.57068 13.4911 4.6565 13.4524 4.61232 13.3804C4.51704 13.2251 4.76353 12.4849 4.9997 12.2171C5.10806 12.0942 5.27906 11.9674 5.37971 11.9352C5.57033 11.8743 5.63751 11.4483 5.47267 11.3457C5.42316 11.3149 5.4047 11.2048 5.43165 11.101C5.4586 10.9972 5.43205 10.882 5.37265 10.845C5.21135 10.7446 5.24232 10.4894 5.4158 10.4894C5.49893 10.4894 5.61788 10.3769 5.68012 10.2393C5.74236 10.1017 5.85317 9.98914 5.92636 9.98914C5.99956 9.98914 6.05944 9.9457 6.05944 9.8926C6.05944 9.83951 6.15563 9.74422 6.2732 9.68085C6.45528 9.58271 6.47784 9.58961 6.42535 9.72736C6.34318 9.94301 6.51164 9.93398 6.67474 9.71398C6.74614 9.61768 7.01903 9.43713 7.28116 9.31277C7.79912 9.06702 8.04513 9.11249 8.24635 9.49115C8.42457 9.82652 8.55023 9.71857 8.48199 9.28874C8.43784 9.01068 8.45443 8.88852 8.53635 8.88852C8.6012 8.88852 8.62367 8.83867 8.58628 8.77774C8.54193 8.70546 8.58305 8.68749 8.70461 8.72602C9.09958 8.85123 9.97999 8.98857 10.3876 8.98857C10.8138 8.98857 11.1856 8.76597 11.0711 8.57939C10.9651 8.40672 11.1343 8.10096 11.3545 8.06701C11.4749 8.04846 11.5622 7.97807 11.5485 7.91059C11.5349 7.84311 11.6131 7.78789 11.7224 7.78789C11.8451 7.78789 11.9214 7.72093 11.9219 7.6128C11.9226 7.44412 12.3223 7.18755 12.5844 7.18755C12.6542 7.18755 12.79 7.06373 12.8861 6.9124C13.1271 6.53299 13.3189 6.39428 13.61 6.38875C13.958 6.38215 14.0717 6.28418 14.1492 5.92407C14.206 5.66031 14.2727 5.60194 14.574 5.55271C14.8366 5.50978 15.0028 5.54553 15.2009 5.6876C15.3491 5.79392 15.4925 5.85863 15.5196 5.83141C15.5466 5.80419 15.6281 5.85398 15.7007 5.94205C15.787 6.04686 15.7975 6.12547 15.7309 6.1696C15.5974 6.25811 15.4912 6.68727 15.6028 6.68727C15.6504 6.68727 15.743 6.78823 15.8086 6.91162C15.9551 7.18737 15.9292 9.27685 15.7769 9.46161C15.7197 9.53112 15.5056 9.63844 15.3013 9.7001C14.9952 9.79244 14.887 9.78404 14.6876 9.65242C14.3243 9.41273 14.0021 8.39946 14.0053 7.50724C14.0063 7.22165 13.8368 7.30962 13.6867 7.67254C13.5444 8.01683 13.5378 8.04346 13.5231 8.33146C13.515 8.49066 13.4333 8.59848 13.2871 8.64313C12.9025 8.7606 12.6165 9.09884 12.6165 9.43626C12.6165 9.60827 12.5629 9.80303 12.4973 9.86907C12.4188 9.9481 12.4149 9.98914 12.4857 9.98914C12.5449 9.98914 12.6167 10.0792 12.6453 10.1893C12.7033 10.4127 12.959 10.4566 13.0826 10.2643C13.1268 10.1955 13.163 10.0276 13.163 9.89126C13.163 9.73649 13.2273 9.63052 13.334 9.6093C13.4706 9.58217 13.5026 9.64347 13.4925 9.91349C13.4671 10.5933 13.9344 10.9304 14.1277 10.3718C14.2318 10.0713 14.2358 10.0699 14.7867 10.1392C15.1218 10.1814 15.3889 10.2743 15.4621 10.3742C15.5298 10.4667 15.5422 10.5542 15.4901 10.573C15.3342 10.6293 15.4964 10.7896 15.7093 10.7896C15.9485 10.7896 16.158 10.5976 16.2083 10.3323C16.2287 10.2242 16.3419 10.1253 16.4654 10.1075C16.5867 10.0901 16.7717 9.96593 16.8766 9.83164C16.9972 9.67725 17.1258 9.61007 17.2263 9.64893C17.4126 9.72092 17.42 9.78418 17.2843 10.1436C17.2079 10.3461 17.1523 10.3852 17.0556 10.3044C16.8317 10.1172 16.515 10.2803 16.4674 10.6074C16.4103 10.9987 16.6311 11.2297 16.9788 11.1424C17.5996 10.9864 18.4057 11.057 18.6529 11.2889C18.7767 11.405 18.8904 11.4467 18.9259 11.3889C18.9593 11.3344 19.0803 11.2899 19.1949 11.2899C19.3962 11.2899 19.3972 11.2965 19.225 11.4881C19.0757 11.6542 19.068 11.712 19.1774 11.8447C19.257 11.9414 19.3925 11.9817 19.5249 11.9483C19.6621 11.9136 19.8011 11.9594 19.903 12.0728C20.0033 12.1844 20.1805 12.244 20.3724 12.2306C20.6497 12.2113 20.6749 12.2327 20.6224 12.4431C20.573 12.6415 20.5988 12.6733 20.7921 12.6526C21.1203 12.6173 21.26 12.5065 21.26 12.2814C21.26 11.9227 21.5358 11.9548 21.9025 12.3561C22.2502 12.7366 22.4182 13.0584 22.3205 13.1568C22.2927 13.1848 22.3571 13.2953 22.4635 13.4025C22.57 13.5097 22.6836 13.7311 22.7161 13.8945C22.7485 14.0579 22.831 14.1915 22.8995 14.1915C23.1041 14.1915 23.2681 13.9159 23.1973 13.6912C23.1607 13.5753 23.1847 13.4166 23.2509 13.3362C23.3354 13.2337 23.3378 13.191 23.2591 13.191C23.0837 13.191 23.1285 12.8968 23.3463 12.6179C23.4556 12.478 23.545 12.257 23.545 12.1269C23.545 11.959 23.6013 11.8902 23.7387 11.8902C23.8452 11.8902 24.1453 11.6876 24.4056 11.44C24.6659 11.1923 24.8888 10.9897 24.9009 10.9897C24.9131 10.9897 25.0376 11.0336 25.1778 11.0873C25.522 11.2191 25.5092 11.556 25.1434 11.9941C24.9335 12.2454 24.8678 12.4115 24.9042 12.5993C24.9352 12.7596 24.8941 12.9186 24.796 13.0173C24.709 13.105 24.6379 13.2164 24.6379 13.2651C24.6379 13.3137 24.5475 13.5418 24.4371 13.7719C24.3104 14.036 24.2593 14.2825 24.2986 14.4401C24.3436 14.6206 24.315 14.7077 24.1956 14.7538C24.1047 14.7889 24.0544 14.8809 24.0838 14.9581C24.1168 15.0446 24.0428 15.1346 23.8908 15.1928C23.7553 15.2447 23.6444 15.33 23.6444 15.3824C23.6444 15.4348 23.4998 15.5502 23.3231 15.639C23.0241 15.7892 22.993 15.7884 22.876 15.6272C22.8068 15.532 22.7502 15.4906 22.7502 15.5354C22.7502 15.5802 22.6831 15.5608 22.6012 15.4923C22.5109 15.4168 22.4522 15.4088 22.4522 15.4718C22.4522 15.7267 22.6 15.9102 22.9107 16.0409C23.2128 16.1681 23.2897 16.1623 23.6932 15.9826C24.2771 15.7225 24.6825 15.3366 24.7076 15.0173C24.7339 14.6808 24.8411 14.5855 25.1126 14.657C25.3666 14.7239 25.516 15.1482 25.3459 15.3195C25.2073 15.4591 25.1978 15.8925 25.3333 15.8925C25.3879 15.8925 25.5265 15.987 25.6412 16.1025L25.8497 16.3125L25.7757 16.0778C25.7351 15.9488 25.6306 15.7908 25.5437 15.7268C25.4 15.621 25.4013 15.593 25.5582 15.4184C25.6531 15.3128 25.7307 15.1289 25.7307 15.0099C25.7307 14.7479 25.3577 14.2922 25.1415 14.29C25.0557 14.2892 24.928 14.2517 24.8575 14.2067C24.6974 14.1044 24.8497 13.6481 25.1528 13.3222C25.299 13.165 25.3453 13.0071 25.317 12.7626C25.2777 12.4233 25.4109 12.1904 25.6442 12.1904C25.7105 12.1904 25.8577 12.1116 25.9713 12.0153C26.1724 11.8447 26.1738 11.8454 26.0234 12.0403C25.9385 12.1504 25.8569 12.3862 25.8422 12.5644C25.8203 12.8287 25.8624 12.9099 26.0711 13.0057C26.2117 13.0702 26.3268 13.1608 26.3268 13.207C26.3268 13.2532 26.3925 13.291 26.4727 13.291C26.66 13.291 26.5573 12.9904 26.3085 12.8101C26.0902 12.6519 26.0707 12.3905 26.2771 12.3905C26.3591 12.3905 26.4261 12.4355 26.4261 12.4906C26.4261 12.5456 26.4984 12.5906 26.5868 12.5906C26.6965 12.5906 26.7315 12.5295 26.6972 12.3976C26.6606 12.2564 26.6957 12.2082 26.8278 12.2182C26.9272 12.2258 26.9866 12.2676 26.9598 12.3112C26.9331 12.3548 26.98 12.3905 27.0642 12.3905C27.1483 12.3905 27.2453 12.5035 27.2797 12.6415C27.3176 12.7936 27.4358 12.9162 27.5797 12.9525C27.8689 13.0257 27.8868 13.1492 27.6183 13.2199C27.4826 13.2557 27.4196 13.3564 27.4196 13.5377C27.4196 13.7052 27.4599 13.778 27.5289 13.7351C27.5938 13.6947 27.5852 13.7635 27.5078 13.9043C27.4361 14.0348 27.3916 14.1865 27.409 14.2416C27.4467 14.3611 27.5008 14.6123 27.5114 14.7168C27.5225 14.827 27.817 14.8086 27.817 14.6977C27.817 14.6459 27.774 14.5768 27.7215 14.5441C27.6603 14.506 27.6603 14.3935 27.7215 14.2315C27.774 14.0923 27.817 13.8433 27.817 13.6781C27.817 13.513 27.8659 13.286 27.9256 13.1736C28.0041 13.0259 28.0041 12.9391 27.9256 12.86C27.8659 12.7999 27.817 12.6859 27.817 12.6066C27.817 12.5274 27.7505 12.4126 27.6692 12.3515C27.563 12.2718 27.5383 12.1369 27.5815 11.8734L27.6417 11.5065L28.3254 11.5232C28.8075 11.5351 29.0092 11.5779 29.0092 11.6686C29.0092 11.7632 29.0583 11.7707 29.195 11.6971C29.3356 11.6213 29.3753 11.5003 29.3584 11.1984C29.3434 10.9304 29.3822 10.7821 29.477 10.7454C29.5545 10.7155 29.5931 10.6505 29.5628 10.6012C29.4841 10.4729 30.1243 10.1893 30.4928 10.1893C30.6776 10.1893 30.827 10.1283 30.861 10.0392C30.9245 9.87233 31.1949 9.83183 31.1949 9.98914C31.1949 10.0442 31.2754 10.0892 31.3738 10.0892C31.5958 10.0892 32.0873 9.86554 32.0883 9.76401C32.0887 9.72274 32.1931 9.68897 32.3203 9.68897C32.5183 9.68897 32.5454 9.6478 32.5095 9.40163C32.4564 9.03673 32.9352 8.52374 33.1565 8.70863C33.2658 8.80002 33.2668 8.83638 33.1618 8.9047C33.0586 8.97185 33.0626 9.00822 33.1819 9.0871C33.2639 9.14129 33.3868 9.18631 33.4551 9.18716C33.5234 9.188 33.5793 9.27874 33.5793 9.3888C33.5793 9.62275 33.7584 9.65692 33.8415 9.43883C33.93 9.20644 34.3691 9.26116 34.7474 9.55172C35.0104 9.75373 35.0586 9.83536 34.9555 9.90382C34.8463 9.97629 34.8537 10.018 34.9951 10.1271C35.2448 10.3199 35.2132 10.4557 34.8221 10.8713C34.6313 11.074 34.4748 11.2865 34.4743 11.3436C34.4739 11.4007 34.2723 11.6618 34.0264 11.924C33.7805 12.1861 33.5808 12.4546 33.5825 12.5206C33.5843 12.5879 33.6436 12.5637 33.7176 12.4655C33.7902 12.3692 33.9423 12.2904 34.0555 12.2904C34.1765 12.2904 34.2883 12.205 34.3267 12.0831C34.3653 11.9608 34.4484 11.8975 34.5293 11.9288C34.6047 11.9579 34.7316 11.9161 34.8112 11.8359C34.9994 11.6464 35.3306 11.6488 35.4036 11.8402C35.435 11.9227 35.5095 11.9903 35.5691 11.9903C35.6287 11.9903 35.6528 11.9502 35.6227 11.9012C35.5425 11.7704 36.0146 11.49 36.3151 11.49C36.4575 11.49 36.6411 11.5575 36.723 11.6401C36.915 11.8334 37.3837 11.8319 37.7586 11.6366C38.01 11.5057 38.0379 11.4538 37.9478 11.2844C37.8018 11.0095 37.9078 10.886 38.2334 10.9516C38.4161 10.9884 38.5518 10.9541 38.6381 10.8494C38.7551 10.7074 38.7967 10.7126 39.0611 10.9022C39.2304 11.0236 39.3319 11.1711 39.3014 11.2512C39.2711 11.3307 39.3108 11.3899 39.3944 11.3899C39.5614 11.3899 39.5896 11.5476 39.4393 11.6411C39.2941 11.7315 39.4345 11.9141 39.6 11.8502C39.6905 11.8152 39.739 11.8661 39.739 11.9959C39.739 12.1194 39.843 12.2382 40.0122 12.3081C40.3994 12.4678 40.6904 12.4565 40.6471 12.2834C40.6275 12.2047 40.5962 11.993 40.5776 11.813C40.5491 11.5381 40.569 11.4999 40.7019 11.5748C40.9301 11.7034 41.2293 11.5967 41.2293 11.3866C41.2293 11.1566 41.4156 11.0921 41.7039 11.2223C41.9897 11.3514 42.2688 11.1444 42.0232 10.9855C41.9001 10.9058 41.9117 10.8795 42.092 10.8297C42.2859 10.7761 42.2967 10.7417 42.1933 10.5045C42.1298 10.3586 42.0368 10.2101 41.9868 10.1743C41.9367 10.1386 41.9317 10.0261 41.9757 9.9242C42.0196 9.82234 42.0509 9.71253 42.0452 9.68019C42.0395 9.64784 42.2224 9.52502 42.4517 9.40726C42.7986 9.22908 42.8739 9.21796 42.9007 9.341C42.9397 9.52069 43.113 9.53816 43.1268 9.36379C43.1323 9.295 43.1678 9.35128 43.2058 9.48886C43.3129 9.87669 43.4614 9.7845 43.4954 9.30901C43.5207 8.95647 43.571 8.86184 43.7751 8.78371C44.1405 8.64381 44.2303 8.6658 44.1632 8.8787C44.1078 9.05455 44.1349 9.06182 44.5209 8.97448C44.7506 8.9225 45.005 8.90568 45.0863 8.9371C45.2493 9.00008 45.7 8.62653 45.7 8.4285C45.7 8.35977 45.8158 8.165 45.9572 7.99568C46.1711 7.73973 46.2865 7.68784 46.642 7.68784C46.9305 7.68784 47.0883 7.73668 47.1268 7.83792C47.2499 8.16104 48.022 7.91382 47.9791 7.56501C47.9455 7.29144 48.123 6.96771 48.3554 6.87874C48.4894 6.8274 48.6505 6.64832 48.7133 6.48079C48.7945 6.26419 48.878 6.18949 49.0023 6.22222C49.0984 6.24754 49.2045 6.22354 49.238 6.16888C49.2716 6.11422 49.3818 6.09128 49.4829 6.11791C49.584 6.14454 49.7185 6.10344 49.7819 6.02657C49.9463 5.82706 49.7236 5.58665 49.3744 5.58665C48.9829 5.58665 48.9417 5.34737 49.2719 4.99142C49.4276 4.82352 49.5346 4.68614 49.5095 4.68614C49.4845 4.68614 49.5448 4.54167 49.6435 4.3651C49.9158 3.87808 50.3002 3.57014 51.2139 3.10696C51.3778 3.02387 51.5874 2.89052 51.6796 2.81064C51.7718 2.73076 51.89 2.69206 51.9424 2.72465C51.9947 2.75724 52.065 2.71196 52.0985 2.62402C52.1355 2.52687 52.2219 2.48828 52.3187 2.52567C52.4367 2.57129 52.4616 2.54442 52.4149 2.42189C52.3593 2.27599 52.4222 2.26299 52.9503 2.31121C53.4237 2.35445 53.5486 2.3365 53.5486 2.22526C53.5486 2.14199 53.4474 2.08466 53.3003 2.08466C53.0119 2.08466 52.9929 2.02976 53.2066 1.81447C53.2917 1.72876 53.3387 1.5992 53.3111 1.52657C53.2821 1.45064 53.3536 1.36549 53.4792 1.32623C53.5994 1.28868 53.8206 1.17074 53.9709 1.06415C54.2582 0.860367 54.2475 0.852021 54.2838 1.30922C54.2893 1.37801 54.3385 1.46806 54.3931 1.50934C54.4555 1.55649 54.4381 1.61954 54.3463 1.67899C54.2659 1.73103 54.2239 1.79755 54.253 1.82682C54.3058 1.87998 54.675 1.96313 54.9206 1.97717C54.9939 1.98136 55.0193 2.03569 54.9788 2.10166C54.9305 2.18037 54.9611 2.19779 55.0723 2.15483C55.1802 2.11312 55.2376 2.14194 55.2376 2.23789C55.2376 2.31871 55.1929 2.38483 55.1382 2.38483C55.0836 2.38483 55.0481 2.4186 55.0595 2.45987C55.0708 2.50115 54.9473 2.67455 54.785 2.84522C54.5466 3.09603 54.4574 3.13482 54.3201 3.04754C54.1865 2.9627 54.1183 2.98196 54.0015 3.13747C53.9198 3.24631 53.8516 3.43668 53.8498 3.5605C53.8475 3.73161 53.7885 3.78563 53.6042 3.78563C53.4708 3.78563 53.334 3.7406 53.3003 3.68557C53.2089 3.53664 53.0812 3.56434 53.0111 3.74831C52.9343 3.94987 53.2346 4.19761 53.4695 4.12651C53.5915 4.08957 53.6961 4.1887 53.8447 4.4822C54.0703 4.92755 54.0137 5.1894 53.6494 5.38577C53.527 5.45174 53.4793 5.54897 53.5186 5.65224C53.5757 5.80199 53.59 5.80187 53.6998 5.65071C53.7653 5.56045 53.9146 5.48659 54.0315 5.48659C54.1484 5.48659 54.2441 5.43853 54.2441 5.37979C54.2441 5.25526 54.6581 5.36176 54.7533 5.51076C54.7923 5.57192 54.8398 5.5681 54.8813 5.50047C54.9658 5.36289 55.6622 5.38291 55.7546 5.52556C55.8367 5.6524 55.4616 6.08693 55.2699 6.08693C55.1062 6.08693 55.096 6.25618 55.2565 6.31007C55.3301 6.33477 55.3848 6.62555 55.4014 7.07965C55.416 7.48109 55.4759 7.95566 55.5344 8.13426C55.5929 8.31285 55.6582 8.55001 55.6795 8.66127C55.7007 8.77254 55.7629 9.02677 55.8176 9.22624C55.9118 9.56998 55.9046 9.58891 55.6792 9.58891C55.3832 9.58891 55.1435 10.0166 55.1214 10.5843C55.108 10.9297 55.0845 10.9694 54.9569 10.8633C54.8275 10.7557 54.8154 10.7952 54.8643 11.1648C54.9053 11.4744 54.8858 11.59 54.7926 11.59C54.5791 11.59 54.5336 12.0145 54.7194 12.2736C54.8131 12.4043 55.0016 12.7201 55.1382 12.9753C55.3857 13.4376 55.7343 13.6558 55.7343 13.3484C55.7343 13.2618 55.8066 13.191 55.895 13.191C56.0044 13.191 56.0397 13.2521 56.0057 13.3831C55.9685 13.5262 56.0226 13.5942 56.2176 13.6497C56.3616 13.6906 56.5176 13.7151 56.5643 13.7042C56.6109 13.6933 56.7338 13.7114 56.8375 13.7446C57.0605 13.8158 57.0918 14.0915 56.8769 14.0915C56.7949 14.0915 56.7278 14.1754 56.7278 14.2781C56.7278 14.5468 57.106 14.992 57.3343 14.992C57.5673 14.992 57.6937 15.2599 57.5358 15.4189C57.4739 15.4813 57.4233 15.6971 57.4233 15.8985C57.4233 16.1682 57.4861 16.3122 57.6616 16.4449C57.8882 16.6163 57.8933 16.6441 57.7654 17.0092C57.6583 17.3149 57.6565 17.3933 57.7568 17.3933C57.9219 17.3933 58.3174 18.3118 58.3174 18.695C58.3174 19.0885 58.0613 19.0927 57.6982 18.7053C57.5493 18.5463 57.2372 18.3164 57.0047 18.1944C56.1763 17.7595 54.6415 16.3323 54.6415 15.9969C54.6415 15.7302 54.434 15.2921 54.3076 15.2921C54.245 15.2921 54.2513 15.2449 54.3236 15.1721C54.4999 14.9945 54.4772 13.9446 54.2938 13.7913C54.2118 13.7228 54.1447 13.5849 54.1447 13.4848C54.1447 13.3847 54.0979 13.2736 54.0406 13.238C53.968 13.1928 53.9681 13.1347 54.041 13.0462C54.1157 12.9556 54.0964 12.7853 53.9738 12.4522C53.8308 12.0636 53.8234 11.9508 53.9294 11.7798C54.074 11.5466 54.0136 11.4293 53.5156 10.976C53.3362 10.8127 53.2258 10.6126 53.2258 10.4507C53.2258 10.149 53.0825 10.1119 52.8921 10.3644C52.708 10.6087 52.7224 10.764 52.9525 11.0128C53.065 11.1344 53.1512 11.3659 53.1512 11.5464C53.1512 11.7217 53.1785 12.0027 53.2119 12.1706C53.2607 12.4166 53.2409 12.4714 53.1101 12.4521C53.0208 12.4389 52.8792 12.3296 52.7955 12.2092C52.6195 11.9562 52.4558 11.923 52.4558 12.1404C52.4558 12.2229 52.3845 12.2904 52.2975 12.2904C52.2104 12.2904 52.1158 12.3805 52.0872 12.4906C52.0586 12.6006 51.9993 12.6907 51.9553 12.6907C51.8145 12.6907 51.7359 13.2908 51.8574 13.4383C51.9204 13.5148 51.9976 13.8394 52.0289 14.1596C52.0602 14.4798 52.15 14.8697 52.2283 15.026C52.3652 15.299 52.3783 15.3033 52.5623 15.1355C52.6745 15.0333 52.7538 15.0091 52.7538 15.0772C52.7538 15.1411 52.6421 15.2913 52.5055 15.4109C52.3689 15.5305 52.2571 15.6909 52.2571 15.7672C52.2571 15.8584 52.1919 15.8851 52.0668 15.8451C51.9621 15.8117 51.8503 15.8269 51.8183 15.879C51.7863 15.9311 51.6708 15.9502 51.5615 15.9215C51.4235 15.8851 51.3629 15.9184 51.3629 16.0309C51.3629 16.1199 51.3294 16.1873 51.2884 16.1808C50.9931 16.1338 50.8555 16.2214 50.8021 16.4906C50.7412 16.7971 50.6051 16.9541 50.2347 17.1451C50.1175 17.2055 50.0282 17.3327 50.0361 17.4277C50.046 17.5472 50.0153 17.571 49.9363 17.505C49.8587 17.4402 49.7039 17.5186 49.4535 17.7497C48.8962 18.2641 48.7476 18.5397 48.8196 18.9259C48.8537 19.1089 48.8479 19.2926 48.8067 19.3341C48.7655 19.3755 48.7238 19.6336 48.714 19.9075C48.7042 20.1815 48.6483 20.4636 48.5899 20.5345C48.5315 20.6054 48.4881 20.9571 48.4934 21.3162C48.4988 21.6752 48.4536 22.0621 48.3931 22.176C48.3326 22.2899 48.2831 22.4959 48.2831 22.6338C48.2831 22.7718 48.2384 22.9125 48.1838 22.9465C48.1291 22.9805 48.0844 23.0957 48.0844 23.2025C48.0844 23.3507 48.1536 23.3967 48.3766 23.3967C48.5373 23.3967 48.6962 23.352 48.7297 23.2974C48.7634 23.2426 48.898 23.321 49.0305 23.4725C49.2228 23.6925 49.2709 23.7122 49.2735 23.5718C49.2773 23.3591 49.4753 23.3346 49.4753 23.5468C49.4753 23.6294 49.5424 23.6969 49.6243 23.6969C49.7063 23.6969 49.7733 23.6294 49.7733 23.5468C49.7733 23.4643 49.8404 23.3967 49.9224 23.3967C50.0921 23.3967 50.1245 23.1414 49.9672 23.0435C49.7742 22.9234 50.0892 22.6751 50.3638 22.731C50.9659 22.8534 51.2732 22.9514 51.2702 23.0199C51.2684 23.0602 51.4265 23.254 51.6216 23.4504C51.8447 23.6751 51.9543 23.8652 51.9171 23.9629C51.8386 24.1688 52.0452 24.8456 52.2561 25.0736C52.3485 25.1735 52.5436 25.4949 52.6898 25.788C52.9547 26.3192 52.9554 26.3265 52.911 28.1357C52.8639 30.0529 52.8372 30.3841 52.7129 30.5865C52.6705 30.6557 52.662 30.8174 52.694 30.9458C52.7692 31.2476 52.4152 32.0572 52.0723 32.3676C51.8538 32.5655 51.7399 32.5955 51.3899 32.5477L50.9697 32.4903L50.9053 32.8963C50.8541 33.2188 50.7986 33.3024 50.6358 33.3024C50.4405 33.3024 50.4394 33.2961 50.6123 33.1687ZM55.3954 28.1917C55.2455 28.0223 55.1473 27.8197 55.1771 27.7414C55.207 27.6632 55.1913 27.5991 55.1424 27.5991C55.041 27.5991 54.7408 27.0327 54.7408 26.8415C54.7408 26.7719 54.5896 26.6208 54.4048 26.5058C54.22 26.3907 54.0103 26.1507 53.9388 25.9723C53.8673 25.7939 53.6569 25.4454 53.4714 25.1978C53.2858 24.9501 53.0731 24.6012 52.9987 24.4223C52.9084 24.2054 52.7955 24.0971 52.6596 24.0971C52.4557 24.0971 52.0584 23.7746 52.0584 23.6091C52.0584 23.5608 51.9913 23.4652 51.9094 23.3967C51.8274 23.3282 51.7603 23.2024 51.7603 23.1172C51.7603 23.032 51.6839 22.8772 51.5904 22.7732C51.4583 22.6261 51.4485 22.5666 51.5465 22.5056C51.7237 22.3954 51.5803 21.8821 51.3558 21.8229C51.2528 21.7958 51.2005 21.7171 51.2314 21.6359C51.3143 21.4184 51.4574 21.4697 51.5653 21.7555C51.6192 21.8984 51.7523 22.0387 51.8609 22.0673C51.9695 22.0959 52.0584 22.183 52.0584 22.2609C52.0584 22.3388 52.1366 22.4305 52.2323 22.4649C52.5367 22.5742 52.6634 22.715 52.565 22.8347C52.4469 22.9782 52.7101 23.3047 53.0767 23.4697C53.227 23.5373 53.3499 23.6386 53.3499 23.6948C53.3499 23.751 53.399 23.797 53.4589 23.797C53.5188 23.797 53.8429 24.04 54.1791 24.3371C54.5154 24.6341 54.947 24.9457 55.1382 25.0293L55.486 25.1814L55.0109 25.1896C54.4327 25.1995 54.3721 25.3116 54.592 25.9639C54.813 26.6194 55.1193 27.0982 55.3202 27.102C55.4114 27.1038 55.573 27.1715 55.6795 27.2526C55.7859 27.3336 55.9461 27.3766 56.0354 27.348C56.2508 27.2792 56.5059 27.7901 56.3154 27.9086C56.2469 27.9513 56.1505 27.961 56.101 27.9302C56.0516 27.8994 56.0718 27.8356 56.146 27.7883C56.2451 27.725 56.248 27.7018 56.1566 27.7007C55.9422 27.6981 55.6496 28.0617 55.7445 28.2127C55.9902 28.6031 55.7464 28.5885 55.3954 28.1917ZM54.9474 27.8576C54.9431 27.7521 54.9665 27.693 54.9996 27.7263C55.0326 27.7595 55.0361 27.8458 55.0074 27.918C54.9757 27.9979 54.9521 27.9742 54.9474 27.8576ZM57.7213 27.4297C57.7213 27.1452 57.7703 27.0013 57.8816 26.9582C58.0184 26.9054 58.0319 26.9516 57.9733 27.2727C57.8727 27.824 57.7213 27.9183 57.7213 27.4297ZM58.0884 26.7348C57.9486 26.5939 58.0136 25.7217 58.1684 25.6619C58.2504 25.6302 58.3174 25.5353 58.3174 25.451C58.3174 25.3668 58.3621 25.2978 58.4168 25.2978C58.5523 25.2978 58.5419 25.4114 58.3681 25.8303C58.2867 26.0266 58.2457 26.2545 58.2771 26.3367C58.3437 26.5117 58.1896 26.8367 58.0884 26.7348ZM58.6225 24.7284C58.6186 24.5528 58.6602 24.3813 58.7148 24.3473C58.834 24.2731 58.834 24.5683 58.7148 24.8476C58.6429 25.0162 58.6283 24.9975 58.6225 24.7284ZM58.9292 23.1966C58.9292 23.059 58.9518 23.0028 58.9793 23.0716C59.0069 23.1403 59.0069 23.2529 58.9793 23.3217C58.9518 23.3905 58.9292 23.3342 58.9292 23.1966ZM49.0282 22.6963C48.9945 22.6413 49.0142 22.5963 49.072 22.5963C49.1299 22.5963 49.1772 22.6413 49.1772 22.6963C49.1772 22.7514 49.1575 22.7964 49.1334 22.7964C49.1093 22.7964 49.062 22.7514 49.0282 22.6963ZM58.5627 21.3906C58.4715 21.2419 58.544 21.1892 58.7035 21.2885C58.7889 21.3416 58.799 21.3932 58.7323 21.4348C58.6756 21.4701 58.5993 21.4502 58.5627 21.3906ZM58.4168 20.6952C58.4168 20.6402 58.4615 20.5951 58.5161 20.5951C58.5708 20.5951 58.6155 20.6402 58.6155 20.6952C58.6155 20.7502 58.5708 20.7953 58.5161 20.7953C58.4615 20.7953 58.4168 20.7502 58.4168 20.6952ZM58.3092 20.1449C58.3008 20.0899 58.2998 20.0092 58.307 19.9657C58.3142 19.9222 58.2769 19.8053 58.2241 19.7059C58.159 19.5835 58.165 19.488 58.2426 19.4098C58.3855 19.2659 58.5504 19.2577 58.4638 19.3989C58.4285 19.4563 58.4445 19.5577 58.4994 19.6243C58.5673 19.7067 58.5553 19.8249 58.4618 19.9951C58.3863 20.1325 58.3176 20.1999 58.3092 20.1449ZM51.8597 16.1485C51.8597 16.1243 51.9044 16.0766 51.959 16.0426C52.0137 16.0086 52.0584 16.0284 52.0584 16.0867C52.0584 16.145 52.0137 16.1927 51.959 16.1927C51.9044 16.1927 51.8597 16.1728 51.8597 16.1485ZM21.26 11.59C21.26 11.425 21.3047 11.2899 21.3593 11.2899C21.414 11.2899 21.4587 11.425 21.4587 11.59C21.4587 11.7551 21.414 11.8902 21.3593 11.8902C21.3047 11.8902 21.26 11.7551 21.26 11.59ZM35.0273 11.2019C34.9966 11.1518 35.0382 11.0849 35.1198 11.0534C35.2015 11.0218 35.2683 11.0369 35.2683 11.087C35.2683 11.2226 35.0917 11.3069 35.0273 11.2019ZM25.2482 10.7989C25.1482 10.7364 25.1435 10.6958 25.23 10.642C25.3663 10.5571 25.4686 10.6323 25.4182 10.7801C25.3975 10.8407 25.3274 10.8484 25.2482 10.7989ZM20.8348 10.4979C20.6198 10.2401 20.5837 10.1364 20.672 10.0293C20.8201 9.84957 20.7031 9.3888 20.5094 9.3888C20.392 9.3888 20.3812 9.34674 20.4604 9.19771C20.5242 9.07765 20.6311 9.02486 20.7482 9.05568C20.8614 9.0855 21.0429 9.0035 21.211 8.84654C21.529 8.54977 21.6435 8.53142 21.9116 8.73427C22.0969 8.87452 22.0875 8.89546 21.6703 9.27261C21.2774 9.62777 21.2303 9.7203 21.1736 10.247L21.1109 10.8289L20.8348 10.4979ZM18.3457 10.4227C18.2304 10.3066 18.2732 10.1997 18.4796 10.0884C18.6392 10.0024 18.6925 10.0139 18.7425 10.145C18.8254 10.3627 18.5072 10.5854 18.3457 10.4227ZM41.5029 9.16367C41.3881 8.84913 41.665 8.69436 42.0656 8.84919C42.2907 8.93618 42.2601 9.03938 41.9697 9.17263C41.6476 9.32043 41.5595 9.31874 41.5029 9.16367ZM22.1541 8.6884C22.082 8.55273 22.0809 8.48829 22.1506 8.48829C22.2072 8.48829 22.2423 8.43201 22.2286 8.36322C22.2147 8.29333 22.2805 8.25112 22.3776 8.26755C22.4733 8.28372 22.5515 8.25541 22.5515 8.20465C22.5515 8.15388 22.6856 8.05639 22.8496 7.98801C23.0135 7.91962 23.1476 7.83393 23.1476 7.79758C23.1476 7.76123 23.263 7.72187 23.404 7.71011C23.545 7.69836 23.7327 7.64801 23.821 7.59822C23.9169 7.54419 24.0772 7.54429 24.2187 7.59848C24.3491 7.64841 24.4987 7.66256 24.5512 7.62991C24.6036 7.59726 24.7125 7.62567 24.7931 7.69303C24.8902 7.77421 25.1251 7.79622 25.4898 7.75831C25.921 7.71349 26.0522 7.73308 26.0963 7.84888C26.1273 7.93015 26.1241 8.02536 26.0893 8.06047C25.9935 8.15696 25.053 8.26104 24.9359 8.18812C24.8795 8.15304 24.5994 8.16381 24.3134 8.21205C24.0274 8.26029 23.6663 8.31252 23.5109 8.32813C23.3556 8.34374 23.1991 8.39742 23.1632 8.44742C23.1273 8.49741 22.9862 8.55043 22.8496 8.56524C22.713 8.58005 22.5515 8.65884 22.4909 8.74034C22.3444 8.93713 22.2811 8.92737 22.1541 8.6884ZM41.1299 8.84439C41.1299 8.82013 41.1746 8.77244 41.2293 8.73843C41.2839 8.70442 41.3286 8.72428 41.3286 8.78256C41.3286 8.84083 41.2839 8.88852 41.2293 8.88852C41.1746 8.88852 41.1299 8.86866 41.1299 8.84439ZM2.71267 8.66768C2.65788 8.59653 2.58515 8.45952 2.55106 8.36322C2.51471 8.26051 2.38754 8.18812 2.24345 8.18812C2.10836 8.18812 1.96909 8.14129 1.93396 8.08405C1.89255 8.01657 1.96035 8.0028 2.1268 8.04487C2.33879 8.09846 2.3835 8.07488 2.3835 7.9095C2.3835 7.54839 2.8714 7.5518 2.87873 7.91296C2.87956 7.95424 2.95001 7.98801 3.03527 7.98801C3.1536 7.98801 3.18299 8.0766 3.15946 8.36239C3.127 8.7564 2.9003 8.91131 2.71267 8.66768ZM40.2624 8.54571C40.0197 8.43265 39.8139 7.96852 39.9029 7.73505C39.9697 7.55977 40.0797 7.55015 40.3502 7.69594C40.5863 7.82323 40.7212 7.73648 40.552 7.5661C40.3628 7.37554 40.4105 7.33878 40.8744 7.31782C41.3185 7.29776 41.6093 7.47325 41.4803 7.68345C41.3795 7.8477 41.0515 7.80556 40.9304 7.6128C40.856 7.49445 40.8328 7.48634 40.8588 7.58778C40.8799 7.67033 40.996 7.78787 41.1166 7.849L41.336 7.96013L41.0591 8.14641C40.9068 8.24886 40.7432 8.32083 40.6955 8.30634C40.6478 8.29185 40.6338 8.34565 40.6644 8.42589C40.7372 8.61703 40.541 8.67553 40.2624 8.54571ZM32.2803 7.92808C32.3937 7.71503 32.4865 7.48377 32.4865 7.41416C32.4865 7.34456 32.5312 7.28761 32.5858 7.28761C32.6405 7.28761 32.6852 7.33264 32.6852 7.38767C32.6852 7.4427 32.7331 7.48772 32.7916 7.48772C32.9646 7.48772 33.2054 7.78207 33.1504 7.92632C33.1225 7.99963 32.9729 8.08744 32.8179 8.12146C32.6629 8.15547 32.4322 8.21303 32.3052 8.24937L32.0742 8.31544L32.2803 7.92808ZM31.4681 7.53055C31.1285 7.34496 31.1031 6.96352 31.4157 6.74297C31.6977 6.54407 31.8286 6.5444 31.7526 6.74384C31.7074 6.86246 31.739 6.88575 31.8827 6.83983C32.1097 6.76727 32.2346 6.93114 32.1323 7.16733C32.0917 7.261 32.0682 7.41643 32.0801 7.51274C32.1067 7.7294 31.846 7.73699 31.4681 7.53055ZM41.6918 7.21117C41.6347 7.11626 41.8319 6.9428 42.0241 6.9188C42.106 6.90857 42.2845 6.86671 42.4206 6.82578C42.6607 6.7536 42.6635 6.75835 42.515 6.98359C42.3657 7.20999 41.7872 7.36994 41.6918 7.21117ZM30.8638 6.82068C30.7431 6.69914 30.7951 6.59256 30.9466 6.65109C31.0285 6.68276 31.0956 6.74889 31.0956 6.79803C31.0956 6.90293 30.9587 6.9163 30.8638 6.82068ZM31.0597 6.43732C30.9812 6.23124 31.156 5.88682 31.3392 5.88682C31.4147 5.88682 31.4964 5.83053 31.5208 5.76175C31.58 5.59474 31.6625 5.68186 31.7343 5.98708C31.8082 6.30151 31.7106 6.45345 31.3813 6.5367C31.1914 6.58468 31.1058 6.55822 31.0597 6.43732ZM48.5812 5.94755C48.5812 5.92592 48.6482 5.88231 48.7302 5.85063C48.8121 5.81896 48.8792 5.83665 48.8792 5.88996C48.8792 5.94326 48.8121 5.98687 48.7302 5.98687C48.6482 5.98687 48.5812 5.96918 48.5812 5.94755ZM26.3711 4.57736C26.3344 4.51753 26.3433 4.42936 26.3909 4.38141C26.5084 4.26308 26.767 4.43534 26.6814 4.57489C26.5946 4.71632 26.4571 4.71741 26.3711 4.57736ZM26.9229 4.58608C26.9229 4.53105 27.0149 4.48602 27.1275 4.48602C27.24 4.48602 27.3044 4.53105 27.2706 4.58608C27.2369 4.64111 27.1448 4.68614 27.0661 4.68614C26.9873 4.68614 26.9229 4.64111 26.9229 4.58608ZM26.0791 3.88683C26.0443 3.83011 26.0842 3.81334 26.1726 3.84751C26.3447 3.91402 26.3762 3.98574 26.2333 3.98574C26.1819 3.98574 26.1125 3.94123 26.0791 3.88683ZM24.8862 3.48546C24.58 3.40699 24.6369 3.37288 25.1031 3.35538C25.2498 3.34988 25.3876 3.39941 25.4095 3.46544C25.453 3.59701 25.3386 3.60138 24.8862 3.48546ZM24.7041 3.11858C24.6677 3.08189 24.6379 3.01857 24.6379 2.97786C24.6379 2.88167 25.022 2.98261 25.0923 3.09731C25.1548 3.19909 24.8032 3.21836 24.7041 3.11858ZM49.0951 2.73304C48.9295 2.36711 48.9498 2.20726 49.1772 2.08466C49.3966 1.96644 49.4041 1.98133 49.3779 2.48489C49.3537 2.94924 49.2386 3.05026 49.0951 2.73304Z"/>
</mask>
<path d="M50.6123 33.1687C50.7858 33.0409 50.7863 33.0128 50.6239 32.5203C50.5305 32.2372 50.3747 31.9067 50.2776 31.786C50.124 31.5949 50.1183 31.5332 50.2339 31.3088C50.3069 31.1671 50.412 31.0454 50.4674 31.0386C50.5228 31.0317 50.6523 31.0204 50.7553 31.0136C50.9814 30.9984 51.093 30.6406 50.9536 30.3781C50.8818 30.2432 50.8877 30.145 50.9736 30.0407C51.0967 29.8914 51.0932 29.8769 50.7652 29.1784C50.6677 28.971 50.6649 28.8735 50.7531 28.7665C50.8425 28.658 50.8346 28.5978 50.7184 28.5007C50.6358 28.4316 50.5681 28.268 50.5681 28.1372C50.5681 28.0063 50.5342 27.8993 50.4927 27.8993C50.4061 27.8993 50.1204 28.319 50.1449 28.4102C50.1539 28.4436 50.0504 28.5307 49.9149 28.6037C49.7795 28.6767 49.6426 28.8408 49.6109 28.9682C49.5791 29.0957 49.5164 29.2 49.4716 29.2C49.4268 29.2 49.3257 29.2649 49.247 29.3442C49.0383 29.5543 48.7277 29.43 48.5279 29.0563C48.4037 28.824 48.2788 28.7267 48.0947 28.7187C47.9524 28.7125 47.6664 28.6908 47.459 28.6704C47.2516 28.6501 47.0607 28.6681 47.0347 28.7105C46.9651 28.8239 46.6054 28.7321 46.3195 28.528C45.9655 28.2753 45.875 28.2232 45.6503 28.1429C45.4616 28.0754 45.4633 28.0687 45.6841 28.0099L45.9165 27.9479L45.6592 27.6683C45.5177 27.5145 45.402 27.346 45.402 27.2938C45.402 27.2416 45.3553 27.1989 45.2983 27.1989C45.2412 27.1989 45.0736 27.0841 44.9257 26.9438C44.6741 26.7051 44.6091 26.6921 43.9117 26.7409C42.8432 26.8155 42.7197 26.837 42.7183 26.9488C42.7176 27.0038 42.5611 27.1505 42.3706 27.2749C41.9766 27.5318 41.9363 27.6959 42.2228 27.8761C42.445 28.0158 42.4929 28.4877 42.3043 28.6777C42.2396 28.7428 42.1827 29.0994 42.1773 29.4732C42.1687 30.0697 42.1345 30.186 41.8905 30.4475L41.6134 30.7445L41.1744 30.5855C40.8143 30.4551 40.7042 30.4495 40.5619 30.5543C40.4203 30.6586 40.3389 30.6563 40.1187 30.5416C39.8763 30.4153 39.8133 30.4224 39.4953 30.6113C39.3008 30.7269 39.1158 30.9251 39.0842 31.0518C39.0437 31.2143 38.9308 31.3002 38.7011 31.3437C38.522 31.3775 38.2962 31.4933 38.1995 31.601C38.1027 31.7087 37.9776 31.7682 37.9215 31.7333C37.8654 31.6983 37.5622 31.6791 37.2478 31.6905C36.7723 31.7078 36.6421 31.6746 36.4743 31.4932C36.343 31.3512 36.2008 31.2939 36.0671 31.3291C35.929 31.3655 35.8286 31.3207 35.7602 31.1921C35.6332 30.9531 34.9302 30.9297 34.5097 31.1505C34.3532 31.2327 34.1425 31.3003 34.0414 31.3006C33.8333 31.3013 33.2813 30.751 33.2813 30.5428C33.2813 30.394 32.7898 30.1005 32.5407 30.1005C32.2947 30.1005 31.6511 29.7167 31.5757 29.5251C31.5198 29.3829 31.5056 29.3942 31.5 29.5858C31.4961 29.7154 31.3812 29.9553 31.2446 30.1188C30.9862 30.428 30.9186 30.8828 31.1033 31.0688C31.1797 31.1458 31.1367 31.2507 30.9525 31.4362C30.7434 31.6468 30.6342 31.6842 30.3736 31.6345C30.197 31.6008 29.9985 31.5307 29.9326 31.4786C29.8667 31.4266 29.7721 31.4094 29.7223 31.4403C29.6198 31.5041 29.3695 31.2417 29.2734 30.9696C29.2257 30.8346 29.1264 30.7962 28.8857 30.8196C28.7078 30.8368 28.5175 30.7969 28.4628 30.7309C28.3867 30.6389 28.2358 30.6597 27.817 30.8201C27.5165 30.9352 27.1435 31.0245 26.988 31.0185C26.7855 31.0107 26.7204 31.0469 26.7582 31.1461C26.8172 31.301 26.6617 31.3807 26.1367 31.4643C25.9407 31.4956 25.7495 31.5402 25.7119 31.5634C25.6742 31.5867 25.5401 31.4951 25.4138 31.36C25.2757 31.2121 25.047 31.1016 24.8397 31.0826C24.5468 31.0558 24.4813 31.0023 24.4031 30.7259C24.3525 30.547 24.2505 30.4007 24.1764 30.4007C24.0929 30.4007 24.0418 30.2862 24.0418 30.0989C24.0418 29.8524 23.9779 29.7665 23.693 29.6297C23.4445 29.5103 23.3137 29.4931 23.2376 29.5697C23.0693 29.7391 22.756 29.6015 22.5947 29.2874C22.439 28.9842 22.1541 28.8954 22.1541 29.15C22.1541 29.2325 22.087 29.3001 22.0051 29.3001C21.8883 29.3001 21.8561 29.1631 21.8561 28.6679C21.8561 28.3202 21.786 27.7979 21.7003 27.5074C21.6146 27.2168 21.5652 26.9582 21.5905 26.9327C21.6158 26.9072 21.5294 26.77 21.3986 26.6278C21.1039 26.3076 21.1019 26.2406 21.3841 26.1495C21.5785 26.0867 21.5564 26.0672 21.2156 26.0003C20.9331 25.9448 20.7857 25.9613 20.6883 26.0593C20.5525 26.1961 20.1747 26.1909 19.8359 26.0475C19.6936 25.9873 19.6826 25.9524 19.7857 25.8882C19.8894 25.8237 19.8752 25.7736 19.7196 25.6551C19.6105 25.5722 19.4669 25.5029 19.4003 25.5011C19.3337 25.4994 19.3049 25.4304 19.3364 25.3478C19.3782 25.2381 19.324 25.1978 19.1346 25.1978C18.8871 25.1978 18.7883 25.0188 18.9474 24.8586C18.9869 24.8188 19.0291 24.6312 19.0411 24.4417C19.059 24.1596 19.028 24.0971 18.8699 24.0971C18.7637 24.0971 18.5899 24.0095 18.4836 23.9025C18.3289 23.7467 18.2303 23.7251 17.9904 23.7944C17.6631 23.8889 16.7729 23.7294 15.746 23.3923C15.4182 23.2847 15.0864 23.1966 15.0087 23.1966C14.9311 23.1966 14.7886 23.1247 14.6921 23.0367C14.5956 22.9488 14.4745 22.9031 14.4229 22.9352C14.2701 23.0304 14.2145 23.5349 14.3391 23.6969C14.4387 23.8264 14.4314 23.8288 14.2861 23.7142C14.0215 23.5056 13.6549 23.6018 13.6834 23.8723C13.7101 24.1264 13.442 24.1844 13.2223 23.9721C13.1166 23.8699 13.1029 23.9202 13.1476 24.2472C13.2672 25.1224 13.2661 25.1407 13.0933 25.176C13.0004 25.195 12.8276 25.0985 12.7093 24.9616C12.5911 24.8246 12.4396 24.7337 12.3727 24.7596C12.2145 24.8207 12.0484 24.6123 12.0051 24.2983C11.984 24.1454 11.8944 24.0345 11.7731 24.0112C11.6644 23.9903 11.5144 23.8855 11.4399 23.7783C11.3638 23.6688 11.2401 23.6082 11.1578 23.6401C11.0771 23.6712 10.9029 23.6694 10.7707 23.6359C10.5871 23.5895 10.5302 23.5081 10.5302 23.2917C10.5302 22.9452 10.3799 22.8294 10.2418 23.0695C10.1642 23.2043 10.1478 23.1323 10.1729 22.7678C10.1997 22.3789 10.1704 22.2699 10.0171 22.1873C9.91333 22.1313 9.83513 22.0316 9.84334 21.9657C9.88003 21.6713 9.82285 21.5848 9.6112 21.6144C9.44422 21.6378 9.37975 21.5898 9.35641 21.4245C9.32862 21.2277 9.28192 21.2093 8.93418 21.2583C8.70463 21.2906 8.54319 21.2723 8.54319 21.2139C8.54319 21.1592 8.35318 21.1241 8.12095 21.1358C7.77588 21.1534 7.69311 21.1958 7.66807 21.368C7.65121 21.484 7.57128 21.6044 7.49044 21.6356C7.32812 21.6983 7.20145 21.4715 7.28149 21.2615C7.37795 21.0083 7.2087 20.9067 6.78555 20.9639C6.46408 21.0073 6.36055 21.0695 6.31665 21.2457C6.25879 21.4778 5.86074 21.6685 5.86074 21.464C5.86074 21.4019 5.7898 21.4531 5.70309 21.5778C5.5829 21.7506 5.57241 21.8371 5.65893 21.9421C5.74682 22.0488 5.73197 22.1028 5.59304 22.1815C5.4245 22.277 5.42768 22.2963 5.64571 22.5016C5.80408 22.6507 5.85971 22.7878 5.82093 22.9333C5.78967 23.0506 5.76349 23.2029 5.76275 23.2717C5.762 23.3405 5.69433 23.3967 5.61237 23.3967C5.43282 23.3967 5.41299 23.7538 5.58653 23.8618C5.86336 24.0341 5.20129 24.0562 4.80407 23.8879C4.44448 23.7355 4.35988 23.7312 4.12655 23.8531C3.9799 23.9297 3.8295 23.9881 3.79232 23.9829C3.47475 23.9381 3.37517 24.0146 3.3958 24.2873C3.40787 24.4469 3.36099 24.6464 3.29161 24.7306C3.18698 24.8575 3.19821 24.9013 3.35752 24.9871C3.46315 25.0441 3.5778 25.0622 3.61231 25.0275C3.64681 24.9927 3.67505 25.0168 3.67505 25.081C3.67505 25.1501 3.51607 25.1978 3.28554 25.1978C2.86337 25.1978 2.88895 25.1556 2.72356 26.1233C2.6751 26.4068 2.612 26.4985 2.46526 26.4985C2.05146 26.4985 1.88675 26.314 1.88675 25.8505C1.88675 25.6081 1.83914 25.38 1.78095 25.3438C1.72275 25.3076 1.68278 25.1586 1.69212 25.0127C1.73647 24.3201 1.68817 24.148 1.40374 23.985C1.17035 23.8513 1.11117 23.7378 1.06642 23.3379C1.03657 23.0712 0.962099 22.8362 0.900933 22.8157C0.751617 22.7655 0.495852 22.2547 0.495852 22.0066C0.495852 21.8969 0.411246 21.7475 0.307838 21.6746C0.147092 21.5612 0.111134 21.3638 0.0599115 20.3134L0 19.085L0.239904 19.3457C0.45137 19.5755 0.504313 19.591 0.68653 19.4764C0.852624 19.3719 0.932302 19.3709 1.09195 19.4713C1.27034 19.5835 1.29065 19.5712 1.29065 19.3512C1.29065 19.2164 1.33536 19.0783 1.39 19.0443C1.44464 19.0103 1.4897 19.0189 1.49013 19.0634C1.4909 19.1444 1.95548 19.3945 2.10526 19.3945C2.25529 19.3945 2.18484 19.1043 2.01094 19.0059C1.85729 18.9191 1.8553 18.9006 1.9938 18.8468C2.18923 18.7709 2.68155 18.9512 2.68155 19.0986C2.68155 19.2446 3.1042 19.1102 3.20807 18.9311C3.25177 18.8558 3.35236 18.7941 3.43161 18.7941C3.51086 18.7941 3.5757 18.7544 3.5757 18.7057C3.5757 18.6571 3.66511 18.5938 3.77439 18.565C4.01973 18.5004 4.04517 17.9851 3.8241 17.5583C3.74283 17.4013 3.70215 17.1693 3.7337 17.0427C3.7818 16.8497 3.74355 16.8021 3.49664 16.7475C3.24283 16.6913 3.20545 16.6411 3.22558 16.3834C3.23842 16.2189 3.34481 15.9944 3.46199 15.8845C3.71636 15.6458 3.72078 15.6025 3.52021 15.3142C3.37398 15.1039 3.37935 15.0862 3.61679 14.9953C3.7658 14.9382 3.89565 14.7888 3.9356 14.6285C3.99227 14.4011 3.94375 14.3033 3.63111 14.0148L3.25922 13.6715L3.53539 13.3812C3.8621 13.0378 3.93259 13.0242 4.00188 13.291C4.03998 13.4377 4.1374 13.4911 4.36706 13.4911C4.57068 13.4911 4.6565 13.4524 4.61232 13.3804C4.51704 13.2251 4.76353 12.4849 4.9997 12.2171C5.10806 12.0942 5.27906 11.9674 5.37971 11.9352C5.57033 11.8743 5.63751 11.4483 5.47267 11.3457C5.42316 11.3149 5.4047 11.2048 5.43165 11.101C5.4586 10.9972 5.43205 10.882 5.37265 10.845C5.21135 10.7446 5.24232 10.4894 5.4158 10.4894C5.49893 10.4894 5.61788 10.3769 5.68012 10.2393C5.74236 10.1017 5.85317 9.98914 5.92636 9.98914C5.99956 9.98914 6.05944 9.9457 6.05944 9.8926C6.05944 9.83951 6.15563 9.74422 6.2732 9.68085C6.45528 9.58271 6.47784 9.58961 6.42535 9.72736C6.34318 9.94301 6.51164 9.93398 6.67474 9.71398C6.74614 9.61768 7.01903 9.43713 7.28116 9.31277C7.79912 9.06702 8.04513 9.11249 8.24635 9.49115C8.42457 9.82652 8.55023 9.71857 8.48199 9.28874C8.43784 9.01068 8.45443 8.88852 8.53635 8.88852C8.6012 8.88852 8.62367 8.83867 8.58628 8.77774C8.54193 8.70546 8.58305 8.68749 8.70461 8.72602C9.09958 8.85123 9.97999 8.98857 10.3876 8.98857C10.8138 8.98857 11.1856 8.76597 11.0711 8.57939C10.9651 8.40672 11.1343 8.10096 11.3545 8.06701C11.4749 8.04846 11.5622 7.97807 11.5485 7.91059C11.5349 7.84311 11.6131 7.78789 11.7224 7.78789C11.8451 7.78789 11.9214 7.72093 11.9219 7.6128C11.9226 7.44412 12.3223 7.18755 12.5844 7.18755C12.6542 7.18755 12.79 7.06373 12.8861 6.9124C13.1271 6.53299 13.3189 6.39428 13.61 6.38875C13.958 6.38215 14.0717 6.28418 14.1492 5.92407C14.206 5.66031 14.2727 5.60194 14.574 5.55271C14.8366 5.50978 15.0028 5.54553 15.2009 5.6876C15.3491 5.79392 15.4925 5.85863 15.5196 5.83141C15.5466 5.80419 15.6281 5.85398 15.7007 5.94205C15.787 6.04686 15.7975 6.12547 15.7309 6.1696C15.5974 6.25811 15.4912 6.68727 15.6028 6.68727C15.6504 6.68727 15.743 6.78823 15.8086 6.91162C15.9551 7.18737 15.9292 9.27685 15.7769 9.46161C15.7197 9.53112 15.5056 9.63844 15.3013 9.7001C14.9952 9.79244 14.887 9.78404 14.6876 9.65242C14.3243 9.41273 14.0021 8.39946 14.0053 7.50724C14.0063 7.22165 13.8368 7.30962 13.6867 7.67254C13.5444 8.01683 13.5378 8.04346 13.5231 8.33146C13.515 8.49066 13.4333 8.59848 13.2871 8.64313C12.9025 8.7606 12.6165 9.09884 12.6165 9.43626C12.6165 9.60827 12.5629 9.80303 12.4973 9.86907C12.4188 9.9481 12.4149 9.98914 12.4857 9.98914C12.5449 9.98914 12.6167 10.0792 12.6453 10.1893C12.7033 10.4127 12.959 10.4566 13.0826 10.2643C13.1268 10.1955 13.163 10.0276 13.163 9.89126C13.163 9.73649 13.2273 9.63052 13.334 9.6093C13.4706 9.58217 13.5026 9.64347 13.4925 9.91349C13.4671 10.5933 13.9344 10.9304 14.1277 10.3718C14.2318 10.0713 14.2358 10.0699 14.7867 10.1392C15.1218 10.1814 15.3889 10.2743 15.4621 10.3742C15.5298 10.4667 15.5422 10.5542 15.4901 10.573C15.3342 10.6293 15.4964 10.7896 15.7093 10.7896C15.9485 10.7896 16.158 10.5976 16.2083 10.3323C16.2287 10.2242 16.3419 10.1253 16.4654 10.1075C16.5867 10.0901 16.7717 9.96593 16.8766 9.83164C16.9972 9.67725 17.1258 9.61007 17.2263 9.64893C17.4126 9.72092 17.42 9.78418 17.2843 10.1436C17.2079 10.3461 17.1523 10.3852 17.0556 10.3044C16.8317 10.1172 16.515 10.2803 16.4674 10.6074C16.4103 10.9987 16.6311 11.2297 16.9788 11.1424C17.5996 10.9864 18.4057 11.057 18.6529 11.2889C18.7767 11.405 18.8904 11.4467 18.9259 11.3889C18.9593 11.3344 19.0803 11.2899 19.1949 11.2899C19.3962 11.2899 19.3972 11.2965 19.225 11.4881C19.0757 11.6542 19.068 11.712 19.1774 11.8447C19.257 11.9414 19.3925 11.9817 19.5249 11.9483C19.6621 11.9136 19.8011 11.9594 19.903 12.0728C20.0033 12.1844 20.1805 12.244 20.3724 12.2306C20.6497 12.2113 20.6749 12.2327 20.6224 12.4431C20.573 12.6415 20.5988 12.6733 20.7921 12.6526C21.1203 12.6173 21.26 12.5065 21.26 12.2814C21.26 11.9227 21.5358 11.9548 21.9025 12.3561C22.2502 12.7366 22.4182 13.0584 22.3205 13.1568C22.2927 13.1848 22.3571 13.2953 22.4635 13.4025C22.57 13.5097 22.6836 13.7311 22.7161 13.8945C22.7485 14.0579 22.831 14.1915 22.8995 14.1915C23.1041 14.1915 23.2681 13.9159 23.1973 13.6912C23.1607 13.5753 23.1847 13.4166 23.2509 13.3362C23.3354 13.2337 23.3378 13.191 23.2591 13.191C23.0837 13.191 23.1285 12.8968 23.3463 12.6179C23.4556 12.478 23.545 12.257 23.545 12.1269C23.545 11.959 23.6013 11.8902 23.7387 11.8902C23.8452 11.8902 24.1453 11.6876 24.4056 11.44C24.6659 11.1923 24.8888 10.9897 24.9009 10.9897C24.9131 10.9897 25.0376 11.0336 25.1778 11.0873C25.522 11.2191 25.5092 11.556 25.1434 11.9941C24.9335 12.2454 24.8678 12.4115 24.9042 12.5993C24.9352 12.7596 24.8941 12.9186 24.796 13.0173C24.709 13.105 24.6379 13.2164 24.6379 13.2651C24.6379 13.3137 24.5475 13.5418 24.4371 13.7719C24.3104 14.036 24.2593 14.2825 24.2986 14.4401C24.3436 14.6206 24.315 14.7077 24.1956 14.7538C24.1047 14.7889 24.0544 14.8809 24.0838 14.9581C24.1168 15.0446 24.0428 15.1346 23.8908 15.1928C23.7553 15.2447 23.6444 15.33 23.6444 15.3824C23.6444 15.4348 23.4998 15.5502 23.3231 15.639C23.0241 15.7892 22.993 15.7884 22.876 15.6272C22.8068 15.532 22.7502 15.4906 22.7502 15.5354C22.7502 15.5802 22.6831 15.5608 22.6012 15.4923C22.5109 15.4168 22.4522 15.4088 22.4522 15.4718C22.4522 15.7267 22.6 15.9102 22.9107 16.0409C23.2128 16.1681 23.2897 16.1623 23.6932 15.9826C24.2771 15.7225 24.6825 15.3366 24.7076 15.0173C24.7339 14.6808 24.8411 14.5855 25.1126 14.657C25.3666 14.7239 25.516 15.1482 25.3459 15.3195C25.2073 15.4591 25.1978 15.8925 25.3333 15.8925C25.3879 15.8925 25.5265 15.987 25.6412 16.1025L25.8497 16.3125L25.7757 16.0778C25.7351 15.9488 25.6306 15.7908 25.5437 15.7268C25.4 15.621 25.4013 15.593 25.5582 15.4184C25.6531 15.3128 25.7307 15.1289 25.7307 15.0099C25.7307 14.7479 25.3577 14.2922 25.1415 14.29C25.0557 14.2892 24.928 14.2517 24.8575 14.2067C24.6974 14.1044 24.8497 13.6481 25.1528 13.3222C25.299 13.165 25.3453 13.0071 25.317 12.7626C25.2777 12.4233 25.4109 12.1904 25.6442 12.1904C25.7105 12.1904 25.8577 12.1116 25.9713 12.0153C26.1724 11.8447 26.1738 11.8454 26.0234 12.0403C25.9385 12.1504 25.8569 12.3862 25.8422 12.5644C25.8203 12.8287 25.8624 12.9099 26.0711 13.0057C26.2117 13.0702 26.3268 13.1608 26.3268 13.207C26.3268 13.2532 26.3925 13.291 26.4727 13.291C26.66 13.291 26.5573 12.9904 26.3085 12.8101C26.0902 12.6519 26.0707 12.3905 26.2771 12.3905C26.3591 12.3905 26.4261 12.4355 26.4261 12.4906C26.4261 12.5456 26.4984 12.5906 26.5868 12.5906C26.6965 12.5906 26.7315 12.5295 26.6972 12.3976C26.6606 12.2564 26.6957 12.2082 26.8278 12.2182C26.9272 12.2258 26.9866 12.2676 26.9598 12.3112C26.9331 12.3548 26.98 12.3905 27.0642 12.3905C27.1483 12.3905 27.2453 12.5035 27.2797 12.6415C27.3176 12.7936 27.4358 12.9162 27.5797 12.9525C27.8689 13.0257 27.8868 13.1492 27.6183 13.2199C27.4826 13.2557 27.4196 13.3564 27.4196 13.5377C27.4196 13.7052 27.4599 13.778 27.5289 13.7351C27.5938 13.6947 27.5852 13.7635 27.5078 13.9043C27.4361 14.0348 27.3916 14.1865 27.409 14.2416C27.4467 14.3611 27.5008 14.6123 27.5114 14.7168C27.5225 14.827 27.817 14.8086 27.817 14.6977C27.817 14.6459 27.774 14.5768 27.7215 14.5441C27.6603 14.506 27.6603 14.3935 27.7215 14.2315C27.774 14.0923 27.817 13.8433 27.817 13.6781C27.817 13.513 27.8659 13.286 27.9256 13.1736C28.0041 13.0259 28.0041 12.9391 27.9256 12.86C27.8659 12.7999 27.817 12.6859 27.817 12.6066C27.817 12.5274 27.7505 12.4126 27.6692 12.3515C27.563 12.2718 27.5383 12.1369 27.5815 11.8734L27.6417 11.5065L28.3254 11.5232C28.8075 11.5351 29.0092 11.5779 29.0092 11.6686C29.0092 11.7632 29.0583 11.7707 29.195 11.6971C29.3356 11.6213 29.3753 11.5003 29.3584 11.1984C29.3434 10.9304 29.3822 10.7821 29.477 10.7454C29.5545 10.7155 29.5931 10.6505 29.5628 10.6012C29.4841 10.4729 30.1243 10.1893 30.4928 10.1893C30.6776 10.1893 30.827 10.1283 30.861 10.0392C30.9245 9.87233 31.1949 9.83183 31.1949 9.98914C31.1949 10.0442 31.2754 10.0892 31.3738 10.0892C31.5958 10.0892 32.0873 9.86554 32.0883 9.76401C32.0887 9.72274 32.1931 9.68897 32.3203 9.68897C32.5183 9.68897 32.5454 9.6478 32.5095 9.40163C32.4564 9.03673 32.9352 8.52374 33.1565 8.70863C33.2658 8.80002 33.2668 8.83638 33.1618 8.9047C33.0586 8.97185 33.0626 9.00822 33.1819 9.0871C33.2639 9.14129 33.3868 9.18631 33.4551 9.18716C33.5234 9.188 33.5793 9.27874 33.5793 9.3888C33.5793 9.62275 33.7584 9.65692 33.8415 9.43883C33.93 9.20644 34.3691 9.26116 34.7474 9.55172C35.0104 9.75373 35.0586 9.83536 34.9555 9.90382C34.8463 9.97629 34.8537 10.018 34.9951 10.1271C35.2448 10.3199 35.2132 10.4557 34.8221 10.8713C34.6313 11.074 34.4748 11.2865 34.4743 11.3436C34.4739 11.4007 34.2723 11.6618 34.0264 11.924C33.7805 12.1861 33.5808 12.4546 33.5825 12.5206C33.5843 12.5879 33.6436 12.5637 33.7176 12.4655C33.7902 12.3692 33.9423 12.2904 34.0555 12.2904C34.1765 12.2904 34.2883 12.205 34.3267 12.0831C34.3653 11.9608 34.4484 11.8975 34.5293 11.9288C34.6047 11.9579 34.7316 11.9161 34.8112 11.8359C34.9994 11.6464 35.3306 11.6488 35.4036 11.8402C35.435 11.9227 35.5095 11.9903 35.5691 11.9903C35.6287 11.9903 35.6528 11.9502 35.6227 11.9012C35.5425 11.7704 36.0146 11.49 36.3151 11.49C36.4575 11.49 36.6411 11.5575 36.723 11.6401C36.915 11.8334 37.3837 11.8319 37.7586 11.6366C38.01 11.5057 38.0379 11.4538 37.9478 11.2844C37.8018 11.0095 37.9078 10.886 38.2334 10.9516C38.4161 10.9884 38.5518 10.9541 38.6381 10.8494C38.7551 10.7074 38.7967 10.7126 39.0611 10.9022C39.2304 11.0236 39.3319 11.1711 39.3014 11.2512C39.2711 11.3307 39.3108 11.3899 39.3944 11.3899C39.5614 11.3899 39.5896 11.5476 39.4393 11.6411C39.2941 11.7315 39.4345 11.9141 39.6 11.8502C39.6905 11.8152 39.739 11.8661 39.739 11.9959C39.739 12.1194 39.843 12.2382 40.0122 12.3081C40.3994 12.4678 40.6904 12.4565 40.6471 12.2834C40.6275 12.2047 40.5962 11.993 40.5776 11.813C40.5491 11.5381 40.569 11.4999 40.7019 11.5748C40.9301 11.7034 41.2293 11.5967 41.2293 11.3866C41.2293 11.1566 41.4156 11.0921 41.7039 11.2223C41.9897 11.3514 42.2688 11.1444 42.0232 10.9855C41.9001 10.9058 41.9117 10.8795 42.092 10.8297C42.2859 10.7761 42.2967 10.7417 42.1933 10.5045C42.1298 10.3586 42.0368 10.2101 41.9868 10.1743C41.9367 10.1386 41.9317 10.0261 41.9757 9.9242C42.0196 9.82234 42.0509 9.71253 42.0452 9.68019C42.0395 9.64784 42.2224 9.52502 42.4517 9.40726C42.7986 9.22908 42.8739 9.21796 42.9007 9.341C42.9397 9.52069 43.113 9.53816 43.1268 9.36379C43.1323 9.295 43.1678 9.35128 43.2058 9.48886C43.3129 9.87669 43.4614 9.7845 43.4954 9.30901C43.5207 8.95647 43.571 8.86184 43.7751 8.78371C44.1405 8.64381 44.2303 8.6658 44.1632 8.8787C44.1078 9.05455 44.1349 9.06182 44.5209 8.97448C44.7506 8.9225 45.005 8.90568 45.0863 8.9371C45.2493 9.00008 45.7 8.62653 45.7 8.4285C45.7 8.35977 45.8158 8.165 45.9572 7.99568C46.1711 7.73973 46.2865 7.68784 46.642 7.68784C46.9305 7.68784 47.0883 7.73668 47.1268 7.83792C47.2499 8.16104 48.022 7.91382 47.9791 7.56501C47.9455 7.29144 48.123 6.96771 48.3554 6.87874C48.4894 6.8274 48.6505 6.64832 48.7133 6.48079C48.7945 6.26419 48.878 6.18949 49.0023 6.22222C49.0984 6.24754 49.2045 6.22354 49.238 6.16888C49.2716 6.11422 49.3818 6.09128 49.4829 6.11791C49.584 6.14454 49.7185 6.10344 49.7819 6.02657C49.9463 5.82706 49.7236 5.58665 49.3744 5.58665C48.9829 5.58665 48.9417 5.34737 49.2719 4.99142C49.4276 4.82352 49.5346 4.68614 49.5095 4.68614C49.4845 4.68614 49.5448 4.54167 49.6435 4.3651C49.9158 3.87808 50.3002 3.57014 51.2139 3.10696C51.3778 3.02387 51.5874 2.89052 51.6796 2.81064C51.7718 2.73076 51.89 2.69206 51.9424 2.72465C51.9947 2.75724 52.065 2.71196 52.0985 2.62402C52.1355 2.52687 52.2219 2.48828 52.3187 2.52567C52.4367 2.57129 52.4616 2.54442 52.4149 2.42189C52.3593 2.27599 52.4222 2.26299 52.9503 2.31121C53.4237 2.35445 53.5486 2.3365 53.5486 2.22526C53.5486 2.14199 53.4474 2.08466 53.3003 2.08466C53.0119 2.08466 52.9929 2.02976 53.2066 1.81447C53.2917 1.72876 53.3387 1.5992 53.3111 1.52657C53.2821 1.45064 53.3536 1.36549 53.4792 1.32623C53.5994 1.28868 53.8206 1.17074 53.9709 1.06415C54.2582 0.860367 54.2475 0.852021 54.2838 1.30922C54.2893 1.37801 54.3385 1.46806 54.3931 1.50934C54.4555 1.55649 54.4381 1.61954 54.3463 1.67899C54.2659 1.73103 54.2239 1.79755 54.253 1.82682C54.3058 1.87998 54.675 1.96313 54.9206 1.97717C54.9939 1.98136 55.0193 2.03569 54.9788 2.10166C54.9305 2.18037 54.9611 2.19779 55.0723 2.15483C55.1802 2.11312 55.2376 2.14194 55.2376 2.23789C55.2376 2.31871 55.1929 2.38483 55.1382 2.38483C55.0836 2.38483 55.0481 2.4186 55.0595 2.45987C55.0708 2.50115 54.9473 2.67455 54.785 2.84522C54.5466 3.09603 54.4574 3.13482 54.3201 3.04754C54.1865 2.9627 54.1183 2.98196 54.0015 3.13747C53.9198 3.24631 53.8516 3.43668 53.8498 3.5605C53.8475 3.73161 53.7885 3.78563 53.6042 3.78563C53.4708 3.78563 53.334 3.7406 53.3003 3.68557C53.2089 3.53664 53.0812 3.56434 53.0111 3.74831C52.9343 3.94987 53.2346 4.19761 53.4695 4.12651C53.5915 4.08957 53.6961 4.1887 53.8447 4.4822C54.0703 4.92755 54.0137 5.1894 53.6494 5.38577C53.527 5.45174 53.4793 5.54897 53.5186 5.65224C53.5757 5.80199 53.59 5.80187 53.6998 5.65071C53.7653 5.56045 53.9146 5.48659 54.0315 5.48659C54.1484 5.48659 54.2441 5.43853 54.2441 5.37979C54.2441 5.25526 54.6581 5.36176 54.7533 5.51076C54.7923 5.57192 54.8398 5.5681 54.8813 5.50047C54.9658 5.36289 55.6622 5.38291 55.7546 5.52556C55.8367 5.6524 55.4616 6.08693 55.2699 6.08693C55.1062 6.08693 55.096 6.25618 55.2565 6.31007C55.3301 6.33477 55.3848 6.62555 55.4014 7.07965C55.416 7.48109 55.4759 7.95566 55.5344 8.13426C55.5929 8.31285 55.6582 8.55001 55.6795 8.66127C55.7007 8.77254 55.7629 9.02677 55.8176 9.22624C55.9118 9.56998 55.9046 9.58891 55.6792 9.58891C55.3832 9.58891 55.1435 10.0166 55.1214 10.5843C55.108 10.9297 55.0845 10.9694 54.9569 10.8633C54.8275 10.7557 54.8154 10.7952 54.8643 11.1648C54.9053 11.4744 54.8858 11.59 54.7926 11.59C54.5791 11.59 54.5336 12.0145 54.7194 12.2736C54.8131 12.4043 55.0016 12.7201 55.1382 12.9753C55.3857 13.4376 55.7343 13.6558 55.7343 13.3484C55.7343 13.2618 55.8066 13.191 55.895 13.191C56.0044 13.191 56.0397 13.2521 56.0057 13.3831C55.9685 13.5262 56.0226 13.5942 56.2176 13.6497C56.3616 13.6906 56.5176 13.7151 56.5643 13.7042C56.6109 13.6933 56.7338 13.7114 56.8375 13.7446C57.0605 13.8158 57.0918 14.0915 56.8769 14.0915C56.7949 14.0915 56.7278 14.1754 56.7278 14.2781C56.7278 14.5468 57.106 14.992 57.3343 14.992C57.5673 14.992 57.6937 15.2599 57.5358 15.4189C57.4739 15.4813 57.4233 15.6971 57.4233 15.8985C57.4233 16.1682 57.4861 16.3122 57.6616 16.4449C57.8882 16.6163 57.8933 16.6441 57.7654 17.0092C57.6583 17.3149 57.6565 17.3933 57.7568 17.3933C57.9219 17.3933 58.3174 18.3118 58.3174 18.695C58.3174 19.0885 58.0613 19.0927 57.6982 18.7053C57.5493 18.5463 57.2372 18.3164 57.0047 18.1944C56.1763 17.7595 54.6415 16.3323 54.6415 15.9969C54.6415 15.7302 54.434 15.2921 54.3076 15.2921C54.245 15.2921 54.2513 15.2449 54.3236 15.1721C54.4999 14.9945 54.4772 13.9446 54.2938 13.7913C54.2118 13.7228 54.1447 13.5849 54.1447 13.4848C54.1447 13.3847 54.0979 13.2736 54.0406 13.238C53.968 13.1928 53.9681 13.1347 54.041 13.0462C54.1157 12.9556 54.0964 12.7853 53.9738 12.4522C53.8308 12.0636 53.8234 11.9508 53.9294 11.7798C54.074 11.5466 54.0136 11.4293 53.5156 10.976C53.3362 10.8127 53.2258 10.6126 53.2258 10.4507C53.2258 10.149 53.0825 10.1119 52.8921 10.3644C52.708 10.6087 52.7224 10.764 52.9525 11.0128C53.065 11.1344 53.1512 11.3659 53.1512 11.5464C53.1512 11.7217 53.1785 12.0027 53.2119 12.1706C53.2607 12.4166 53.2409 12.4714 53.1101 12.4521C53.0208 12.4389 52.8792 12.3296 52.7955 12.2092C52.6195 11.9562 52.4558 11.923 52.4558 12.1404C52.4558 12.2229 52.3845 12.2904 52.2975 12.2904C52.2104 12.2904 52.1158 12.3805 52.0872 12.4906C52.0586 12.6006 51.9993 12.6907 51.9553 12.6907C51.8145 12.6907 51.7359 13.2908 51.8574 13.4383C51.9204 13.5148 51.9976 13.8394 52.0289 14.1596C52.0602 14.4798 52.15 14.8697 52.2283 15.026C52.3652 15.299 52.3783 15.3033 52.5623 15.1355C52.6745 15.0333 52.7538 15.0091 52.7538 15.0772C52.7538 15.1411 52.6421 15.2913 52.5055 15.4109C52.3689 15.5305 52.2571 15.6909 52.2571 15.7672C52.2571 15.8584 52.1919 15.8851 52.0668 15.8451C51.9621 15.8117 51.8503 15.8269 51.8183 15.879C51.7863 15.9311 51.6708 15.9502 51.5615 15.9215C51.4235 15.8851 51.3629 15.9184 51.3629 16.0309C51.3629 16.1199 51.3294 16.1873 51.2884 16.1808C50.9931 16.1338 50.8555 16.2214 50.8021 16.4906C50.7412 16.7971 50.6051 16.9541 50.2347 17.1451C50.1175 17.2055 50.0282 17.3327 50.0361 17.4277C50.046 17.5472 50.0153 17.571 49.9363 17.505C49.8587 17.4402 49.7039 17.5186 49.4535 17.7497C48.8962 18.2641 48.7476 18.5397 48.8196 18.9259C48.8537 19.1089 48.8479 19.2926 48.8067 19.3341C48.7655 19.3755 48.7238 19.6336 48.714 19.9075C48.7042 20.1815 48.6483 20.4636 48.5899 20.5345C48.5315 20.6054 48.4881 20.9571 48.4934 21.3162C48.4988 21.6752 48.4536 22.0621 48.3931 22.176C48.3326 22.2899 48.2831 22.4959 48.2831 22.6338C48.2831 22.7718 48.2384 22.9125 48.1838 22.9465C48.1291 22.9805 48.0844 23.0957 48.0844 23.2025C48.0844 23.3507 48.1536 23.3967 48.3766 23.3967C48.5373 23.3967 48.6962 23.352 48.7297 23.2974C48.7634 23.2426 48.898 23.321 49.0305 23.4725C49.2228 23.6925 49.2709 23.7122 49.2735 23.5718C49.2773 23.3591 49.4753 23.3346 49.4753 23.5468C49.4753 23.6294 49.5424 23.6969 49.6243 23.6969C49.7063 23.6969 49.7733 23.6294 49.7733 23.5468C49.7733 23.4643 49.8404 23.3967 49.9224 23.3967C50.0921 23.3967 50.1245 23.1414 49.9672 23.0435C49.7742 22.9234 50.0892 22.6751 50.3638 22.731C50.9659 22.8534 51.2732 22.9514 51.2702 23.0199C51.2684 23.0602 51.4265 23.254 51.6216 23.4504C51.8447 23.6751 51.9543 23.8652 51.9171 23.9629C51.8386 24.1688 52.0452 24.8456 52.2561 25.0736C52.3485 25.1735 52.5436 25.4949 52.6898 25.788C52.9547 26.3192 52.9554 26.3265 52.911 28.1357C52.8639 30.0529 52.8372 30.3841 52.7129 30.5865C52.6705 30.6557 52.662 30.8174 52.694 30.9458C52.7692 31.2476 52.4152 32.0572 52.0723 32.3676C51.8538 32.5655 51.7399 32.5955 51.3899 32.5477L50.9697 32.4903L50.9053 32.8963C50.8541 33.2188 50.7986 33.3024 50.6358 33.3024C50.4405 33.3024 50.4394 33.2961 50.6123 33.1687ZM55.3954 28.1917C55.2455 28.0223 55.1473 27.8197 55.1771 27.7414C55.207 27.6632 55.1913 27.5991 55.1424 27.5991C55.041 27.5991 54.7408 27.0327 54.7408 26.8415C54.7408 26.7719 54.5896 26.6208 54.4048 26.5058C54.22 26.3907 54.0103 26.1507 53.9388 25.9723C53.8673 25.7939 53.6569 25.4454 53.4714 25.1978C53.2858 24.9501 53.0731 24.6012 52.9987 24.4223C52.9084 24.2054 52.7955 24.0971 52.6596 24.0971C52.4557 24.0971 52.0584 23.7746 52.0584 23.6091C52.0584 23.5608 51.9913 23.4652 51.9094 23.3967C51.8274 23.3282 51.7603 23.2024 51.7603 23.1172C51.7603 23.032 51.6839 22.8772 51.5904 22.7732C51.4583 22.6261 51.4485 22.5666 51.5465 22.5056C51.7237 22.3954 51.5803 21.8821 51.3558 21.8229C51.2528 21.7958 51.2005 21.7171 51.2314 21.6359C51.3143 21.4184 51.4574 21.4697 51.5653 21.7555C51.6192 21.8984 51.7523 22.0387 51.8609 22.0673C51.9695 22.0959 52.0584 22.183 52.0584 22.2609C52.0584 22.3388 52.1366 22.4305 52.2323 22.4649C52.5367 22.5742 52.6634 22.715 52.565 22.8347C52.4469 22.9782 52.7101 23.3047 53.0767 23.4697C53.227 23.5373 53.3499 23.6386 53.3499 23.6948C53.3499 23.751 53.399 23.797 53.4589 23.797C53.5188 23.797 53.8429 24.04 54.1791 24.3371C54.5154 24.6341 54.947 24.9457 55.1382 25.0293L55.486 25.1814L55.0109 25.1896C54.4327 25.1995 54.3721 25.3116 54.592 25.9639C54.813 26.6194 55.1193 27.0982 55.3202 27.102C55.4114 27.1038 55.573 27.1715 55.6795 27.2526C55.7859 27.3336 55.9461 27.3766 56.0354 27.348C56.2508 27.2792 56.5059 27.7901 56.3154 27.9086C56.2469 27.9513 56.1505 27.961 56.101 27.9302C56.0516 27.8994 56.0718 27.8356 56.146 27.7883C56.2451 27.725 56.248 27.7018 56.1566 27.7007C55.9422 27.6981 55.6496 28.0617 55.7445 28.2127C55.9902 28.6031 55.7464 28.5885 55.3954 28.1917ZM54.9474 27.8576C54.9431 27.7521 54.9665 27.693 54.9996 27.7263C55.0326 27.7595 55.0361 27.8458 55.0074 27.918C54.9757 27.9979 54.9521 27.9742 54.9474 27.8576ZM57.7213 27.4297C57.7213 27.1452 57.7703 27.0013 57.8816 26.9582C58.0184 26.9054 58.0319 26.9516 57.9733 27.2727C57.8727 27.824 57.7213 27.9183 57.7213 27.4297ZM58.0884 26.7348C57.9486 26.5939 58.0136 25.7217 58.1684 25.6619C58.2504 25.6302 58.3174 25.5353 58.3174 25.451C58.3174 25.3668 58.3621 25.2978 58.4168 25.2978C58.5523 25.2978 58.5419 25.4114 58.3681 25.8303C58.2867 26.0266 58.2457 26.2545 58.2771 26.3367C58.3437 26.5117 58.1896 26.8367 58.0884 26.7348ZM58.6225 24.7284C58.6186 24.5528 58.6602 24.3813 58.7148 24.3473C58.834 24.2731 58.834 24.5683 58.7148 24.8476C58.6429 25.0162 58.6283 24.9975 58.6225 24.7284ZM58.9292 23.1966C58.9292 23.059 58.9518 23.0028 58.9793 23.0716C59.0069 23.1403 59.0069 23.2529 58.9793 23.3217C58.9518 23.3905 58.9292 23.3342 58.9292 23.1966ZM49.0282 22.6963C48.9945 22.6413 49.0142 22.5963 49.072 22.5963C49.1299 22.5963 49.1772 22.6413 49.1772 22.6963C49.1772 22.7514 49.1575 22.7964 49.1334 22.7964C49.1093 22.7964 49.062 22.7514 49.0282 22.6963ZM58.5627 21.3906C58.4715 21.2419 58.544 21.1892 58.7035 21.2885C58.7889 21.3416 58.799 21.3932 58.7323 21.4348C58.6756 21.4701 58.5993 21.4502 58.5627 21.3906ZM58.4168 20.6952C58.4168 20.6402 58.4615 20.5951 58.5161 20.5951C58.5708 20.5951 58.6155 20.6402 58.6155 20.6952C58.6155 20.7502 58.5708 20.7953 58.5161 20.7953C58.4615 20.7953 58.4168 20.7502 58.4168 20.6952ZM58.3092 20.1449C58.3008 20.0899 58.2998 20.0092 58.307 19.9657C58.3142 19.9222 58.2769 19.8053 58.2241 19.7059C58.159 19.5835 58.165 19.488 58.2426 19.4098C58.3855 19.2659 58.5504 19.2577 58.4638 19.3989C58.4285 19.4563 58.4445 19.5577 58.4994 19.6243C58.5673 19.7067 58.5553 19.8249 58.4618 19.9951C58.3863 20.1325 58.3176 20.1999 58.3092 20.1449ZM51.8597 16.1485C51.8597 16.1243 51.9044 16.0766 51.959 16.0426C52.0137 16.0086 52.0584 16.0284 52.0584 16.0867C52.0584 16.145 52.0137 16.1927 51.959 16.1927C51.9044 16.1927 51.8597 16.1728 51.8597 16.1485ZM21.26 11.59C21.26 11.425 21.3047 11.2899 21.3593 11.2899C21.414 11.2899 21.4587 11.425 21.4587 11.59C21.4587 11.7551 21.414 11.8902 21.3593 11.8902C21.3047 11.8902 21.26 11.7551 21.26 11.59ZM35.0273 11.2019C34.9966 11.1518 35.0382 11.0849 35.1198 11.0534C35.2015 11.0218 35.2683 11.0369 35.2683 11.087C35.2683 11.2226 35.0917 11.3069 35.0273 11.2019ZM25.2482 10.7989C25.1482 10.7364 25.1435 10.6958 25.23 10.642C25.3663 10.5571 25.4686 10.6323 25.4182 10.7801C25.3975 10.8407 25.3274 10.8484 25.2482 10.7989ZM20.8348 10.4979C20.6198 10.2401 20.5837 10.1364 20.672 10.0293C20.8201 9.84957 20.7031 9.3888 20.5094 9.3888C20.392 9.3888 20.3812 9.34674 20.4604 9.19771C20.5242 9.07765 20.6311 9.02486 20.7482 9.05568C20.8614 9.0855 21.0429 9.0035 21.211 8.84654C21.529 8.54977 21.6435 8.53142 21.9116 8.73427C22.0969 8.87452 22.0875 8.89546 21.6703 9.27261C21.2774 9.62777 21.2303 9.7203 21.1736 10.247L21.1109 10.8289L20.8348 10.4979ZM18.3457 10.4227C18.2304 10.3066 18.2732 10.1997 18.4796 10.0884C18.6392 10.0024 18.6925 10.0139 18.7425 10.145C18.8254 10.3627 18.5072 10.5854 18.3457 10.4227ZM41.5029 9.16367C41.3881 8.84913 41.665 8.69436 42.0656 8.84919C42.2907 8.93618 42.2601 9.03938 41.9697 9.17263C41.6476 9.32043 41.5595 9.31874 41.5029 9.16367ZM22.1541 8.6884C22.082 8.55273 22.0809 8.48829 22.1506 8.48829C22.2072 8.48829 22.2423 8.43201 22.2286 8.36322C22.2147 8.29333 22.2805 8.25112 22.3776 8.26755C22.4733 8.28372 22.5515 8.25541 22.5515 8.20465C22.5515 8.15388 22.6856 8.05639 22.8496 7.98801C23.0135 7.91962 23.1476 7.83393 23.1476 7.79758C23.1476 7.76123 23.263 7.72187 23.404 7.71011C23.545 7.69836 23.7327 7.64801 23.821 7.59822C23.9169 7.54419 24.0772 7.54429 24.2187 7.59848C24.3491 7.64841 24.4987 7.66256 24.5512 7.62991C24.6036 7.59726 24.7125 7.62567 24.7931 7.69303C24.8902 7.77421 25.1251 7.79622 25.4898 7.75831C25.921 7.71349 26.0522 7.73308 26.0963 7.84888C26.1273 7.93015 26.1241 8.02536 26.0893 8.06047C25.9935 8.15696 25.053 8.26104 24.9359 8.18812C24.8795 8.15304 24.5994 8.16381 24.3134 8.21205C24.0274 8.26029 23.6663 8.31252 23.5109 8.32813C23.3556 8.34374 23.1991 8.39742 23.1632 8.44742C23.1273 8.49741 22.9862 8.55043 22.8496 8.56524C22.713 8.58005 22.5515 8.65884 22.4909 8.74034C22.3444 8.93713 22.2811 8.92737 22.1541 8.6884ZM41.1299 8.84439C41.1299 8.82013 41.1746 8.77244 41.2293 8.73843C41.2839 8.70442 41.3286 8.72428 41.3286 8.78256C41.3286 8.84083 41.2839 8.88852 41.2293 8.88852C41.1746 8.88852 41.1299 8.86866 41.1299 8.84439ZM2.71267 8.66768C2.65788 8.59653 2.58515 8.45952 2.55106 8.36322C2.51471 8.26051 2.38754 8.18812 2.24345 8.18812C2.10836 8.18812 1.96909 8.14129 1.93396 8.08405C1.89255 8.01657 1.96035 8.0028 2.1268 8.04487C2.33879 8.09846 2.3835 8.07488 2.3835 7.9095C2.3835 7.54839 2.8714 7.5518 2.87873 7.91296C2.87956 7.95424 2.95001 7.98801 3.03527 7.98801C3.1536 7.98801 3.18299 8.0766 3.15946 8.36239C3.127 8.7564 2.9003 8.91131 2.71267 8.66768ZM40.2624 8.54571C40.0197 8.43265 39.8139 7.96852 39.9029 7.73505C39.9697 7.55977 40.0797 7.55015 40.3502 7.69594C40.5863 7.82323 40.7212 7.73648 40.552 7.5661C40.3628 7.37554 40.4105 7.33878 40.8744 7.31782C41.3185 7.29776 41.6093 7.47325 41.4803 7.68345C41.3795 7.8477 41.0515 7.80556 40.9304 7.6128C40.856 7.49445 40.8328 7.48634 40.8588 7.58778C40.8799 7.67033 40.996 7.78787 41.1166 7.849L41.336 7.96013L41.0591 8.14641C40.9068 8.24886 40.7432 8.32083 40.6955 8.30634C40.6478 8.29185 40.6338 8.34565 40.6644 8.42589C40.7372 8.61703 40.541 8.67553 40.2624 8.54571ZM32.2803 7.92808C32.3937 7.71503 32.4865 7.48377 32.4865 7.41416C32.4865 7.34456 32.5312 7.28761 32.5858 7.28761C32.6405 7.28761 32.6852 7.33264 32.6852 7.38767C32.6852 7.4427 32.7331 7.48772 32.7916 7.48772C32.9646 7.48772 33.2054 7.78207 33.1504 7.92632C33.1225 7.99963 32.9729 8.08744 32.8179 8.12146C32.6629 8.15547 32.4322 8.21303 32.3052 8.24937L32.0742 8.31544L32.2803 7.92808ZM31.4681 7.53055C31.1285 7.34496 31.1031 6.96352 31.4157 6.74297C31.6977 6.54407 31.8286 6.5444 31.7526 6.74384C31.7074 6.86246 31.739 6.88575 31.8827 6.83983C32.1097 6.76727 32.2346 6.93114 32.1323 7.16733C32.0917 7.261 32.0682 7.41643 32.0801 7.51274C32.1067 7.7294 31.846 7.73699 31.4681 7.53055ZM41.6918 7.21117C41.6347 7.11626 41.8319 6.9428 42.0241 6.9188C42.106 6.90857 42.2845 6.86671 42.4206 6.82578C42.6607 6.7536 42.6635 6.75835 42.515 6.98359C42.3657 7.20999 41.7872 7.36994 41.6918 7.21117ZM30.8638 6.82068C30.7431 6.69914 30.7951 6.59256 30.9466 6.65109C31.0285 6.68276 31.0956 6.74889 31.0956 6.79803C31.0956 6.90293 30.9587 6.9163 30.8638 6.82068ZM31.0597 6.43732C30.9812 6.23124 31.156 5.88682 31.3392 5.88682C31.4147 5.88682 31.4964 5.83053 31.5208 5.76175C31.58 5.59474 31.6625 5.68186 31.7343 5.98708C31.8082 6.30151 31.7106 6.45345 31.3813 6.5367C31.1914 6.58468 31.1058 6.55822 31.0597 6.43732ZM48.5812 5.94755C48.5812 5.92592 48.6482 5.88231 48.7302 5.85063C48.8121 5.81896 48.8792 5.83665 48.8792 5.88996C48.8792 5.94326 48.8121 5.98687 48.7302 5.98687C48.6482 5.98687 48.5812 5.96918 48.5812 5.94755ZM26.3711 4.57736C26.3344 4.51753 26.3433 4.42936 26.3909 4.38141C26.5084 4.26308 26.767 4.43534 26.6814 4.57489C26.5946 4.71632 26.4571 4.71741 26.3711 4.57736ZM26.9229 4.58608C26.9229 4.53105 27.0149 4.48602 27.1275 4.48602C27.24 4.48602 27.3044 4.53105 27.2706 4.58608C27.2369 4.64111 27.1448 4.68614 27.0661 4.68614C26.9873 4.68614 26.9229 4.64111 26.9229 4.58608ZM26.0791 3.88683C26.0443 3.83011 26.0842 3.81334 26.1726 3.84751C26.3447 3.91402 26.3762 3.98574 26.2333 3.98574C26.1819 3.98574 26.1125 3.94123 26.0791 3.88683ZM24.8862 3.48546C24.58 3.40699 24.6369 3.37288 25.1031 3.35538C25.2498 3.34988 25.3876 3.39941 25.4095 3.46544C25.453 3.59701 25.3386 3.60138 24.8862 3.48546ZM24.7041 3.11858C24.6677 3.08189 24.6379 3.01857 24.6379 2.97786C24.6379 2.88167 25.022 2.98261 25.0923 3.09731C25.1548 3.19909 24.8032 3.21836 24.7041 3.11858ZM49.0951 2.73304C48.9295 2.36711 48.9498 2.20726 49.1772 2.08466C49.3966 1.96644 49.4041 1.98133 49.3779 2.48489C49.3537 2.94924 49.2386 3.05026 49.0951 2.73304Z" stroke="#E9B4A3" stroke-width="2.6" mask="url(#path-1-inside-1)"/>
</svg>
